<svg width="10" height="11" viewBox="0 0 10 11" fill="none" xmlns="http://www.w3.org/2000/svg">
<path d="M1.90078 11V9.395H0.700781V7.94H1.90078V6.77H0.700781V4.91H1.90078V0.289999H5.32078C6.70078 0.289999 7.70578 0.569999 8.33578 1.13C8.97578 1.69 9.29578 2.46 9.29578 3.44C9.29578 4.02 9.16578 4.565 8.90578 5.075C8.64578 5.585 8.21078 5.995 7.60078 6.305C7.00078 6.615 6.18078 6.77 5.14078 6.77H4.16578V7.94H6.47578V9.395H4.16578V11H1.90078ZM4.16578 4.91H4.91578C5.55578 4.91 6.06078 4.8 6.43078 4.58C6.81078 4.36 7.00078 4.005 7.00078 3.515C7.00078 2.605 6.40078 2.15 5.20078 2.15H4.16578V4.91Z" fill="#29344A"/>
</svg>
