<?xml version="1.0"?>
<svg xmlns="http://www.w3.org/2000/svg" xmlns:xlink="http://www.w3.org/1999/xlink" version="1.1" id="Capa_1" x="0px" y="0px" viewBox="0 0 67.167 67.167" style="enable-background:new 0 0 67.167 67.167;" xml:space="preserve" width="512px" height="512px" class=""><g><path d="M66.06,32.684l-7.209-12.845c-0.709-1.264-2.4-2.255-3.851-2.255H5c-1.654,0-3,1.346-3,3V31H1  c-0.553,0-1,0.448-1,1s0.447,1,1,1h1v1.083H1c-0.553,0-1,0.448-1,1s0.447,1,1,1h1v11.792c0,1.654,1.346,3,3,3h6.85  c0.538,2.636,2.875,4.625,5.667,4.625c2.793,0,5.13-1.989,5.668-4.625h22.795c0.538,2.636,2.875,4.625,5.667,4.625  c2.793,0,5.13-1.989,5.668-4.625h6.85c1.654,0,3-1.346,3-3V36.917C67.167,35.648,66.681,33.788,66.06,32.684z M62.738,30.853H44.25  V23.5h14.362L62.738,30.853z M17.518,53.5c-2.087,0-3.784-1.698-3.784-3.784c0-2.087,1.697-3.785,3.784-3.785  s3.785,1.698,3.785,3.785C21.303,51.802,19.604,53.5,17.518,53.5z M51.648,53.5c-2.087,0-3.784-1.698-3.784-3.784  c0-2.087,1.697-3.785,3.784-3.785s3.785,1.698,3.785,3.785C55.434,51.802,53.735,53.5,51.648,53.5z M64.167,48.875h-6.802  c-0.409-2.791-2.813-4.944-5.717-4.944c-2.903,0-5.307,2.152-5.716,4.944H23.234c-0.409-2.791-2.813-4.944-5.717-4.944  c-2.903,0-5.307,2.152-5.716,4.944H5c-0.552,0-1-0.449-1-1v-2.444h7.25c0.276,0,0.5-0.224,0.5-0.5s-0.224-0.5-0.5-0.5H4V20.584  c0-0.551,0.448-1,1-1h50c0.74,0,1.744,0.588,2.106,1.233L57.49,21.5H43.25c-0.553,0-1,0.448-1,1v9.353c0,0.552,0.447,1,1,1h20.611  l0.455,0.81c0.454,0.807,0.852,2.327,0.852,3.254v7.514h-7.25c-0.276,0-0.5,0.224-0.5,0.5s0.224,0.5,0.5,0.5h7.25v2.444  C65.167,48.427,64.719,48.875,64.167,48.875z M44.375,44.931c0,0.276-0.224,0.5-0.5,0.5H25.5c-0.276,0-0.5-0.224-0.5-0.5  s0.224-0.5,0.5-0.5h18.375C44.151,44.431,44.375,44.655,44.375,44.931z M44.083,17.167h6.584c1.517,0,2.75-1.233,2.75-2.75  s-1.233-2.75-2.75-2.75h-6.584c-1.517,0-2.75,1.233-2.75,2.75S42.566,17.167,44.083,17.167z M44.083,13.667h6.584  c0.413,0,0.75,0.336,0.75,0.75s-0.337,0.75-0.75,0.75h-6.584c-0.413,0-0.75-0.336-0.75-0.75S43.67,13.667,44.083,13.667z   M26.151,36.658v-1.402h1.402c1.105,0,2-0.895,2-2V29.56c0-1.105-0.895-2-2-2h-1.402v-1.402c0-1.105-0.895-2-2-2h-3.697  c-1.105,0-2,0.895-2,2v1.402h-1.402c-1.105,0-2,0.895-2,2v3.697c0,1.105,0.895,2,2,2h1.402v1.402c0,1.105,0.895,2,2,2h3.697  C25.255,38.658,26.151,37.763,26.151,36.658z M24.151,36.658h-3.697v-3.402h-3.402V29.56h3.402v-3.402h3.697v3.402h3.402v3.697  h-3.402V36.658z M48.167,29.802v-5.25c0-0.276,0.224-0.5,0.5-0.5s0.5,0.224,0.5,0.5v5.25c0,0.276-0.224,0.5-0.5,0.5  S48.167,30.078,48.167,29.802z" data-original="#231F20" class="active-path" data-old_color="#231F20" fill="#000000"/></g> </svg>
