<?xml version="1.0"?>
<svg xmlns="http://www.w3.org/2000/svg" xmlns:xlink="http://www.w3.org/1999/xlink" version="1.1" id="Layer_1" x="0px" y="0px" viewBox="0 0 511.999 511.999" style="enable-background:new 0 0 511.999 511.999;" xml:space="preserve" width="512px" height="512px"><g><g>
	<g>
		<path d="M438.227,415.026l-24.954-46.838V252.491c0-71.557-48.039-132.099-113.559-151.085V43.715    C299.714,19.61,280.103,0,255.999,0s-43.715,19.61-43.715,43.715v57.691c-65.519,18.987-113.559,79.529-113.559,151.085v115.697    l-24.953,46.838c-4.826,9.054-4.552,19.713,0.727,28.509c5.281,8.797,14.559,14.049,24.819,14.049h99.026    c1.738,30.298,26.929,54.415,57.654,54.415s55.915-24.117,57.653-54.415h99.027c10.26,0,19.539-5.253,24.82-14.049    C442.779,434.739,443.052,424.082,438.227,415.026z M235.563,43.715c0-11.268,9.167-20.436,20.436-20.436    c11.268,0,20.436,9.167,20.436,20.436v52.831c-6.69-0.872-13.511-1.327-20.436-1.327c-6.924,0-13.744,0.455-20.436,1.327V43.715z     M255.999,488.721c-17.884,0-32.628-13.687-34.313-31.136h68.627C288.626,475.034,273.882,488.721,255.999,488.721z     M417.539,431.555c-0.496,0.826-1.965,2.75-4.861,2.75H99.32c-2.896,0-4.364-1.923-4.86-2.75    c-0.497-0.828-1.505-3.027-0.143-5.582l23.511-44.128h241.625c6.427,0,11.64-5.212,11.64-11.64s-5.212-11.64-11.64-11.64H122.006    V252.491c0-73.884,60.11-133.993,133.993-133.993c73.883,0,133.994,60.11,133.994,133.993v118.605    c0,1.909,0.469,3.789,1.368,5.473l26.322,49.403C419.044,428.528,418.036,430.728,417.539,431.555z" data-original="#000000" class="active-path" data-old_color="#000000" fill="#FFFFFF"/>
	</g>
</g><g>
	<g>
		<path d="M255.999,149.054c-57.036,0-103.438,46.401-103.438,103.437c0,6.427,5.212,11.64,11.64,11.64s11.64-5.212,11.64-11.64    c0-44.2,35.96-80.158,80.159-80.158c6.427,0,11.64-5.212,11.64-11.64S262.426,149.054,255.999,149.054z" data-original="#000000" class="active-path" data-old_color="#000000" fill="#FFFFFF"/>
	</g>
</g></g> </svg>
