<svg height="512pt" viewBox="-28 0 512 512" width="512pt" xmlns="http://www.w3.org/2000/svg" fill="#fff"><path d="m270.171875 108.699219h-55.519531c-5.566406 0-10.082032 4.515625-10.082032 10.082031v55.003906h-54.980468c-5.570313 0-10.082032 4.515625-10.082032 10.082032v55.539062c0 5.570312 4.511719 10.085938 10.082032 10.085938h54.980468v130.234374c0 5.570313 4.515626 10.085938 10.085938 10.085938h55.519531c5.566407 0 10.082031-4.515625 10.082031-10.085938v-130.234374h54.980469c5.570313 0 10.085938-4.515626 10.085938-10.082032v-55.539062c0-5.570313-4.515625-10.085938-10.085938-10.085938h-54.980469v-55.003906c0-5.566406-4.515624-10.082031-10.085937-10.082031zm54.980469 85.253906v35.371094h-54.980469c-5.566406 0-10.082031 4.515625-10.082031 10.085937v130.234375h-35.351563v-130.234375c0-5.570312-4.515625-10.085937-10.085937-10.085937h-54.980469v-35.371094h54.980469c5.570312 0 10.085937-4.511719 10.085937-10.082031v-55.003906h35.351563v55.003906c0 5.570312 4.515625 10.082031 10.082031 10.082031zm0 0"/><path d="m455 401.820312v-302.351562s0 0 0-.003906v-69.234375c0-16.667969-13.558594-30.230469-30.222656-30.230469h-390.277344c-19.023438 0-34.5 15.480469-34.5 34.511719v442.949219c0 19.046874 15.476562 34.539062 34.5 34.539062h132.199219c5.566406 0 10.082031-4.515625 10.082031-10.085938 0-5.566406-4.515625-10.082031-10.082031-10.082031h-97.667969v-471.664062h262.117188l103.683593 84.175781v292.601562l-116.882812 94.882813h-59.445313c-5.570312 0-10.085937 4.515625-10.085937 10.085937 0 5.570313 4.515625 10.082032 10.085937 10.082032h63.011719c.007813 0 .011719.003906.019531.003906.007813 0 .015625-.003906.023438-.003906h103.21875c16.664062 0 30.222656-13.570313 30.222656-30.257813v-79.914062c0-.003907 0-.003907 0-.003907zm-434.832031 75.640626v-442.949219c0-7.910157 6.429687-14.34375 14.332031-14.34375h14.363281v471.660156h-14.363281c-7.902344 0-14.332031-6.445313-14.332031-14.367187zm342.980469-457.292969h61.628906c5.542968 0 10.054687 4.515625 10.054687 10.0625v48.136719zm61.628906 471.660156h-74.828125l84.882812-68.90625v58.816406c0 5.566407-4.511719 10.089844-10.054687 10.089844zm0 0"/><path d="m213.296875 491.828125h-.171875c-5.570312 0-10.085938 4.515625-10.085938 10.085937 0 5.570313 4.515626 10.082032 10.085938 10.082032h.171875c5.566406 0 10.082031-4.511719 10.082031-10.082032 0-5.570312-4.515625-10.085937-10.082031-10.085937zm0 0"/></svg>