<?xml version="1.0"?>
<svg xmlns="http://www.w3.org/2000/svg" xmlns:xlink="http://www.w3.org/1999/xlink" version="1.1" id="Capa_1" x="0px" y="0px" viewBox="0 0 470 470" style="enable-background:new 0 0 470 470;" xml:space="preserve" width="512px" height="512px" class=""><g><g>
	<path d="M245.51,301.844v-157c0-4.142-3.358-7.5-7.5-7.5H120.867c-4.142,0-7.5,3.358-7.5,7.5s3.358,7.5,7.5,7.5H230.51v148H78.367   v-148h12.5c4.142,0,7.5-3.358,7.5-7.5s-3.358-7.5-7.5-7.5h-20c-4.142,0-7.5,3.358-7.5,7.5v157c0,7.444,6.056,13.5,13.5,13.5H232.01   C239.454,315.344,245.51,309.287,245.51,301.844z" data-original="#000000" class="active-path" data-old_color="#000000" fill="#FFFFFF"/>
	<path d="M436.633,179.563c0-23.28-18.94-42.22-42.22-42.22c-11.578,0-22.489,4.762-30.344,12.879   c-7.854-8.117-18.766-12.879-30.344-12.879c-23.28,0-42.22,18.94-42.22,42.22c0,9.272,2.952,18.074,8.536,25.454l56.528,74.716   v98.784c0,42.173-34.074,76.483-75.958,76.483c-42.173,0-76.483-34.31-76.483-76.483v-4.855h9.5c4.142,0,7.5-3.358,7.5-7.5v-20.818   h10.881c23.986,0,43.5-19.514,43.5-43.5v-219c0-23.986-19.514-43.5-43.5-43.5H197.34v-12.76C197.34,11.925,185.415,0,170.757,0   h-32.638c-14.658,0-26.583,11.925-26.583,26.583v12.76H76.867c-23.986,0-43.5,19.514-43.5,43.5v219c0,23.986,19.514,43.5,43.5,43.5   h10.881v20.818c0,4.142,3.358,7.5,7.5,7.5h34c4.142,0,7.5-3.358,7.5-7.5v-20.818h35.381v20.818c0,4.142,3.358,7.5,7.5,7.5h9.5   v4.855c0,50.444,41.039,91.483,91.483,91.483c24.416,0,47.304-9.524,64.449-26.818c17.094-17.244,26.509-40.209,26.509-64.665   v-98.784l56.527-74.716C433.682,197.638,436.633,188.836,436.633,179.563z M126.536,26.583c0-6.387,5.196-11.583,11.583-11.583   h32.638c6.387,0,11.583,5.196,11.583,11.583v12.76h-55.804V26.583z M179.629,330.344h-50.381c-4.142,0-7.5,3.358-7.5,7.5v20.818   h-19v-20.818c0-4.142-3.358-7.5-7.5-7.5H76.867c-15.715,0-28.5-12.785-28.5-28.5v-219c0-15.715,12.785-28.5,28.5-28.5H232.01   c15.715,0,28.5,12.785,28.5,28.5v219c0,15.715-12.785,28.5-28.5,28.5h-18.381c-4.142,0-7.5,3.358-7.5,7.5v20.818h-19v-20.818   C187.129,333.702,183.771,330.344,179.629,330.344z M416.135,195.967l-52.066,68.818l-52.066-68.819   c-3.597-4.753-5.498-10.425-5.498-16.403c0-15.009,12.211-27.22,27.22-27.22c9.865,0,18.981,5.367,23.791,14.007   c1.324,2.378,3.832,3.852,6.553,3.852s5.229-1.474,6.553-3.852c4.809-8.64,13.925-14.007,23.791-14.007   c15.009,0,27.22,12.211,27.22,27.22C421.633,185.541,419.732,191.213,416.135,195.967z" data-original="#000000" class="active-path" data-old_color="#000000" fill="#FFFFFF"/>
</g></g> </svg>
