<?xml version="1.0" encoding="iso-8859-1"?>
<!-- Generator: Adobe Illustrator 16.0.0, SVG Export Plug-In . SVG Version: 6.00 Build 0)  -->
<!DOCTYPE svg PUBLIC "-//W3C//DTD SVG 1.1//EN" "http://www.w3.org/Graphics/SVG/1.1/DTD/svg11.dtd">
<svg version="1.1" id="Capa_1" xmlns="http://www.w3.org/2000/svg" xmlns:xlink="http://www.w3.org/1999/xlink" x="0px" y="0px"
	 width="65.65px" height="65.65px" viewBox="0 0 65.65 65.65" style="enable-background:new 0 0 65.65 65.65;" xml:space="preserve"
	 fill="#ffffff">
<g>
	<g>
		<g>
			<path d="M32.825,65.65c-16.702,0-30.291-13.588-30.291-30.288c0-16.702,13.589-30.289,30.291-30.289s30.291,13.588,30.291,30.289
				C63.116,52.062,49.527,65.65,32.825,65.65z M32.825,9.073c-14.497,0-26.291,11.793-26.291,26.289
				c0,14.495,11.794,26.288,26.291,26.288s26.291-11.793,26.291-26.288C59.116,20.866,47.322,9.073,32.825,9.073z"/>
		</g>
		<g>
			<path d="M22.064,55.385c-0.167,0-0.337-0.041-0.492-0.129c-7.154-4.06-11.599-11.683-11.599-19.895c0-0.553,0.447-1,1-1
				c0.553,0,1,0.447,1,1c0,7.494,4.056,14.449,10.585,18.152c0.48,0.271,0.649,0.884,0.377,1.363
				C22.751,55.202,22.413,55.385,22.064,55.385z"/>
		</g>
		<g>
			<path d="M27.763,58.223c-0.083,0-0.167-0.01-0.251-0.031c-0.427-0.109-0.845-0.23-1.261-0.363
				c-0.526-0.168-0.816-0.73-0.649-1.256c0.168-0.525,0.727-0.818,1.257-0.65c0.381,0.123,0.764,0.232,1.153,0.334
				c0.535,0.137,0.856,0.685,0.718,1.217C28.614,57.924,28.208,58.223,27.763,58.223z"/>
		</g>
		<g>
			<path d="M60.044,16.155c-0.511,0-1.021-0.194-1.412-0.584l-5.193-5.18c-0.781-0.78-0.783-2.046-0.004-2.828
				c0.779-0.782,2.048-0.786,2.828-0.004l5.193,5.18c0.782,0.78,0.784,2.046,0.004,2.828C61.069,15.958,60.556,16.155,60.044,16.155
				z"/>
		</g>
		<g>
			<path d="M38.618,43.321c-0.493,0-0.986-0.181-1.373-0.546l-5.853-5.469c-0.4-0.379-0.687-0.903-0.687-1.455V19
				c0-1.104,0.896-2,2-2c1.104,0,2,0.896,2,2v15.989l5.226,4.877c0.804,0.758,0.871,2.022,0.11,2.827
				C39.649,43.111,39.149,43.321,38.618,43.321z"/>
		</g>
		<g>
			<path d="M32.706,8c-1.104,0-2-0.896-2-2V2c0-1.104,0.896-2,2-2c1.104,0,2,0.896,2,2v4C34.706,7.105,33.81,8,32.706,8z"/>
		</g>
	</g>
</g>
<g>
</g>
<g>
</g>
<g>
</g>
<g>
</g>
<g>
</g>
<g>
</g>
<g>
</g>
<g>
</g>
<g>
</g>
<g>
</g>
<g>
</g>
<g>
</g>
<g>
</g>
<g>
</g>
<g>
</g>
</svg>
