<?xml version="1.0"?>
<svg xmlns="http://www.w3.org/2000/svg" xmlns:xlink="http://www.w3.org/1999/xlink" version="1.1" id="Capa_1" x="0px" y="0px" viewBox="0 0 490 490" style="enable-background:new 0 0 490 490;" xml:space="preserve" width="512px" height="512px"><g><g>
	<path d="M461.295,77.547H28.703C12.876,77.547,0,90.425,0,106.254v277.492c0,15.829,12.876,28.707,28.703,28.707h432.592   c15.828,0,28.705-12.878,28.705-28.707V106.254C490,90.425,477.123,77.547,461.295,77.547z M20,164.225h450v45.436H20V164.225z    M28.703,97.547h432.592c4.8,0,8.705,3.906,8.705,8.707v37.971H20v-37.971C20,101.453,23.904,97.547,28.703,97.547z    M461.295,392.453H28.703c-4.799,0-8.703-3.906-8.703-8.707V229.66h450v154.086C470,388.547,466.095,392.453,461.295,392.453z" data-original="#000000" class="active-path" data-old_color="#000000" fill="#FFFFFF"/>
	<path d="M233.982,264.518H71.104c-5.522,0-10,4.477-10,10v62.953c0,5.522,4.478,10,10,10h162.879c5.522,0,10-4.478,10-10v-62.953   C243.982,268.995,239.505,264.518,233.982,264.518z M223.982,327.471H81.104v-42.953h142.879V327.471z" data-original="#000000" class="active-path" data-old_color="#000000" fill="#FFFFFF"/>
</g></g> </svg>
