<?xml version="1.0"?>
<svg xmlns="http://www.w3.org/2000/svg" xmlns:xlink="http://www.w3.org/1999/xlink" version="1.1" id="Layer_1" x="0px" y="0px" viewBox="0 0 512 512" style="enable-background:new 0 0 512 512;" xml:space="preserve" width="512px" height="512px"><g><g>
	<path d="M509.63,191.536c-1.156-1.364-28.822-33.787-73.785-66.612c-26.488-19.337-53.493-34.764-80.265-45.85   C321.812,65.09,288.309,58,256,58s-65.813,7.09-99.58,21.073c-26.772,11.086-53.777,26.513-80.265,45.85   C31.192,157.749,3.526,190.172,2.37,191.536c-3.16,3.73-3.16,9.198,0,12.929c0.885,1.044,17.33,20.307,45.169,44.011   C29.371,288.375,0,356.86,0,382.619C0,421.979,31.402,454,70,454s70-32.021,70-71.381c0-17.194-13.088-53.423-27.195-87.485   c14.527,8.49,29.105,15.784,43.615,21.793C190.187,330.91,223.691,338,256,338s65.812-7.09,99.58-21.073   c26.772-11.086,53.777-26.513,80.265-45.85c44.963-32.826,72.629-65.249,73.785-66.612   C512.79,200.734,512.79,195.266,509.63,191.536z M396,128c0,77.196-62.804,140-140,140s-140-62.804-140-140   c0-1.921,0.04-3.853,0.118-5.779c24.915-15.211,54.794-29.597,87.485-37.627C195.689,95.363,191,108.642,191,123   c0,35.841,29.159,65,65,65s65-29.159,65-65c0-14.358-4.688-27.637-12.602-38.405c32.709,8.036,62.592,22.431,87.485,37.628   C395.96,124.149,396,126.08,396,128z M301,123c0,24.813-20.187,45-45,45s-45-20.187-45-45s20.187-45,45-45S301,98.187,301,123z    M120,382.619C120,410.95,97.57,434,70,434s-50-23.05-50-51.381c0-19.698,24.579-78.804,43.591-121.039   c4.022,3.144,8.209,6.318,12.564,9.497c2.185,1.595,4.376,3.154,6.568,4.696C100.441,316.111,120,365.042,120,382.619z    M424.052,254.923C384.636,283.699,323.486,318,256,318c-67.323,0-128.333-34.146-167.66-62.791   c-31.576-22.999-54.657-46.262-64.875-57.213c10.155-10.893,33.034-33.96,64.483-56.919c2.642-1.929,5.39-3.884,8.222-5.85   C99.963,220.109,170.198,288,256,288c85.803,0,156.038-67.892,159.829-152.777c2.696,1.871,5.309,3.731,7.831,5.568   c31.576,22.999,54.656,46.26,64.875,57.213C478.379,208.896,455.5,231.964,424.052,254.923z" data-original="#000000" class="active-path" data-old_color="#000000" fill="#FFFFFF"/>
	<path d="M347.779,145.339l15.851,2.438c0.515,0.079,1.027,0.118,1.532,0.118c4.852,0,9.111-3.538,9.872-8.481   c0.839-5.459-2.905-10.564-8.364-11.404l-15.851-2.438c-5.461-0.838-10.564,2.905-11.404,8.364   C338.576,139.395,342.321,144.5,347.779,145.339z" data-original="#000000" class="active-path" data-old_color="#000000" fill="#FFFFFF"/>
	<path d="M214,196.746c-4.785-2.761-10.899-1.124-13.66,3.66l-10,17.321c-2.762,4.783-1.123,10.899,3.66,13.66   c1.575,0.909,3.294,1.341,4.991,1.341c3.456,0,6.817-1.793,8.669-5.001l10-17.321C220.422,205.623,218.783,199.507,214,196.746z" data-original="#000000" class="active-path" data-old_color="#000000" fill="#FFFFFF"/>
	<path d="M169.594,162.34l-17.321,10c-4.783,2.761-6.422,8.877-3.66,13.66c1.852,3.208,5.213,5.001,8.669,5.001   c1.696,0,3.416-0.432,4.991-1.341l17.321-10c4.783-2.761,6.422-8.877,3.66-13.66C180.493,161.217,174.376,159.578,169.594,162.34z" data-original="#000000" class="active-path" data-old_color="#000000" fill="#FFFFFF"/>
	<path d="M256,208c-5.523,0-10,4.477-10,10v20c0,5.523,4.477,10,10,10s10-4.477,10-10v-20C266,212.477,261.523,208,256,208z" data-original="#000000" class="active-path" data-old_color="#000000" fill="#FFFFFF"/>
	<path d="M332.406,179.66l17.321,10c1.575,0.909,3.294,1.341,4.991,1.341c3.456,0,6.817-1.793,8.669-5.001   c2.762-4.783,1.123-10.899-3.66-13.66l-17.321-10c-4.782-2.76-10.898-1.123-13.66,3.66   C325.984,170.783,327.624,176.899,332.406,179.66z" data-original="#000000" class="active-path" data-old_color="#000000" fill="#FFFFFF"/>
	<path d="M298,196.746c-4.783,2.761-6.422,8.877-3.66,13.66l10,17.321c1.852,3.208,5.213,5.001,8.669,5.001   c1.696,0,3.416-0.432,4.991-1.341c4.783-2.761,6.422-8.877,3.66-13.66l-10-17.321C308.898,195.623,302.783,193.985,298,196.746z" data-original="#000000" class="active-path" data-old_color="#000000" fill="#FFFFFF"/>
	<path d="M164.221,145.339c5.458-0.839,9.203-5.945,8.364-11.404c-0.839-5.458-5.941-9.203-11.404-8.364l-15.851,2.438   c-5.458,0.839-9.203,5.945-8.364,11.404c0.76,4.944,5.02,8.481,9.872,8.481c0.505,0,1.018-0.039,1.532-0.118L164.221,145.339z" data-original="#000000" class="active-path" data-old_color="#000000" fill="#FFFFFF"/>
	<path d="M68.83,392.6c-0.4-0.05-0.81-0.08-1.21-0.08c-5.05,0-9.31,3.79-9.92,8.81c-0.32,2.65,0.41,5.27,2.06,7.37   s4.02,3.43,6.67,3.75c0.4,0.05,0.81,0.08,1.21,0.08c5.05,0,9.31-3.79,9.92-8.81C78.22,398.25,74.3,393.26,68.83,392.6z" data-original="#000000" class="active-path" data-old_color="#000000" fill="#FFFFFF"/>
	<path d="M70.01,319.33c-3.82,0-7.36,2.22-9.01,5.66c-0.01,0-0.01,0-0.01,0.01l-0.02,0.03c-0.55,1.15-3.49,7.32-7.04,15.36   c-5.24,11.89-8.92,21.2-11.23,28.46c-0.8,2.55-0.57,5.25,0.66,7.62c1.23,2.38,3.31,4.13,5.85,4.93c0.99,0.32,2,0.47,3.03,0.47   c4.37,0,8.2-2.8,9.53-6.98c2.69-8.51,7.7-20.2,10.45-26.42c1.53-3.47,3.15-7.03,4.81-10.59c1.25-2.69,1.98-4.2,1.98-4.21   c2.39-4.97,0.29-10.96-4.67-13.35C72.97,319.67,71.51,319.33,70.01,319.33z" data-original="#000000" class="active-path" data-old_color="#000000" fill="#FFFFFF"/>
</g></g> </svg>
