<?xml version="1.0"?>
<svg xmlns="http://www.w3.org/2000/svg" xmlns:xlink="http://www.w3.org/1999/xlink" version="1.1" id="Layer_1" x="0px" y="0px" viewBox="0 0 512 512" style="enable-background:new 0 0 512 512;" xml:space="preserve" width="512px" height="512px" class=""><g><g id="XMLID_830_">
	<g id="XMLID_1409_">
		<path id="XMLID_1410_" d="M312.475,291.393l-0.221,0.283c-3.393,4.358-2.609,10.642,1.749,14.034    c1.826,1.421,3.988,2.108,6.135,2.108c2.979,0,5.927-1.325,7.898-3.857l0.221-0.283c3.393-4.358,2.609-10.642-1.749-14.034    C322.15,286.251,315.867,287.034,312.475,291.393z" data-original="#000000" class="active-path" data-old_color="#000000" fill="#FFFFFF"/>
		<path id="XMLID_1667_" d="M508.907,94.444l-44.796-45.22l-5.052-7.812C442.284,15.481,413.831,0,382.946,0    c-14.88,0-29.463,4.092-42.171,11.834C316.79,26.446,301.89,52.971,301.89,81.057v90.924c0,8.396-6.61,15.278-14.899,15.715    c-57.082-10.802-115.662,3.91-160.888,40.441c-32.46,26.221-59.662,57.743-80.848,93.69l-13.371,22.688    c-1.571,2.665-1.819,5.907-0.673,8.781c1.146,2.874,3.558,5.056,6.532,5.908l11.319,3.246l-35.642,16.695    c-8.033,3.764-13.223,11.927-13.223,20.797v0.279c0,12.968,10.528,23.518,23.469,23.518H84.6c5.414,0,10.69,1.063,15.687,3.159    l1.823,0.764c39.164,16.434,80.388,25.382,122.688,26.688v24.895c-12.128,0.492-21.845,10.509-21.845,22.756    c0,5.522,4.477,10,10,10s10-4.478,10-10c0-1.532,1.247-2.779,2.779-2.779h33.545c1.533,0,2.779,1.247,2.779,2.779    c0,5.522,4.477,10,10,10s10-4.478,10-10c0-0.941-0.064-1.868-0.176-2.779h14.656c1.533,0,2.779,1.247,2.779,2.779    c0,5.522,4.477,10,10,10s10-4.478,10-10c0-12.561-10.219-22.779-22.779-22.779h-14.48v-29.604    c31.629-7.032,61.438-21.453,86.675-42.284l1.186-0.979c2.201-1.816,4.389-3.697,6.503-5.59c4.115-3.683,4.466-10.005,0.783-14.12    c-3.684-4.115-10.005-4.467-14.121-0.782c-1.917,1.716-3.901,3.421-5.897,5.068l-1.186,0.979    c-33.308,27.492-75.423,42.629-118.613,42.627c-0.034,0-0.076,0-0.11,0l-1.867-0.001c-43.347-0.026-85.592-8.544-125.564-25.316    l-1.823-0.764c-7.456-3.129-15.337-4.716-23.422-4.716H23.666c-1.913,0-3.469-1.578-3.469-3.518v-0.279    c0-1.146,0.671-2.2,1.708-2.687l56.453-26.405l8.01,2.297c18.027,5.17,36.677,7.791,55.429,7.791h28.028    c47.023,0,92.796-16.599,128.887-46.738c4.239-3.54,4.806-9.847,1.266-14.086c-3.54-4.239-9.847-4.805-14.085-1.266    c-32.501,27.143-73.721,42.09-116.067,42.09h-28.028c-16.887,0-33.682-2.36-49.916-7.016L55.673,343.54l6.813-11.559    c19.964-33.874,45.596-63.578,76.185-88.286c40.903-33.039,93.959-46.222,145.571-36.163c0.63,0.123,1.271,0.185,1.913,0.185    c19.705,0,35.736-16.031,35.736-35.736V81.057c0-21.156,11.224-41.136,29.291-52.143C360.753,23.082,371.737,20,382.946,20    c23.415,0,45.035,11.42,58.229,30.647c-12.36,8.534-20.222,22.502-20.902,37.712c-5.26,12.166-15.926,21.255-28.85,24.45    l-3.641,0.899c-4.463,1.104-7.599,5.11-7.599,9.708v27.544c0,1.816,0.495,3.598,1.43,5.153l31.164,51.82    c16.045,26.679,18.735,59.871,7.195,88.788c-1.693,4.241-3.283,8.536-4.821,12.69l-0.064,0.172    c-1.9,5.131-4.047,10.24-6.38,15.186c-2.356,4.994-0.218,10.954,4.777,13.311c4.996,2.356,10.955,0.217,13.311-4.776    c2.577-5.463,4.948-11.105,7.048-16.773l0.064-0.174c1.495-4.038,3.041-8.213,4.641-12.222    c13.844-34.688,10.617-74.505-8.63-106.509l-29.734-49.441v-17.08c14.14-4.502,26.163-13.882,33.988-26.31    c8.618,4.357,18.224,6.688,27.934,6.688h39.697c4.036,0,7.676-2.427,9.23-6.151C512.586,101.605,511.748,97.312,508.907,94.444z     M262.057,479.268c-0.168,0.016-0.333,0.043-0.499,0.067c-0.75-0.075-1.511-0.114-2.281-0.114h-14.48v-24.83    c5.782-0.209,11.54-0.664,17.259-1.356V479.268z M462.106,91.482c-7.538,0-14.983-2.077-21.432-5.919    c1.378-7.74,5.922-14.631,12.543-18.917l24.604,24.836H462.106z" data-original="#000000" class="active-path" data-old_color="#000000" fill="#FFFFFF"/>
		<path id="XMLID_1670_" d="M386.14,67.51c0-2.64-1.07-5.21-2.93-7.07c-1.86-1.87-4.44-2.93-7.07-2.93c-2.63,0-5.21,1.06-7.07,2.93    c-1.86,1.86-2.93,4.431-2.93,7.07c0,2.63,1.07,5.21,2.93,7.07c1.86,1.859,4.44,2.93,7.07,2.93c2.63,0,5.21-1.07,7.07-2.93    C385.07,72.72,386.14,70.14,386.14,67.51z" data-original="#000000" class="active-path" data-old_color="#000000" fill="#FFFFFF"/>
		<path id="XMLID_1671_" d="M396.77,353.859c-2.63,0-5.21,1.061-7.07,2.931c-1.87,1.859-2.93,4.43-2.93,7.069    c0,2.631,1.06,5.21,2.93,7.07c1.86,1.86,4.44,2.93,7.07,2.93c2.63,0,5.21-1.069,7.07-2.93s2.93-4.439,2.93-7.07    c0-2.64-1.07-5.21-2.93-7.069C401.97,354.92,399.4,353.859,396.77,353.859z" data-original="#000000" class="active-path" data-old_color="#000000" fill="#FFFFFF"/>
	</g>
</g></g> </svg>
