<?xml version="1.0"?>
<svg xmlns="http://www.w3.org/2000/svg" height="512px" viewBox="0 0 60 57" width="512px" class=""><g><g id="Page-1" fill="none" fill-rule="evenodd"><g id="031---Flag" fill="rgb(0,0,0)" fill-rule="nonzero" transform="translate(-1)"><path id="Shape" d="m60.1367 26.0693c-3.5487076-1.7652203-6.8307004-4.02215-9.749-6.7041 1.5011282-5.6836149 2.6151829-11.46246652 3.3345-17.2968.2178155-.77434813-.1407632-1.5948532-.857-1.961-.6852894-.26335194-1.4612816-.00843503-1.8569.61-5.1592 6.1713-12.2368 5.4626-19.7256 4.7157-6.7963-.68-13.7836-1.3572-19.3407 3.3122-.3678139-2.6691429-2.61612211-4.6782061-5.30966897-4.74466116-2.69354685-.06645505-5.0381943 1.82929096-5.53718653 4.47704806s.99478857 5.2668874 3.5277555 6.1854131l11.214 40.1469c.2059483.7375453.6967067 1.3629355 1.3641265 1.7383533s1.4567241.4700515 2.1939735.2630467l.9043-.2588c.7346326-.204491 1.3577317-.6928419 1.7318466-1.3573264.374115-.6644846.4685068-1.4505057.2623534-2.1846736l-3.5524-12.7254c5.1893-6.6478 12.4217-5.943 20.0787-5.1778 7.6782.7656 15.62 1.56 21.459-5.4228l.0029-.0034c.582233-.7255246.8221033-1.667466.6578-2.5831-.0881818-.4513534-.3864192-.833549-.8028-1.0288zm-57.1367-16.5693c.00000003-1.9329966 1.5670034-3.49999995 3.5-3.49999995s3.49999997 1.56700335 3.5 3.49999995c-.00274148.6381775-.18179904 1.2631832-.5174 1.806-.1273.1618-.26.305-.3849.4748-.01452497.0293022-.02750933.0593431-.0389.09-.97401834 1.0611281-2.50003398 1.4145671-3.84138334.889699-1.34134936-.5248682-2.2222332-1.8201235-2.21741666-3.260499zm17.2886 44.7144c-.1152841.2038995-.3075392.353035-.5337.414l-.9043.2588c-.4702076.1282804-.9558225-.1469044-1.0874-.6162l-10.9732-39.2856c.91366943-.0469427 1.80086897-.3228687 2.58-.8024l7.3057 26.1451.0033.0075 3.6886 13.2137c.0632205.2233795.0347889.4627455-.079.6651zm38.4541-25.8106c-5.1587 6.1685-12.2327 5.4619-19.7241 4.7134-7.46-.7456-15.1586-1.5145-20.9333 4.82-1.8812-6.72-3.7590667-13.4414333-5.6336-20.1643l-1.4348-5.1429c.0593-.0852.1132-.1739.1677-.2626 5.177-6.4035 12.3332-5.6991 19.8994-4.9443 7.2388.7226 14.7114 1.47 20.4888-4.3541-.7046568 5.33400808-1.7492832 10.6175634-3.1275 15.8184-.1994202.6998689.0213553 1.4520386.5674 1.9331 3.0019604 2.7457345 6.3597172 5.0750649 9.9829 6.9253-.0250636.2377341-.1122881.4646765-.2529.658z" data-original="#000000" class="active-path" data-old_color="#000000" fill="#FFFFFF"/></g></g></g> </svg>
