<?xml version="1.0"?>
<svg xmlns="http://www.w3.org/2000/svg" height="512px" viewBox="0 0 50 60" width="512px" class=""><g><g id="036---Heart-Disease" transform="translate(0 -1)"><path id="Shape" d="m27.5 18.764 1.424-5.257c.1487369-.5915617.0517023-1.2181379-.269-1.737-.982-1.713-3.619-2.685-5.679-2.756l.943-3.489.011-.025c1.028-3.8-8.542-6.476-9.642-2.638-.051.1.028-.124-1.288 4.736v-2.598c0-1.71-2.149-3-5-3s-5 1.29-5 3v14.678c.03347581 1.4413171-.40590903 2.8539517-1.251 4.022-1.13168606 1.4747483-1.74633035 3.2810786-1.749 5.14v11.78c.00836148 3.4117055 1.12158501 6.7289221 3.173 9.455.0126672.0375782.02769716.0743182.045.11.05270634.074742.11527264.1420176.186.2 2.22254949 2.849946 5.36785851 4.8373316 8.896 5.621 23.334 5.126 22.21 4.994 24.2 4.994 7.4908453-.0473586 13.529924-6.1490648 13.5-13.64-.0217952-13.5753841-9.3107743-25.3810574-22.5-28.596zm-.579-6c.115.2.1.248-.09.359-.843.49-3.158.332-4.765-.742l.369-1.368c1.903-.113 3.988.887 4.486 1.753zm-9.191-9.764c2.488 0 4.326 1.527 4.27 1.976-.1940567.19870973-.4532203.32083617-.73.344-.8098082.1270826-1.6377308.0727758-2.424-.159-1.868-.506-2.7-1.51-2.635-1.749.04-.161.599-.412 1.519-.412zm-9.73 1c1.936 0 3 .751 3 1s-1.064 1-3 1-3-.751-3-1 1.064-1 3-1zm28.5 55c-1.709 0-.578.148-23.776-4.947-2.77615603-.617168-5.2869278-2.0942367-7.175-4.221l6.985-4.659c5.29522-3.5131147 8.4748643-9.4483756 8.466-15.803v-4.37c0-.5522847-.4477153-1-1-1s-1 .4477153-1 1v4.37c.0081567 5.6851534-2.8365239 10.9951738-7.574 14.138l-7.11 4.742c-1.50672941-2.2596733-2.31243759-4.9140574-2.316-7.63v-11.78c.00250599-1.4171726.47088898-2.7942116 1.333-3.919 1.12262758-1.5139797 1.70914677-3.3586829 1.667-5.243v-12.257c1.92521199.77350118 4.07478801.77350118 6 0 0 13.965.306 15.494-.948 19.263-.11289594.3394023-.0361471.7132522.201336.9807241.237483.2674719.599621.3879305.95.3160001.350379-.0719305.6357681-.3253219.748664-.6647242 1.303-3.916 1.048-6.545 1.048-12.065l2.573-9.5c1.6537446 1.25479789 3.7315057 1.81549207 5.792 1.563-2.74 10.134-2.365 7.575-2.365 13.686 0 .5522847.4477153 1 1 1s1-.4477153 1-1c0-5.076-.1-4.289.525-6.617 1.4765491.8034562 3.1648222 1.1323814 4.835.942l-.826 3.051c-.13-.021-.257-.048-.388-.067-.5464857-.0806336-1.0548664.2970143-1.1355.8435-.0806335.5464858.2970143 1.0548664.8435 1.1355 13.3236593 2.1029022 23.1392563 13.5834104 23.146 27.072.0310433 6.3868309-5.1132611 11.5937616-11.5 11.64z" data-original="#000000" class="active-path" data-old_color="#000000" fill="#FFFFFF"/><path id="Shape" d="m34 49c-.5522847 0-1-.4477153-1-1v-8c0-.5522847.4477153-1 1-1s1-.4477153 1-1-.4477153-1-1-1c-.5168022.0029438-1.0238723.1408282-1.471.4-1.054-1.661-3.529-1.9-3.529-.4 0 .5522847.4477153 1 1 1s1 .4477153 1 1v6c0 .5522847-.4477153 1-1 1s-1 .4477153-1 1 .4477153 1 1 1c.3414397-.0033144.679743-.0655622 1-.184v.184c0 2.97 4 3.919 4 2 0-.5522847-.4477153-1-1-1z" data-original="#000000" class="active-path" data-old_color="#000000" fill="#FFFFFF"/><circle id="Oval" cx="39" cy="46" r="1" data-original="#000000" class="active-path" data-old_color="#000000" fill="#FFFFFF"/><circle id="Oval" cx="39" cy="41" r="1" data-original="#000000" class="active-path" data-old_color="#000000" fill="#FFFFFF"/><circle id="Oval" cx="44" cy="44" r="1" data-original="#000000" class="active-path" data-old_color="#000000" fill="#FFFFFF"/><circle id="Oval" cx="24" cy="51" r="1" data-original="#000000" class="active-path" data-old_color="#000000" fill="#FFFFFF"/><circle id="Oval" cx="30" cy="53" r="1" data-original="#000000" class="active-path" data-old_color="#000000" fill="#FFFFFF"/><circle id="Oval" cx="36" cy="56" r="1" data-original="#000000" class="active-path" data-old_color="#000000" fill="#FFFFFF"/><circle id="Oval" cx="39" cy="51" r="1" data-original="#000000" class="active-path" data-old_color="#000000" fill="#FFFFFF"/><circle id="Oval" cx="25" cy="45" r="1" data-original="#000000" class="active-path" data-old_color="#000000" fill="#FFFFFF"/><circle id="Oval" cx="26" cy="40" r="1" data-original="#000000" class="active-path" data-old_color="#000000" fill="#FFFFFF"/><circle id="Oval" cx="20" cy="44" r="1" data-original="#000000" class="active-path" data-old_color="#000000" fill="#FFFFFF"/><circle id="Oval" cx="23" cy="36" r="1" data-original="#000000" class="active-path" data-old_color="#000000" fill="#FFFFFF"/><circle id="Oval" cx="13" cy="35" r="1" data-original="#000000" class="active-path" data-old_color="#000000" fill="#FFFFFF"/><circle id="Oval" cx="6" cy="43" r="1" data-original="#000000" class="active-path" data-old_color="#000000" fill="#FFFFFF"/><circle id="Oval" cx="5" cy="28" r="1" data-original="#000000" class="active-path" data-old_color="#000000" fill="#FFFFFF"/><circle id="Oval" cx="12" cy="50" r="1" data-original="#000000" class="active-path" data-old_color="#000000" fill="#FFFFFF"/><circle id="Oval" cx="17" cy="49" r="1" data-original="#000000" class="active-path" data-old_color="#000000" fill="#FFFFFF"/><circle id="Oval" cx="28" cy="31" r="1" data-original="#000000" class="active-path" data-old_color="#000000" fill="#FFFFFF"/><circle id="Oval" cx="33" cy="33" r="1" data-original="#000000" class="active-path" data-old_color="#000000" fill="#FFFFFF"/><circle id="Oval" cx="36" cy="29" r="1" data-original="#000000" class="active-path" data-old_color="#000000" fill="#FFFFFF"/><circle id="Oval" cx="39" cy="34" r="1" data-original="#000000" class="active-path" data-old_color="#000000" fill="#FFFFFF"/><path id="Shape" d="m8.471 31.4c-.4471277-.2591718-.9541978-.3970562-1.471-.4-.55228475 0-1 .4477153-1 1s.44771525 1 1 1 1 .4477153 1 1v2c0 .5522847-.44771525 1-1 1s-1 .4477153-1 1c0 1.909 4 .975 4-2v-3c0-.5522847.4477153-1 1-1s1-.4477153 1-1c0-1.5-2.476-1.259-3.529.4z" data-original="#000000" class="active-path" data-old_color="#000000" fill="#FFFFFF"/></g></g> </svg>
