<?xml version="1.0" encoding="iso-8859-1"?>
<!-- Generator: Adobe Illustrator 16.0.0, SVG Export Plug-In . SVG Version: 6.00 Build 0)  -->
<!DOCTYPE svg PUBLIC "-//W3C//DTD SVG 1.1//EN" "http://www.w3.org/Graphics/SVG/1.1/DTD/svg11.dtd">
<svg version="1.1" id="Capa_1" xmlns="http://www.w3.org/2000/svg" xmlns:xlink="http://www.w3.org/1999/xlink" x="0px" y="0px"
	 width="66.482px" height="66.482px" viewBox="0 0 66.482 66.482" style="enable-background:new 0 0 66.482 66.482;"
	 xml:space="preserve" fill="#ffffff">
<g>
	<g>
		<g>
			<path d="M23.001,56.721c0,3.828-3.104,6.933-6.932,6.933H6.932C3.104,63.653,0,60.549,0,56.721V34.585
				c0-3.828,3.104-6.932,6.932-6.932h9.137c3.828,0,6.932,3.104,6.932,6.932V56.721z M19.001,34.585
				c0-1.618-1.313-2.932-2.932-2.932H6.932C5.313,31.653,4,32.967,4,34.585v22.138c0,1.619,1.313,2.932,2.932,2.932h9.137
				c1.619,0,2.932-1.312,2.932-2.932V34.585z"/>
		</g>
		<path d="M13.001,54.903c0,0.967-0.784,1.75-1.75,1.75h-0.5c-0.966,0-1.75-0.783-1.75-1.75v-0.5c0-0.968,0.784-1.75,1.75-1.75h0.5
			c0.966,0,1.75,0.782,1.75,1.75V54.903z"/>
		<g>
			<path d="M38.076,63.688c-4.977,0-10.323-0.631-12.136-8.174c-0.036-0.152,0.061-0.311,0.061-0.467V29.768
				c0-0.279-0.057-0.556,0.057-0.811l0.338-0.895c0.558-1.727,2.183-4.359,4.807-8.435c1.794-2.788,3.637-5.672,4.209-7.122
				c0.975-2.467,0.971-5.793,0.891-6.865c-0.058-0.754,0.312-1.476,0.959-1.865c0.168-0.101,1.686-0.98,3.648-0.98
				c1.251,0,2.405,0.347,3.432,1.029c2.781,1.849,5.896,4.738,5.283,10.716c-0.191,1.885-0.98,3.653-1.744,5.364
				c-0.5,1.124-0.974,2.186-1.238,3.189c-0.055,0.204-0.061,0.758-0.063,1.222c2.181,0.188,4.376,0.354,6.351,0.354
				c1.246,0,2.258-0.01,3.076-0.019c1.06-0.011,1.795-0.017,2.311,0.002c0.377,0.008,0.73,0.02,1.057,0.063
				c2.168,0.289,4.096,1.406,5.424,3.144c1.329,1.738,1.901,3.89,1.612,6.059c-0.28,2.11-1.379,4.028-3.041,5.342
				c0.731,1.347,1.021,2.896,0.815,4.426c-0.235,1.775-1.092,3.359-2.43,4.521c0,0.027,0.002,0.054,0.004,0.075
				c0.449,1.047,0.606,2.201,0.455,3.348c-0.22,1.644-1.088,3.141-2.381,4.16c0.344,0.84,0.458,1.777,0.327,2.751
				c-0.267,1.986-1.676,3.662-3.618,4.323c-1.175,0.593-2.658,0.717-4.637,0.717l0,0c-0.667,0-1.411-0.014-2.237-0.029
				c-1.007-0.019-2.141-0.039-3.413-0.039c-1.588,0-3.08,0.049-4.522,0.096C40.436,63.649,39.217,63.688,38.076,63.688z
				 M30.001,54.803c1,4.2,3.246,4.887,8.19,4.887c1.101,0,2.218-0.038,3.466-0.079c1.478-0.048,2.974-0.099,4.625-0.099
				c1.301,0,2.444,0.021,3.474,0.041c0.799,0.016,1.512,0.028,2.155,0.028l0,0c0.577,0,2.331,0,2.856-0.302
				c0.135-0.077,0.275-0.139,0.425-0.184c0.431-0.127,0.928-0.521,1.003-1.086c0.031-0.233,0.033-0.567-0.133-0.841
				c-0.43-0.702-0.545-1.651-0.312-2.543c0.207-0.788,0.666-1.417,1.295-1.769c0.664-0.373,1.102-1.014,1.201-1.758
				c0.059-0.442-0.004-0.885-0.182-1.278c-0.455-1.003-0.569-3.419,0.837-4.454c0.731-0.535,1.196-1.318,1.315-2.209
				c0.104-0.777-0.076-1.566-0.506-2.223c-0.88-1.342-0.396-3.728,0.938-4.642c0.983-0.671,1.637-1.729,1.793-2.903
				c0.147-1.11-0.146-2.211-0.825-3.102c-0.68-0.889-1.666-1.46-2.775-1.608c-0.181-0.024-0.357-0.029-0.533-0.029
				c-0.024,0-0.117,0-0.143-0.001c-0.468-0.019-1.162-0.011-2.121,0c-0.828,0.008-1.854,0.019-3.115,0.019
				c-2.543,0-5.314-0.246-7.996-0.483l-0.606-0.054c-0.536-0.047-1.03-0.309-1.372-0.725c-0.341-0.417-0.5-0.953-0.439-1.488
				c0.057-0.505,0.06-1.05,0.062-1.577c0.006-0.808,0.012-1.569,0.196-2.271c0.348-1.316,0.909-2.577,1.452-3.797
				c0.664-1.488,1.291-2.894,1.418-4.143c0.41-4.008-1.514-5.645-3.52-6.979c-0.527-0.349-1.213-0.417-1.803-0.3
				c-0.014,1.716-0.206,4.595-1.206,7.123c-0.72,1.814-2.595,4.729-4.58,7.815c-1.791,2.781-4.019,6.244-4.406,7.546
				c-0.024,0.081,0.061,0.161,0.026,0.239l-0.155,0.616V54.803z"/>
		</g>
		<g>
			<path d="M46.934,56.653c-0.006,0-0.012,0-0.019,0c-0.114,0-0.217,0.185-0.312,0.169c-0.545-0.01-0.982-0.354-0.982-0.9
				c0-0.554,0.447-0.951,1-0.951c0.326,0,1.316,0.023,1.337,1.006c0.003,0.143-0.028,0.094-0.09,0.217
				C47.725,56.571,47.36,56.653,46.934,56.653z"/>
		</g>
		<g>
			<path d="M39.619,57.337c-2.429,0-4.51-0.485-6.432-2.698c-0.362-0.418-0.317-1.049,0.1-1.41c0.417-0.364,1.049-0.318,1.41,0.1
				c1.975,2.273,3.979,2.134,7.613,1.879c0.461-0.031,0.939-0.064,1.44-0.095c0.536-0.035,1.024,0.388,1.058,0.938
				s-0.387,1.024-0.938,1.058c-0.493,0.028-0.966,0.063-1.42,0.094C41.454,57.271,40.512,57.337,39.619,57.337z"/>
		</g>
	</g>
</g>
<g>
</g>
<g>
</g>
<g>
</g>
<g>
</g>
<g>
</g>
<g>
</g>
<g>
</g>
<g>
</g>
<g>
</g>
<g>
</g>
<g>
</g>
<g>
</g>
<g>
</g>
<g>
</g>
<g>
</g>
</svg>
