<?xml version="1.0" encoding="iso-8859-1"?>
<!-- Generator: Adobe Illustrator 16.0.0, SVG Export Plug-In . SVG Version: 6.00 Build 0)  -->
<!DOCTYPE svg PUBLIC "-//W3C//DTD SVG 1.1//EN" "http://www.w3.org/Graphics/SVG/1.1/DTD/svg11.dtd">
<svg version="1.1" id="Capa_1" xmlns="http://www.w3.org/2000/svg" xmlns:xlink="http://www.w3.org/1999/xlink" x="0px" y="0px"
	 width="65.001px" height="65.001px" viewBox="0 0 65.001 65.001" xml:space="preserve" fill="#ffffff">
<g>
	<g>
		<g>
			<path d="M65,51.068c0,3.828-3.104,6.933-6.932,6.933H6.932C3.104,58.001,0,54.896,0,51.068V13.932C0,10.104,3.104,7,6.932,7
				h51.136c3.828,0,6.933,3.104,6.933,6.932L65,51.068L65,51.068z M61,13.932C61,12.313,59.688,11,58.068,11H6.932
				C5.313,11,4,12.313,4,13.932v37.136c0,1.619,1.313,2.933,2.932,2.933h51.136c1.619,0,2.933-1.313,2.933-2.933L61,13.932
				L61,13.932z"/>
		</g>
		<g>
			<g>
				<path d="M31.659,38.432c-0.224,0-0.447-0.076-0.632-0.225l-16.765-13.65c-0.428-0.349-0.492-0.979-0.144-1.407
					c0.348-0.426,0.979-0.493,1.407-0.144l16.14,13.141l15.748-12.541c0.435-0.345,1.063-0.272,1.405,0.159
					c0.344,0.433,0.271,1.062-0.159,1.405L32.282,38.213C32.1,38.359,31.88,38.432,31.659,38.432z"/>
			</g>
			<g>
				<path d="M17.159,42.682c-0.226,0-0.452-0.076-0.64-0.231c-0.424-0.354-0.481-0.984-0.127-1.408l0.438-0.522
					c0.353-0.425,0.982-0.482,1.408-0.127c0.424,0.354,0.481,0.983,0.127,1.407l-0.438,0.523
					C17.73,42.561,17.446,42.682,17.159,42.682z"/>
			</g>
			<g>
				<path d="M19.713,39.622c-0.236,0-0.474-0.082-0.664-0.252c-0.413-0.367-0.45-0.998-0.084-1.412l5.625-6.336
					c0.368-0.414,0.999-0.45,1.412-0.084c0.413,0.367,0.45,0.999,0.084,1.412l-5.625,6.336
					C20.263,39.508,19.988,39.622,19.713,39.622z"/>
			</g>
			<g>
				<path d="M44.717,41.477c-0.285,0-0.57-0.123-0.769-0.358l-6.017-7.195c-0.354-0.424-0.298-1.054,0.127-1.409
					c0.426-0.354,1.055-0.297,1.408,0.126l6.016,7.195c0.354,0.424,0.299,1.056-0.125,1.41C45.17,41.4,44.941,41.477,44.717,41.477z
					"/>
			</g>
		</g>
	</g>
</g>
<g>
</g>
<g>
</g>
<g>
</g>
<g>
</g>
<g>
</g>
<g>
</g>
<g>
</g>
<g>
</g>
<g>
</g>
<g>
</g>
<g>
</g>
<g>
</g>
<g>
</g>
<g>
</g>
<g>
</g>
</svg>
