<?xml version="1.0" encoding="iso-8859-1"?>
<!-- Generator: Adobe Illustrator 16.0.0, SVG Export Plug-In . SVG Version: 6.00 Build 0)  -->
<!DOCTYPE svg PUBLIC "-//W3C//DTD SVG 1.1//EN" "http://www.w3.org/Graphics/SVG/1.1/DTD/svg11.dtd">
<svg version="1.1" id="Capa_1" xmlns="http://www.w3.org/2000/svg" xmlns:xlink="http://www.w3.org/1999/xlink" x="0px" y="0px"
	 width="66px" height="66px" viewBox="0 0 66 66" style="enable-background:new 0 0 66 66;" xml:space="preserve" fill="#fff">
<g>
	<g>
		<g>
			<path d="M47.119,64.5h-27c-1.104,0-2-0.896-2-2c0-1.105,0.896-2,2-2h27c1.104,0,2,0.895,2,2
				C49.119,63.604,48.225,64.5,47.119,64.5z"/>
		</g>
		<g>
			<path d="M66,45.568c0,3.828-3.104,6.933-6.932,6.933H6.932C3.104,52.5,0,49.396,0,45.568V8.432C0,4.604,3.104,1.5,6.932,1.5
				h52.136C62.896,1.5,66,4.604,66,8.432V45.568z M62,8.432C62,6.813,60.688,5.5,59.068,5.5H6.932C5.313,5.5,4,6.813,4,8.432v37.136
				C4,47.188,5.313,48.5,6.932,48.5h52.136c1.619,0,2.933-1.312,2.933-2.932L62,8.432L62,8.432z"/>
		</g>
		<g>
			<path d="M64.119,41.5h-62c-0.553,0-1-0.447-1-1s0.447-1,1-1h62c0.552,0,1,0.447,1,1S64.671,41.5,64.119,41.5z"/>
		</g>
		<g>
			<path d="M64.119,12.5h-62c-0.553,0-1-0.447-1-1s0.447-1,1-1h62c0.552,0,1,0.447,1,1S64.671,12.5,64.119,12.5z"/>
		</g>
		<g>
			<g>
				<path d="M29.504,27.085c-0.12,0-0.243-0.021-0.362-0.068c-0.515-0.2-0.77-0.78-0.568-1.295l0.271-0.696
					c0.2-0.515,0.781-0.77,1.295-0.568c0.515,0.2,0.769,0.78,0.568,1.295l-0.271,0.696C30.282,26.844,29.904,27.085,29.504,27.085z"
					/>
			</g>
			<g>
				<path d="M25.691,36.877c-0.12,0-0.243-0.021-0.362-0.068c-0.515-0.199-0.77-0.778-0.568-1.295l2.836-7.283
					c0.2-0.514,0.778-0.771,1.294-0.568c0.515,0.2,0.77,0.78,0.569,1.295l-2.836,7.283C26.47,36.635,26.092,36.877,25.691,36.877z"
					/>
			</g>
			<g>
				<path d="M21.639,30.077c-0.12,0-0.243-0.021-0.362-0.068c-0.515-0.2-0.77-0.779-0.569-1.294l4.146-10.652
					c0.201-0.515,0.779-0.771,1.295-0.569c0.515,0.2,0.77,0.779,0.569,1.294L22.572,29.44
					C22.417,29.835,22.039,30.077,21.639,30.077z"/>
			</g>
			<g>
				<path d="M19.691,35.075c-0.12,0-0.243-0.021-0.362-0.068c-0.515-0.2-0.77-0.78-0.568-1.295l0.609-1.566
					c0.201-0.515,0.783-0.77,1.295-0.568c0.515,0.2,0.77,0.78,0.568,1.295l-0.609,1.566C20.47,34.833,20.092,35.075,19.691,35.075z"
					/>
			</g>
		</g>
	</g>
</g>
<g>
</g>
<g>
</g>
<g>
</g>
<g>
</g>
<g>
</g>
<g>
</g>
<g>
</g>
<g>
</g>
<g>
</g>
<g>
</g>
<g>
</g>
<g>
</g>
<g>
</g>
<g>
</g>
<g>
</g>
</svg>
