<?xml version="1.0"?>
<svg xmlns="http://www.w3.org/2000/svg" xmlns:xlink="http://www.w3.org/1999/xlink" version="1.1" id="Capa_1" x="0px" y="0px" viewBox="0 0 404.882 404.882" style="enable-background:new 0 0 404.882 404.882;" xml:space="preserve" width="512px" height="512px"><g><path id="XMLID_952_" d="M334.207,157.763c0-4.97,4.029-9,9-9h8.507c4.971,0,9,4.03,9,9s-4.029,9-9,9h-8.507  C338.236,166.763,334.207,162.734,334.207,157.763z M202.95,26.509c4.971,0,9-4.03,9-9V9c0-4.97-4.029-9-9-9s-9,4.03-9,9v8.509  C193.95,22.479,197.98,26.509,202.95,26.509z M302.125,67.588c2.303,0,4.605-0.878,6.363-2.635l6.018-6.016  c3.516-3.514,3.516-9.213,0.002-12.728c-3.515-3.515-9.214-3.516-12.728-0.002l-6.018,6.016c-3.516,3.514-3.517,9.213-0.002,12.728  C297.518,66.709,299.822,67.588,302.125,67.588z M160.485,135.403c0-24.959,15.969-46.815,39.736-54.386  c1.777-0.566,3.687-0.566,5.463,0c23.766,7.571,39.734,29.427,39.734,54.386c0,24.958-15.967,46.814-39.733,54.387  c-0.889,0.283-1.811,0.425-2.732,0.425s-1.844-0.142-2.732-0.425C176.453,182.217,160.485,160.36,160.485,135.403z M178.485,135.403  c0,16.113,9.718,30.338,24.468,36.255c14.748-5.917,24.465-20.142,24.465-36.255c0-16.114-9.718-30.338-24.465-36.254  C188.204,105.064,178.485,119.289,178.485,135.403z M234.42,301.975h-66.311c-6.506,0-11.367-3.68-11.367-6.97  c0-3.289,4.861-6.967,11.367-6.967h86.396c4.971,0,9-4.03,9-9s-4.029-9-9-9h-86.396c-16.193,0-29.367,11.2-29.367,24.967  c0,13.769,13.174,24.97,29.367,24.97h66.311c6.506,0,11.367,3.678,11.367,6.967c0,3.647-5.418,6.969-11.367,6.969h-39.853  c-16.193,0-29.367,11.201-29.367,24.968c0,13.768,13.174,24.969,29.367,24.969h4.292v12.034c0,4.97,4.029,9,9,9s9-4.03,9-9v-21.034  c0-4.97-4.029-9-9-9h-13.292c-6.506,0-11.367-3.679-11.367-6.969c0-3.289,4.861-6.968,11.367-6.968h39.853  c16.193,0,29.367-11.201,29.367-24.969C263.787,313.175,250.613,301.975,234.42,301.975z M317.599,250.115  c-30.889-20.51-71.786-31.805-115.157-31.805s-84.268,11.295-115.158,31.805c-32.023,21.263-49.66,49.906-49.66,80.654  c0,4.971,4.029,9,9,9h65.166c2.99,0,5.785-1.485,7.458-3.963c1.673-2.478,2.007-5.625,0.89-8.398l-10.449-25.952  c-1.856-4.611-7.097-6.844-11.71-4.987c-4.611,1.856-6.844,7.099-4.987,11.71l5.472,13.59H56.293  c3.156-21.184,17.417-41.034,40.949-56.658c27.971-18.572,65.332-28.8,105.201-28.8s77.229,10.228,105.2,28.8  c23.531,15.624,37.792,35.474,40.948,56.658h-42.17l5.472-13.59c1.856-4.611-0.376-9.854-4.987-11.71  c-4.61-1.856-9.853,0.376-11.71,4.987l-10.449,25.952c-1.117,2.774-0.783,5.921,0.89,8.399c1.674,2.478,4.468,3.963,7.458,3.963  h65.164c4.971,0,9-4.029,9-9C367.258,300.021,349.622,271.377,317.599,250.115z M97.409,64.952c1.758,1.758,4.061,2.636,6.365,2.636  c2.303,0,4.606-0.878,6.363-2.635c3.515-3.514,3.516-9.213,0.001-12.728l-6.015-6.016c-3.514-3.514-9.212-3.515-12.728-0.001  c-3.515,3.514-3.516,9.213-0.001,12.728L97.409,64.952z M54.187,166.763h8.509c4.971,0,9-4.03,9-9s-4.029-9-9-9h-8.509  c-4.971,0-9,4.03-9,9S49.216,166.763,54.187,166.763z" data-original="#000000" class="active-path" data-old_color="#000000" fill="#FFFFFF"/></g> </svg>
