<?xml version="1.0" encoding="iso-8859-1"?>
<!-- Generator: Adobe Illustrator 16.0.0, SVG Export Plug-In . SVG Version: 6.00 Build 0)  -->
<!DOCTYPE svg PUBLIC "-//W3C//DTD SVG 1.1//EN" "http://www.w3.org/Graphics/SVG/1.1/DTD/svg11.dtd">
<svg version="1.1" id="Capa_1" xmlns="http://www.w3.org/2000/svg" xmlns:xlink="http://www.w3.org/1999/xlink" x="0px" y="0px"
	 width="67.837px" height="67.837px" viewBox="0 0 67.837 67.837" style="enable-background:new 0 0 67.837 67.837;"
	 xml:space="preserve">
<g>
	<g>
		<g>
			<path d="M50.626,66.835c-1.102,0-2.196-0.272-3.17-0.795l-13.537-7.287l-13.533,7.285c-2.194,1.17-4.944,1.012-6.964-0.373
				c-2.075-1.431-3.146-3.933-2.731-6.377l2.651-15.838L1.902,32.026c-1.758-1.75-2.353-4.288-1.551-6.623
				c0.798-2.314,2.817-3.978,5.271-4.342l15.562-2.313l6.759-14.033c1.089-2.256,3.435-3.713,5.976-3.713
				c2.543,0,4.889,1.458,5.975,3.713l6.761,14.033l15.56,2.314c2.452,0.363,4.474,2.025,5.272,4.338
				c0.801,2.34,0.207,4.877-1.549,6.627L54.493,43.45l2.654,15.84c0.411,2.444-0.66,4.946-2.729,6.373
				C53.294,66.43,51.984,66.835,50.626,66.835z M33.919,54.48c0.326,0,0.652,0.08,0.948,0.238l14.48,7.795
				c0.869,0.467,1.99,0.408,2.808-0.15c0.801-0.551,1.204-1.477,1.047-2.411l-2.824-16.858c-0.105-0.639,0.103-1.289,0.561-1.746
				l12.174-12.153c0.665-0.663,0.892-1.619,0.591-2.495c-0.308-0.891-1.104-1.538-2.076-1.682l-16.608-2.47
				c-0.655-0.097-1.222-0.513-1.509-1.11L36.289,6.451c-0.424-0.881-1.354-1.449-2.37-1.449s-1.947,0.569-2.374,1.45l-7.217,14.986
				c-0.287,0.597-0.853,1.013-1.508,1.11l-16.61,2.47c-0.958,0.143-1.772,0.804-2.077,1.687c-0.3,0.873-0.072,1.827,0.593,2.489
				l12.172,12.154c0.458,0.457,0.666,1.107,0.56,1.746l-2.822,16.857c-0.158,0.936,0.245,1.859,1.053,2.416
				c0.804,0.551,1.923,0.617,2.809,0.145l14.474-7.793C33.267,54.561,33.593,54.48,33.919,54.48z"/>
		</g>
		<g>
			<path d="M12.003,30.036c-0.481,0-0.906-0.349-0.986-0.84c-0.088-0.545,0.282-1.059,0.827-1.147l0.664-0.108
				c0.548-0.094,1.059,0.282,1.147,0.827c0.088,0.545-0.282,1.059-0.827,1.147l-0.664,0.108
				C12.111,30.032,12.056,30.036,12.003,30.036z M15.675,29.44c-0.47,0-0.889-0.332-0.98-0.811c-0.105-0.542,0.25-1.067,0.792-1.171
				L26.31,25.37l4.082-9.362c0.222-0.505,0.812-0.738,1.316-0.517c0.507,0.221,0.739,0.81,0.518,1.316l-4.293,9.845
				c-0.132,0.302-0.404,0.52-0.728,0.582l-11.34,2.188C15.801,29.435,15.738,29.44,15.675,29.44z"/>
		</g>
	</g>
</g>
<g>
</g>
<g>
</g>
<g>
</g>
<g>
</g>
<g>
</g>
<g>
</g>
<g>
</g>
<g>
</g>
<g>
</g>
<g>
</g>
<g>
</g>
<g>
</g>
<g>
</g>
<g>
</g>
<g>
</g>
</svg>
