<?xml version="1.0"?>
<svg xmlns="http://www.w3.org/2000/svg" xmlns:xlink="http://www.w3.org/1999/xlink" version="1.1" id="Capa_1" x="0px" y="0px" viewBox="0 0 470.775 470.775" style="enable-background:new 0 0 470.775 470.775;" xml:space="preserve" width="512px" height="512px" class=""><g><g>
	<g>
		<path d="M462.775,210.417h-25.6c4.7-6,7.2-14.4,7.2-22.6c0-21.1-17.1-38.3-38.2-38.4h-259.4l-2.8-2.7l11.4-11.4    c3.1-3.1,3.1-8.1,0-11.2l-47.5-47.5c-3.1-3.1-8.2-3.1-11.3,0l-11.4,11.4l-19.9-19.9c-14.9-15-39.1-15-54-0.1l-0.1,0.1    c-14.9,15-14.9,39.1,0,54.1l88.1,88.2h-75.2c-4.4,0-8,3.6-8,8c0,4.4,3.6,8,8,8h75.3l127.8,72l-131.1,73.9    c-6.7-14.8-24.1-21.3-38.9-14.6c-14.8,6.7-21.3,24.1-14.6,38.9c4.8,10.5,15.3,17.3,26.8,17.3c13.3,0.2,25-8.7,28.3-21.5h291.7    c3.3,12.8,15,21.7,28.3,21.5c16.2,0,29.4-13.1,29.4-29.4c0-16.2-13.1-29.4-29.4-29.4c-11.5,0-22,6.7-26.8,17.2l-131.2-73.9    l127.8-72h75.3c4.4,0,8-3.6,8-8C470.775,214.017,467.175,210.417,462.775,210.417z M82.675,384.617v0.1    c-0.1,7.4-6.1,13.3-13.4,13.3c-7.4,0-13.4-6-13.4-13.4c0-7.4,6-13.4,13.4-13.4c7.4,0,13.4,5.9,13.4,13.3V384.617z     M417.575,371.217c7.4,0,13.4,6,13.4,13.4c0,7.4-6,13.4-13.4,13.4c-7.4,0-13.4-6-13.4-13.4    C404.175,377.217,410.175,371.217,417.575,371.217z M102.275,93.517l36.2,36.2l-3.3,3.3l-36.2-36.2L102.275,93.517z     M365.675,376.417h-244.5l122.3-68.9L365.675,376.417z M243.475,289.317l-111.6-62.9h223L243.475,289.317z M406.275,210.417    h-284.6l-99.2-99.5c-8.6-8.7-8.7-22.8,0-31.5c8.6-8.7,22.7-8.7,31.4-0.1l0.1,0.1l81.6,81.6c2.9,2.9,6.9,4.5,11,4.5h259.6    c12.4,0,22.5,10.1,22.5,22.5C428.675,200.417,418.675,210.417,406.275,210.417z" data-original="#000000" class="active-path" data-old_color="#000000" fill="#FFFFFF"/>
	</g>
</g></g> </svg>
