<?xml version="1.0"?>
<svg xmlns="http://www.w3.org/2000/svg" height="512px" viewBox="0 0 60 60" width="512px" class=""><g><g id="023---Stressed" transform="translate(-1)"><path id="Shape" d="m55.87 7.56c-.729741-4.33270463-4.4812714-7.50521741-8.875-7.50521741s-8.145259 3.17251278-8.875 7.50521741c-2.5606459.9763957-4.4334577 3.2086361-4.95 5.9-10.2858591-3.72819763-21.7912659-.0281827-27.97586035 8.9967353-6.18459444 9.024918-5.48285711 21.0902428 1.70630258 29.3373233 7.18915967 8.2470805 19.04593467 10.588316 28.83022617 5.6928084s15.0193812-15.7885481 12.7293316-26.486867l4.45-4.17c.5315497-.4794328.766341-1.2063916.6156507-1.9061726-.1506903-.6997809-.6638824-1.2656695-1.3456507-1.4838274l-.47-.15c-.1320349-.0449596-.2398946-.1420344-.2984645-.2686209s-.0627386-.2716377-.0115355-.4013791l1.5-5.31c.1636114-.5052298.1195673-1.0547872-.1224219-1.5275102-.2419892-.4727231-.6620526-.8297944-1.1675781-.9924898l-4.76-1.53c-.5078668-.1627734-1.05971-.1159662-1.532906.1300205-.4731959.2459868-.8285479.6707772-.987094 1.1799795l-2.72 9.08c-.2153566.6351422-.1686519 1.3299294.1297737 1.9305343s.8239518 1.0574777 1.4602263 1.2694657c.130114.0389446.2387868.1291445.3010304.2498593s.0727017.2615567.0289696.3901407l-2.2 6.85c-.187433.5683945.0374206 1.1913099.5446819 1.5089408s1.1658347.2478894 1.5953181-.1689408l3.26-3.06c1.5419294 9.8507515-3.7338283 19.5068859-12.856435 23.530926-9.1226067 4.02404-19.8109224 1.4097603-26.04623704-6.370709-6.23531462-7.7804694-6.45846573-18.7815945-.54379444-26.8085189 5.91467128-8.0269244 16.48818048-11.0724873 25.76646648-7.4216981.2241956 3.3219988 2.4825 6.1578237 5.67 7.12.5301934.1546397 1.0853602-.1498067 1.24-.68.1546397-.5301934-.1498067-1.0853603-.68-1.24-3.0172263-.8941472-4.8309589-3.9674898-4.1552558-7.0410186s3.611218-5.10276822 6.7252558-4.6489814c.5522847.08284271 1.0671573-.29771525 1.15-.85s-.2977153-1.06715729-.85-1.15c-.6209817-.0765727-1.2490183-.0765727-1.87 0 .664514-2.41154273 2.565093-4.28538611 4.9858073-4.91567148 2.4207142-.63028536 4.9937997.07874264 6.75 1.86 1.7562002 1.78125737 2.4287067 4.36412875 1.7641927 6.77567148-.1087346.5260968.2176311 1.0441035.7391219 1.1731322.5214908.1290286 1.051749-.1770299 1.2008781-.6931322.1334359-.4781124.2270886-.9664445.28-1.46 2.1129278 1.1762209 3.3132144 3.5059192 3.0444842 5.9091969-.2687301 2.4032776-1.9539437 4.4103246-4.2744842 5.0908031-.2623629.0550102-.4916544.2130545-.6364241.4386696-.1447696.225615-.1928945.4999079-.1335759.7613304.1589585.5261634.7127756.8254033 1.24.67 3.2643792-.9879602 5.5434528-3.9368582 5.6765253-7.3448676.1330725-3.4080095-1.9091215-6.52563999-5.0865253-7.7651324zm-12.1 17.38c-.0936409-.030921-.1698925-.0999106-.21-.19-.17-.32-.27.27 2.68-9.58l4.76 1.56-1.52 5.27c-.2041945.6325237-.1481018 1.3203236.1558821 1.9114035.303984.5910798.8308325 1.0367767 1.4641179 1.2385965l.47.15-7.51 7 1.38-4.28c.3819551-1.3108928-.3630209-2.6848605-1.67-3.08z" data-original="#000000" class="active-path" data-old_color="#000000" fill="#FFFFFF"/><path id="Shape" d="m17.5 35c2.4852814 0 4.5-2.0147186 4.5-4.5s-2.0147186-4.5-4.5-4.5-4.5 2.0147186-4.5 4.5c.0054995 2.4829999 2.0170001 4.4945005 4.5 4.5zm0-7c1.3807119 0 2.5 1.1192881 2.5 2.5s-1.1192881 2.5-2.5 2.5-2.5-1.1192881-2.5-2.5 1.1192881-2.5 2.5-2.5z" data-original="#000000" class="active-path" data-old_color="#000000" fill="#FFFFFF"/><path id="Shape" d="m32.5 26c-2.4852814 0-4.5 2.0147186-4.5 4.5s2.0147186 4.5 4.5 4.5 4.5-2.0147186 4.5-4.5c-.0054995-2.4829999-2.0170001-4.4945005-4.5-4.5zm0 7c-1.3807119 0-2.5-1.1192881-2.5-2.5s1.1192881-2.5 2.5-2.5 2.5 1.1192881 2.5 2.5-1.1192881 2.5-2.5 2.5z" data-original="#000000" class="active-path" data-old_color="#000000" fill="#FFFFFF"/><path id="Shape" d="m16.88 48.81c5.1667661-2.3106281 11.0732339-2.3106281 16.24 0 .6848939.3555118 1.5132137.2852937 2.1284895-.1804359s.9077325-1.243877.7515105-1.9995641c-1.1666728-5.1145977-5.7547011-8.7141145-11-8.63-5.2478965-.0918432-9.8402156 3.5110399-11 8.63-.156222.7556871.1362347 1.5338345.7515105 1.9995641s1.4435956.5359477 2.1284895.1804359zm1.62-6.23c5.15-4.93 14-2.41 15.49 4.41-5.7162084-2.6097888-12.2837916-2.6097888-18 0 .3699401-1.6905819 1.2453497-3.2286522 2.51-4.41z" data-original="#000000" class="active-path" data-old_color="#000000" fill="#FFFFFF"/></g></g> </svg>
