<?xml version="1.0" encoding="utf-8"?>
<!-- Svg Vector Icons : http://www.onlinewebfonts.com/icon -->
<!DOCTYPE svg PUBLIC "-//W3C//DTD SVG 1.1//EN" "http://www.w3.org/Graphics/SVG/1.1/DTD/svg11.dtd">
<svg version="1.1" xmlns="http://www.w3.org/2000/svg" xmlns:xlink="http://www.w3.org/1999/xlink" x="0px" y="0px" viewBox="0 0 1000 1000" enable-background="new 0 0 1000 1000" xml:space="preserve" fill="#ffffff">
<metadata> Svg Vector Icons : http://www.onlinewebfonts.com/icon </metadata>
<g><path d="M423.4,246.8c-39.3,10.7-76,31-106,58.9c-6.1,5.7-6.5,15.2-0.8,21.3c3,3.2,7,4.8,11.1,4.8c3.7,0,7.4-1.3,10.3-4c26.5-24.6,58.8-42.5,93.4-51.9c8-2.2,12.8-10.5,10.6-18.5C439.7,249.4,431.4,244.6,423.4,246.8z"/><path d="M286.8,365.4c-7.3-4-16.5-1.2-20.4,6.1c-6.1,11.3-11.3,23.1-15.6,35.2c-2.8,7.8,1.3,16.4,9.2,19.3c1.7,0.6,3.4,0.9,5.1,0.9c6.2,0,12-3.8,14.2-10c3.8-10.6,8.4-21,13.8-31C296.9,378.5,294.1,369.4,286.8,365.4z"/><path d="M959.8,477.4h-85.8c-7.1-184.2-149.6-334.2-330.6-353V40.2c0-16.6-13.5-30.2-30.2-30.2c-16.6,0-30.2,13.5-30.2,30.2v82.9C294.4,134.2,143.3,287.6,136,477.4H40.2c-16.6,0-30.2,13.5-30.2,30.2c0,16.6,13.5,30.2,30.2,30.2h98.4c21.8,175,166.4,312.3,344.5,322.8v99.4c0,16.6,13.5,30.2,30.2,30.2c16.6,0,30.2-13.5,30.2-30.2V859.1c170.5-17.7,306.9-151.9,328-321.5h88.4c16.6,0,30.2-13.5,30.2-30.2C990,490.9,976.5,477.4,959.8,477.4z M543.4,798.2v-49.4c0-16.7-13.5-30.2-30.2-30.2c-16.6,0-30.2,13.5-30.2,30.2v51c-144.8-10.2-262.1-120.5-283.4-262h51.5c16.6,0,30.2-13.5,30.2-30.2c0-16.6-13.5-30.2-30.2-30.2h-54.6c7.2-156.4,131-282.6,286.5-293.6v67.4c0,16.6,13.5,30.2,30.2,30.2c16.6,0,30.2-13.5,30.2-30.2v-65.9c147.6,18.4,263,141.2,270,292.1h-64.6c-16.6,0-30.2,13.5-30.2,30.2c0,16.6,13.5,30.2,30.2,30.2h61.5C789.9,673.8,680.6,781.1,543.4,798.2z"/></g>
</svg>