<?xml version="1.0"?>
<svg xmlns="http://www.w3.org/2000/svg" xmlns:xlink="http://www.w3.org/1999/xlink" version="1.1" id="Capa_1" x="0px" y="0px" viewBox="0 0 305.94 305.94" style="enable-background:new 0 0 305.94 305.94;" xml:space="preserve" width="512px" height="512px" class=""><g><g>
	<g>
		<path d="M305.915,126.551c0.211-2.718-1.085-5.319-3.314-6.806c-10.572-16.103-56.57-81.044-117.346-91.926    c-0.001,0-0.001,0-0.002,0c-6.049-1.079-12.243,0.857-16.569,5.186L155.59,46.097c-1.444,1.446-3.797,1.445-5.239,0    l-13.092-13.092c-4.329-4.328-10.521-6.264-16.572-5.186C59.909,38.701,13.91,103.643,3.339,119.746    c-2.228,1.487-3.524,4.087-3.314,6.805c-0.155,1.905,0.419,3.846,1.693,5.388c0.688,0.833,17.16,20.632,43.895,40.65    c2.885,2.16,5.779,4.229,8.68,6.224c0,56.995,45.569,99.601,98.679,99.601c53.008,0,98.678-42.514,98.678-99.6    c2.901-1.995,5.796-4.064,8.681-6.224c26.733-20.019,43.206-39.817,43.894-40.65C305.496,130.397,306.07,128.457,305.915,126.551z     M123.329,42.585c2.604-0.456,2.418,0.123,16.414,14.119c3.533,3.532,8.23,5.479,13.228,5.479c4.996,0,9.693-1.946,13.226-5.479    c13.959-13.956,13.819-14.582,16.414-14.119c42.956,7.691,79.189,47.641,97.206,71.152c-26.412-5.99-55.115-11.161-82.947-14.863    c-13.417-1.782-27.135,2.858-36.707,12.429c-1.921,1.922-4.476,2.979-7.191,2.979c-2.717,0-5.271-1.058-7.203-2.99    c-9.561-9.56-23.274-14.202-36.695-12.418c-27.907,3.712-56.624,8.892-82.97,14.868C44.094,90.235,80.296,50.29,123.329,42.585z     M54.292,160.241c-15.03-11.291-26.699-22.551-33.682-29.82c7.787-1.867,19.348-4.49,33.682-7.31V160.241z M236.648,179.736    c0,46.14-37.538,83.678-83.678,83.678c-46.141,0-83.679-37.538-83.679-83.678v-59.45c13.647-2.456,27.721-4.677,41.759-6.543    c8.623-1.147,17.722,1.768,24.12,8.167c2.98,2.98,6.529,5.049,10.3,6.219v39.256c0,4.143,3.357,7.5,7.5,7.5s7.5-3.357,7.5-7.5    v-39.259c3.773-1.172,7.325-3.243,10.31-6.227c6.02-6.022,14.805-9.398,24.583-8.093c14.923,1.993,28.839,4.24,41.285,6.479    V179.736z M251.648,160.283V123.11c14.341,2.821,25.906,5.446,33.694,7.313C278.362,137.702,266.692,148.98,251.648,160.283z" data-original="#000000" class="active-path" data-old_color="#000000" fill="#FFFFFF"/>
	</g>
	<g>
		<path d="M121.784,224.034c-12.095-10.434-20.564-24.075-24.492-39.448c-1.025-4.013-5.11-6.435-9.123-5.41    c-4.014,1.025-6.436,5.11-5.41,9.123c4.691,18.36,14.798,34.646,29.227,47.093c3.14,2.707,7.874,2.354,10.578-0.779    C125.269,231.475,124.92,226.739,121.784,224.034z" data-original="#000000" class="active-path" data-old_color="#000000" fill="#FFFFFF"/>
	</g>
	<g>
		<circle cx="133.936" cy="240.717" r="7.5" data-original="#000000" class="active-path" data-old_color="#000000" fill="#FFFFFF"/>
	</g>
</g></g> </svg>
