<?xml version="1.0"?>
<svg xmlns="http://www.w3.org/2000/svg" xmlns:xlink="http://www.w3.org/1999/xlink" version="1.1" id="Capa_1" x="0px" y="0px" viewBox="0 0 60.817 60.817" style="enable-background:new 0 0 60.817 60.817;" xml:space="preserve" width="512px" height="512px"><g><g>
	<g>
		<path d="M43.585,12.722l-0.101,0.001c-0.396-3.864,0.204-6.679,1.553-7.219    c1.65-0.66,1.722-1.669,1.617-2.211C46.548,2.74,46.09,1.812,44.22,1.812c-2.533,0-9.719,1.705-14.345,9.211    c-4.068-6.677-10.293-9.211-13.493-9.211c-1.796,0-2.186,1.015-2.27,1.452c-0.129,0.666,0.057,1.597,1.667,2.241    c1.35,0.54,1.949,3.354,1.554,7.219l-0.1-0.001c-14.179,0-16.758,11.453-17.21,14.962c-0.107,0.821,0.174,1.338,0.428,1.628    c0.32,0.364,0.782,0.573,1.268,0.573c0.356,0,0.895-0.113,1.445-0.649c4.002-3.885,8.115-4.7,10.86-4.7    c0.623,0,1.171,0.043,1.615,0.097c-3.189,10.943-0.39,16.657,0.983,18.626c0.408,0.585,1.006,0.921,1.641,0.921    c0.763,0,1.639-0.522,1.877-1.687c1.098-5.366,3.518-8.921,5.769-11.19c0.051,9.649-0.606,20.728-2.624,24.669    c-0.369,0.723-0.368,1.485,0.004,2.092c0.365,0.598,1.024,0.94,1.809,0.94h12.557c0.678,0,1.329-0.28,1.789-0.768    c0.457-0.486,0.696-1.149,0.655-1.82c-0.232-3.897-1.193-15.577-4.57-24.036c2.127,2.27,4.189,5.533,5.145,10.118    c0.243,1.161,1.119,1.681,1.879,1.681c0.634,0,1.232-0.335,1.639-0.919c1.374-1.971,4.173-7.685,0.985-18.627    c0.444-0.054,0.991-0.097,1.614-0.097c2.746,0,6.858,0.816,10.859,4.701c0.552,0.535,1.091,0.648,1.446,0.648    c0.486,0,0.948-0.209,1.269-0.573c0.254-0.29,0.535-0.808,0.428-1.626C60.342,24.175,57.762,12.722,43.585,12.722z M36.473,49.837    c-1.809,1.661-6.057,2.021-8.89,1.991c0.394-2.149,0.674-4.574,0.871-7.039c2.203-0.031,4.99-0.287,7.054-1.205    C35.924,45.788,36.237,47.929,36.473,49.837z M28.898,29.809l1.747-0.354c0.028,0.001,0.08,0.019,0.054-0.026    c0.897,1.371,1.672,3.02,2.342,4.821c-1.262,0.448-2.758,0.677-4.15,0.787C28.923,32.877,28.914,31.043,28.898,29.809z     M28.532,43.791c0.191-2.693,0.291-5.375,0.339-7.75c1.487-0.114,3.111-0.356,4.505-0.849c0.801,2.338,1.435,4.886,1.938,7.391    C33.403,43.511,30.567,43.754,28.532,43.791z M26.527,56.004c0.331-0.92,0.613-2.003,0.86-3.181    c0.166,0.002,0.339,0.004,0.525,0.004c2.414,0,6.418-0.266,8.698-1.828c0.245,2.159,0.385,3.928,0.457,5.004L26.527,56.004    L26.527,56.004z M46.792,21.536c-0.981,0-1.936,0.084-2.838,0.249c-0.663,0.121-1.243,0.519-1.592,1.094    c-0.362,0.595-0.45,1.325-0.241,2.003c2.178,7.101,1.667,11.642,0.772,14.284c-2.695-8.351-8.732-12.195-11.388-13.527    c-0.552-0.277-1.135-0.336-1.527-0.336c-0.616,0-1.213,0.144-1.681,0.405c-2.391,1.34-7.83,5.183-10.387,13.418    c-0.886-2.648-1.381-7.179,0.787-14.245c0.209-0.678,0.121-1.409-0.24-2.003c-0.35-0.574-0.93-0.973-1.593-1.094    c-0.902-0.165-1.858-0.249-2.839-0.249c-2.688,0-6.454,0.639-10.311,3.353c1.323-4.049,4.735-9.167,13.519-9.167l0.43,0.003    c1.315,0,2.461-1.002,2.609-2.28c0.252-2.158,0.375-5.354-0.604-7.765c2.576,1.116,6.001,3.512,8.43,8.316    c0.545,1.077,1.421,1.193,1.771,1.193c0.351,0,1.224-0.116,1.77-1.187c2.663-5.219,6.719-7.625,9.629-8.606    c-1.108,2.438-0.986,5.805-0.725,8.047c0.148,1.279,1.294,2.281,2.653,2.281h0.001l0.386-0.003c8.783,0,12.195,5.117,13.518,9.167    C53.247,22.175,49.48,21.536,46.792,21.536z" data-original="#010002" class="active-path" data-old_color="#010002" fill="#FFFFFF"/>
	</g>
</g></g> </svg>
