<?xml version="1.0"?>
<svg xmlns="http://www.w3.org/2000/svg" height="512px" viewBox="0 -14 511.99943 511" width="512px" class=""><g><path d="m421.191406 299.324219c-.320312-.125-32.671875-12.511719-66.863281-22.277344-34.625-9.910156-93.890625 29.195313-107.707031 38.78125h-114.21875c.183594-9.386719 2.683594-29.511719 4.933594-47.65625 5.382812-43.371094 12.597656-101.523437 9.117187-144.605469l17.3125 1.554688c8.011719 0 24.621094-.835938 34.820313-7.195313l13.832031 10.375c3.394531 2.554688 8.148437 2.214844 11.152343-.789062l58.667969-58.667969c3.101563-3.097656 3.34375-8.042969.570313-11.4375l-44-53.773438c-2.367188-2.890624-6.34375-3.917968-9.824219-2.5l-131.992187 53.769532c-1.984376.808594-3.589844 2.335937-4.5 4.269531-.773438 1.652344-77.828126 166.894531-92.4570318 332.703125-.0507812.542969-.046875 1.085938.0117188 1.628906.453125 4.390625 7.523437 43.039063 114.429687 48.132813 20.722657.984375 42.894532 1.441406 64.34375 1.882812 85.847657 1.765625 174.625 3.59375 215.089844 37.714844 1.601563 1.347656 3.554688 2.007813 5.496094 2.007813 2.429688 0 4.84375-1.027344 6.53125-3.035157 3.039062-3.601562 2.578125-8.980469-1.023438-12.023437-45.082031-38.011719-136.921874-39.902344-225.742187-41.726563-21.332031-.441406-43.390625-.898437-63.882813-1.871093-85.105468-4.054688-96.90625-29.109376-98.136718-32.472657 13.539062-150.140625 79.070312-299.820312 89.417968-322.679687l123.027344-50.125 35.121094 42.921875-47.96875 47.972656-13.636719-10.222656c-2.023437-1.523438-4.558593-2.167969-7.023437-1.570313-2.464844.578125-4.488282 2.132813-5.617188 4.398438-2.179687 2.679687-15.15625 5.226562-25.925781 5.277344l-26.886719-2.445313c-2.609375-.21875-5.136718.71875-6.933594 2.59375-1.796874 1.875-2.640624 4.464844-2.300781 7.039063 5.539063 41.550781-2.296875 104.695312-8.019531 150.796874-5.957031 48.03125-6.695312 57.929688-1.734375 63.546876 1.835937 2.085937 4.460937 3.277343 7.191406 3.277343h123.464844c1.777344 0 3.511719-.554687 4.957031-1.589843 18.105469-12.933594 70.511719-44.917969 95.359375-37.847657 33.4375 9.554688 65.117188 21.683594 65.433594 21.804688 4.40625 1.691406 9.339844-.503907 11.027344-4.910157 1.683593-4.398437-.515625-9.335937-4.914063-11.027343zm0 0" data-original="#000000" class="active-path" data-old_color="#000000" fill="#FFFFFF"/><path d="m297.441406 345.558594c-2.429687-4.042969-7.667968-5.339844-11.699218-2.917969-4.042969 2.425781-5.351563 7.667969-2.925782 11.707031 1.148438 1.914063 28.84375 47.082032 90.496094 63.152344.726562.1875 1.449219.273438 2.160156.273438 3.792969 0 7.253906-2.539063 8.253906-6.378907 1.1875-4.5625-1.546874-9.222656-6.105468-10.414062-54.449219-14.191407-79.742188-54.714844-80.179688-55.421875zm0 0" data-original="#000000" class="active-path" data-old_color="#000000" fill="#FFFFFF"/><path d="m409.597656 25.691406c-56.460937 0-102.398437 45.9375-102.398437 102.402344 0 56.460938 45.9375 102.398438 102.398437 102.398438 56.464844 0 102.402344-45.9375 102.402344-102.398438 0-56.464844-45.9375-102.402344-102.402344-102.402344zm0 187.734375c-47.054687 0-85.332031-38.277343-85.332031-85.332031s38.277344-85.335938 85.332031-85.335938c47.058594 0 85.335938 38.28125 85.335938 85.335938s-38.277344 85.332031-85.335938 85.332031zm0 0" data-original="#000000" class="active-path" data-old_color="#000000" fill="#FFFFFF"/><path d="m120 367.039062c-4.71875-.308593-8.753906 3.285157-9.050781 7.984376-.296875 4.703124 3.28125 8.753906 7.984375 9.050781l136.535156 8.53125c.183594.015625.359375.019531.539062.019531 4.472657 0 8.222657-3.480469 8.507813-8 .296875-4.703125-3.277344-8.757812-7.984375-9.050781zm0 0" data-original="#000000" class="active-path" data-old_color="#000000" fill="#FFFFFF"/><path d="m409.535156 153.691406c-11.726562 0-22.570312 4.238282-29.015625 11.332032-3.171875 3.492187-2.90625 8.886718.578125 12.050781 1.636719 1.484375 3.6875 2.21875 5.734375 2.21875 2.324219 0 4.636719-.941407 6.320313-2.796875 3.164062-3.488282 9.59375-5.738282 16.378906-5.738282 6.710938 0 13.113281 2.222657 16.308594 5.652344 3.214844 3.460938 8.617187 3.65625 12.058594.441406 3.453124-3.207031 3.648437-8.605468.441406-12.054687-6.460938-6.957031-17.230469-11.105469-28.804688-11.105469zm0 0" data-original="#000000" class="active-path" data-old_color="#000000" fill="#FFFFFF"/><path d="m384 115.292969c0 7.066406-5.730469 12.796875-12.800781 12.796875-7.070313 0-12.800781-5.730469-12.800781-12.796875 0-7.070313 5.730468-12.800781 12.800781-12.800781 7.070312 0 12.800781 5.730468 12.800781 12.800781zm0 0" data-original="#000000" class="active-path" data-old_color="#000000" fill="#FFFFFF"/><path d="m460.800781 115.292969c0 7.066406-5.730469 12.796875-12.800781 12.796875s-12.800781-5.730469-12.800781-12.796875c0-7.070313 5.730469-12.800781 12.800781-12.800781s12.800781 5.730468 12.800781 12.800781zm0 0" data-original="#000000" class="active-path" data-old_color="#000000" fill="#FFFFFF"/></g> </svg>
