<?xml version="1.0"?>
<svg xmlns="http://www.w3.org/2000/svg" xmlns:xlink="http://www.w3.org/1999/xlink" version="1.1" id="Capa_1" x="0px" y="0px" viewBox="0 0 299.809 299.809" style="enable-background:new 0 0 299.809 299.809;" xml:space="preserve" width="512px" height="512px" class="" ><g><path d="M235.136,15V0h-27.454H92.127H64.673v15h27.454v38.032H80.648v136.797c0,35.525,27.128,64.829,61.756,68.293v41.686h15  v-41.686c34.628-3.464,61.756-32.768,61.756-68.293V53.032h-11.479V15H235.136z M150.521,243.468h-1.234  c-29.576,0-53.639-24.063-53.639-53.639V68.032H204.16v32.88h-36.552v15h36.552V142.5h-36.552v15h36.552v26.589h-36.552v15h35.735  C198.942,224.265,176.939,243.468,150.521,243.468z M192.682,53.032h-85.555V15h85.555V53.032z" data-original="#000000" class="active-path" data-old_color="#000000" fill="#000000"/></g> </svg>
