<?xml version="1.0" encoding="iso-8859-1"?>
<!-- Generator: Adobe Illustrator 16.0.0, SVG Export Plug-In . SVG Version: 6.00 Build 0)  -->
<!DOCTYPE svg PUBLIC "-//W3C//DTD SVG 1.1//EN" "http://www.w3.org/Graphics/SVG/1.1/DTD/svg11.dtd">
<svg version="1.1" id="Capa_1" xmlns="http://www.w3.org/2000/svg" xmlns:xlink="http://www.w3.org/1999/xlink" x="0px" y="0px"
	 width="64px" height="64px" viewBox="0 0 64 64" style="enable-background:new 0 0 64 64;" xml:space="preserve">
<g>
	<g>
		<g>
			<path d="M59,57.068C59,60.896,55.896,64,52.068,64H11.932C8.104,64,5,60.896,5,57.068V6.932C5,3.104,8.104,0,11.932,0h40.136
				C55.896,0,59,3.104,59,6.932V57.068z M55,6.932C55,5.313,53.688,4,52.068,4H11.932C10.313,4,9,5.313,9,6.932v50.136
				C9,58.688,10.313,60,11.932,60h40.136C53.688,60,55,58.688,55,57.068V6.932z"/>
		</g>
		<g>
			<path d="M19,63c-0.553,0-1-0.447-1-1V2c0-0.553,0.447-1,1-1c0.552,0,1,0.447,1,1v60C20,62.553,19.552,63,19,63z"/>
		</g>
		<g>
			<g>
				<path d="M47.527,58H31.125c-0.553,0-1-0.447-1-1s0.447-1,1-1h16.402C49.105,56,51,54.109,51,51.184V48c0-0.553,0.447-1,1-1
					s1,0.447,1,1v3.184C53,55.325,50.32,58,47.527,58z"/>
			</g>
			<g>
				<path d="M51.245,43.951c-0.271,0-0.521-0.102-0.71-0.29c-0.182-0.181-0.29-0.44-0.29-0.71c0-0.262,0.108-0.521,0.29-0.71
					c0.369-0.36,1.04-0.37,1.408,0c0.19,0.188,0.302,0.448,0.302,0.71c0,0.27-0.11,0.52-0.29,0.71
					C51.766,43.85,51.505,43.951,51.245,43.951z"/>
			</g>
		</g>
		<g>
			<path d="M45,22.432c-0.146,0-0.295-0.032-0.432-0.099L39,19.666l-5.568,2.668c-0.31,0.15-0.677,0.128-0.968-0.055
				c-0.291-0.184-0.471-0.503-0.471-0.847V2c0-0.553,0.454-1.318,1.007-1.318h12c0.553,0,0.993,0.766,0.993,1.318v19.432
				c0,0.344-0.175,0.663-0.464,0.847C45.368,22.38,45.186,22.432,45,22.432z M39,17.557c0.146,0,0.292,0.033,0.43,0.099l4.563,2.188
				V2.682h-10v17.162l4.571-2.188C38.7,17.59,38.854,17.557,39,17.557z"/>
		</g>
	</g>
</g>
<g>
</g>
<g>
</g>
<g>
</g>
<g>
</g>
<g>
</g>
<g>
</g>
<g>
</g>
<g>
</g>
<g>
</g>
<g>
</g>
<g>
</g>
<g>
</g>
<g>
</g>
<g>
</g>
<g>
</g>
</svg>
