<svg width="19" height="22" viewBox="0 0 19 22" fill="none" xmlns="http://www.w3.org/2000/svg">
<path d="M10.6793 0.088623C6.20714 0.088623 2.56864 3.8906 2.56864 8.56372V9.07697L0.255523 13.5915C0.19159 13.7163 0.195185 13.8671 0.264766 13.9883C0.33409 14.1099 0.459644 14.1842 0.594955 14.1842H2.56864V17.2508C2.56864 18.6279 3.64086 19.7483 4.95905 19.7483H8.34798V21.5094C8.34798 21.7321 8.52027 21.9118 8.73312 21.9118C8.94597 21.9118 9.11825 21.7321 9.11825 21.5094V19.3459C9.11825 19.1237 8.94597 18.9434 8.73312 18.9434H4.95879C4.06554 18.9434 3.33866 18.1842 3.33866 17.2508V13.7817C3.33866 13.5596 3.16612 13.3793 2.95352 13.3793H1.23787L3.29296 9.36779C3.323 9.30958 3.33866 9.24411 3.33866 9.17811V8.56372C3.33866 4.33409 6.63131 0.893501 10.6791 0.893501C14.7268 0.893501 18.0195 4.33409 18.0195 8.56372C18.0195 10.6089 17.2587 12.5267 15.8758 13.973C15.7752 14.0463 15.7113 14.1681 15.7113 14.3028V21.4876C15.7113 21.7098 15.8835 21.8901 16.0964 21.8901C16.3092 21.8901 16.4815 21.7098 16.4815 21.4876V14.4769C17.9712 12.887 18.7895 10.7935 18.7895 8.56345C18.79 3.89033 15.1515 0.088623 10.6793 0.088623ZM11.026 3.62284C8.2327 3.35509 6.07697 5.53389 5.78041 8.91921C5.7609 9.14055 5.91675 9.33667 6.12858 9.35653C6.33783 9.37745 6.52783 9.21379 6.54709 8.99245C6.80641 6.03318 8.57624 4.19833 10.9556 4.42423C12.0106 4.52538 12.9542 5.00482 13.613 5.77455C14.2773 6.55126 14.5918 7.56514 14.4983 8.62945C14.4249 9.47377 14.0408 10.2379 13.4174 10.7806C12.7935 11.3231 12.0042 11.5799 11.1962 11.5023C10.57 11.4425 10.0033 11.1313 9.60121 10.6266C9.19913 10.1217 9.00939 9.48316 9.06664 8.8288C9.16036 7.76126 10.0639 6.93921 11.0378 7.03177C11.8137 7.10582 12.3539 7.68158 12.2943 8.37028C12.2396 8.98628 11.6817 9.29348 11.3179 9.26638C11.1068 9.25216 10.9225 9.41984 10.9086 9.64172C10.895 9.8636 11.0557 10.0549 11.2681 10.0696C12.062 10.1246 12.9691 9.48289 13.0613 8.44353C13.1601 7.29765 12.3203 6.34575 11.1079 6.23011C9.7165 6.09623 8.43168 7.25311 8.29971 8.75528C8.22346 9.62375 8.47533 10.4713 9.00939 11.1412C9.54293 11.8114 10.2947 12.2243 11.1258 12.3035C11.2445 12.315 11.3623 12.3206 11.4799 12.3206C12.3678 12.3206 13.2197 12 13.9104 11.3988C14.6919 10.7184 15.1731 9.76085 15.2653 8.70216C15.3782 7.41355 14.9954 6.18316 14.1871 5.23823C13.3986 4.31584 12.2758 3.74223 11.026 3.62284Z" fill="black"/>
</svg>
