<?xml version="1.0"?>
<svg xmlns="http://www.w3.org/2000/svg" xmlns:xlink="http://www.w3.org/1999/xlink" version="1.1" id="Capa_1" x="0px" y="0px" viewBox="0 0 487.025 487.025" style="enable-background:new 0 0 487.025 487.025;" xml:space="preserve" width="512px" height="512px" class=""><g transform="matrix(-1.83697e-16 -1 1 -1.83697e-16 8.52651e-14 487.025)"><g>
	<path d="M469.874,29.312H17.155C7.671,29.312,0,36.987,0,46.467v69.405c0,9.48,7.671,17.157,17.155,17.157h452.719   c9.48,0,17.151-7.677,17.151-17.157V46.467C487.025,36.987,479.354,29.312,469.874,29.312z" data-original="#000000" class="active-path" data-old_color="#000000" fill="#4074CB"/>
	<path d="M469.874,191.656H17.155C7.671,191.656,0,199.329,0,208.809v69.407c0,9.482,7.671,17.155,17.155,17.155h452.719   c9.48,0,17.151-7.673,17.151-17.155v-69.407C487.025,199.329,479.354,191.656,469.874,191.656z" data-original="#000000" class="active-path" data-old_color="#000000" fill="#4074CB"/>
	<path d="M226.357,353.998H17.155C7.671,353.998,0,361.672,0,371.151v69.407c0,9.482,7.671,17.155,17.155,17.155h209.202   c9.484,0,17.155-7.673,17.155-17.155v-69.407C243.513,361.672,235.842,353.998,226.357,353.998z" data-original="#000000" class="active-path" data-old_color="#000000" fill="#4074CB"/>
</g></g> </svg>
