<?xml version="1.0" encoding="iso-8859-1"?>
<!-- Generator: Adobe Illustrator 16.0.0, SVG Export Plug-In . SVG Version: 6.00 Build 0)  -->
<!DOCTYPE svg PUBLIC "-//W3C//DTD SVG 1.1//EN" "http://www.w3.org/Graphics/SVG/1.1/DTD/svg11.dtd">
<svg version="1.1" id="Capa_1" xmlns="http://www.w3.org/2000/svg" xmlns:xlink="http://www.w3.org/1999/xlink" x="0px" y="0px"
	 width="67.026px" height="67.026px" viewBox="0 0 67.026 67.026" style="enable-background:new 0 0 67.026 67.026;"
	 xml:space="preserve">
<g>
	<g>
		<g>
			<path d="M32.983,67.026c-0.192,0-0.112-0.027-0.3-0.084c-1.12-0.335-27.17-8.39-27.17-25.325v-28.61c0-1.104,0.622-2,1.727-2
				c4.977,0,8.949-4.054,9.022-9.032C16.279,0.881,17.032,0,18.125,0H47.81c1.094,0,1.982,0.881,2,1.975
				c0.073,4.979,4.454,9.03,9.432,9.03c1.104,0,2.272,0.897,2.272,2.002v28.62c0,14.836-26.438,24.854-27.553,25.271
				C33.733,66.982,33.221,67.026,32.983,67.026z M9.513,14.854v26.763c0,12.71,20.097,20.007,23.954,21.288
				c7.272-2.873,24.046-11.556,24.046-21.278V14.854C51.513,13.99,46.921,10,45.987,4H19.947C19.012,10,14.513,13.99,9.513,14.854z"
				/>
		</g>
		<g>
			<g>
				<path d="M23.154,54.745c-0.151,0-0.304-0.032-0.448-0.104c-3.845-1.933-6.82-4.674-8.604-7.934
					c-0.266-0.484-0.088-1.092,0.396-1.357c0.484-0.268,1.093-0.088,1.357,0.396c1.589,2.9,4.269,5.357,7.748,7.105
					c0.494,0.248,0.693,0.849,0.445,1.343C23.872,54.545,23.52,54.745,23.154,54.745z"/>
			</g>
			<g>
				<path d="M13.238,42.994c-0.437,0-0.838-0.287-0.962-0.729c-0.18-0.642-0.25-1.021-0.25-1.021
					c-0.1-0.543,0.259-1.062,0.801-1.164c0.54-0.098,1.063,0.254,1.165,0.797c0.004,0.021,0.065,0.334,0.209,0.848
					c0.15,0.531-0.16,1.084-0.691,1.232C13.417,42.982,13.327,42.994,13.238,42.994z"/>
			</g>
		</g>
		<g>
			<path d="M32.513,65.008c-0.553,0-1-0.447-1-1v-62c0-0.553,0.447-1,1-1c0.552,0,1,0.447,1,1v62
				C33.513,64.559,33.064,65.008,32.513,65.008z"/>
		</g>
		<g>
			<path d="M58.967,34H6.968c-0.553,0-1-0.447-1-1s0.447-1,1-1h51.999c0.552,0,1,0.447,1,1S59.519,34,58.967,34z"/>
		</g>
	</g>
</g>
<g>
</g>
<g>
</g>
<g>
</g>
<g>
</g>
<g>
</g>
<g>
</g>
<g>
</g>
<g>
</g>
<g>
</g>
<g>
</g>
<g>
</g>
<g>
</g>
<g>
</g>
<g>
</g>
<g>
</g>
</svg>
