<?xml version="1.0" encoding="iso-8859-1"?>
<!-- Generator: Adobe Illustrator 16.0.0, SVG Export Plug-In . SVG Version: 6.00 Build 0)  -->
<!DOCTYPE svg PUBLIC "-//W3C//DTD SVG 1.1//EN" "http://www.w3.org/Graphics/SVG/1.1/DTD/svg11.dtd">
<svg version="1.1" id="Capa_1" xmlns="http://www.w3.org/2000/svg" xmlns:xlink="http://www.w3.org/1999/xlink" x="0px" y="0px"
	 width="64.54px" height="64.54px" viewBox="0 0 64.54 64.54" style="enable-background:new 0 0 64.54 64.54;" xml:space="preserve"
	>
<g>
	<g>
		<g>
			<path d="M32.272,64.54C14.478,64.54,0.001,50.062,0,32.27C0.001,14.477,14.478,0,32.272,0c8.619,0,16.722,3.357,22.816,9.451
				c6.096,6.096,9.453,14.2,9.452,22.818c0.001,8.619-3.354,16.724-9.451,22.816C48.994,61.182,40.891,64.54,32.272,64.54z
				 M32.272,4C16.684,4,4.001,16.682,4,32.27C4.001,47.857,16.684,60.54,32.271,60.54c7.551,0,14.649-2.94,19.988-8.28
				C57.6,46.918,60.54,39.82,60.54,32.27c0-7.55-2.94-14.649-8.28-19.99C46.921,6.942,39.823,4,32.272,4z"/>
		</g>
		<g>
			<path d="M32.272,63.54c-10.653,0-19.321-14.026-19.321-31.271C12.951,15.027,21.619,1,32.272,1
				C42.924,1,51.59,15.028,51.59,32.27C51.59,49.512,42.924,63.54,32.272,63.54z M32.272,3c-9.551,0-17.321,13.131-17.321,29.27
				c0,16.14,7.771,29.271,17.321,29.271c9.55,0,17.318-13.131,17.318-29.271C49.59,16.131,41.822,3,32.272,3z"/>
		</g>
		<g>
			<path d="M32.271,25.004c-13.743,0-24.508-4.945-24.508-11.258c0-0.553,0.447-1,1-1c0.553,0,1,0.447,1,1
				c0,5.018,10.308,9.258,22.508,9.258c12.2,0,22.506-4.24,22.506-9.258c0-0.553,0.447-1,1-1c0.554,0,1,0.447,1,1
				C56.777,20.059,46.014,25.004,32.271,25.004z"/>
		</g>
		<g>
			<path d="M55.777,53.006c-0.553,0-1-0.447-1-1c0-5.02-10.309-9.26-22.508-9.26c-12.2,0-22.507,4.24-22.507,9.26
				c0,0.553-0.447,1-1,1c-0.553,0-1-0.447-1-1c0-6.314,10.765-11.26,24.507-11.26c13.743,0,24.508,4.945,24.508,11.26
				C56.777,52.559,56.33,53.006,55.777,53.006z"/>
		</g>
		<g>
			<path d="M32.475,63.561c-0.553,0-1-0.447-1-1v-61c0-0.553,0.447-1,1-1c0.552,0,1,0.447,1,1v61
				C33.475,63.113,33.027,63.561,32.475,63.561z"/>
		</g>
		<g>
			<path d="M62.59,33.977h-40c-0.553,0-1-0.447-1-1s0.447-1,1-1h40c0.553,0,1,0.447,1,1S63.143,33.977,62.59,33.977z"/>
		</g>
		<g>
			<path d="M17.59,33.977h-15c-0.553,0-1-0.447-1-1s0.447-1,1-1h15c0.553,0,1,0.447,1,1S18.143,33.977,17.59,33.977z"/>
		</g>
	</g>
</g>
<g>
</g>
<g>
</g>
<g>
</g>
<g>
</g>
<g>
</g>
<g>
</g>
<g>
</g>
<g>
</g>
<g>
</g>
<g>
</g>
<g>
</g>
<g>
</g>
<g>
</g>
<g>
</g>
<g>
</g>
</svg>
