<?xml version="1.0" encoding="iso-8859-1"?>
<!-- Generator: Adobe Illustrator 17.1.0, SVG Export Plug-In . SVG Version: 6.00 Build 0)  -->
<!DOCTYPE svg PUBLIC "-//W3C//DTD SVG 1.1//EN" "http://www.w3.org/Graphics/SVG/1.1/DTD/svg11.dtd">
<svg version="1.1" id="Capa_1" xmlns="http://www.w3.org/2000/svg" xmlns:xlink="http://www.w3.org/1999/xlink" x="0px" y="0px"
	 viewBox="0 0 465 465" style="enable-background:new 0 0 465 465;" xml:space="preserve">
<g>
	<path d="M200.307,226.933c-2.929-2.927-7.677-2.929-10.607,0c-2.929,2.93-2.929,7.678,0,10.607l8.431,8.431
		c1.465,1.464,3.385,2.196,5.304,2.196s3.839-0.732,5.304-2.196c2.929-2.93,2.929-7.678,0-10.607L200.307,226.933z"/>
	<path d="M243.719,182.017c-2.93-2.928-7.678-2.928-10.607,0c-2.929,2.93-2.929,7.678,0,10.607l9.183,9.183
		c1.465,1.464,3.385,2.196,5.304,2.196s3.839-0.732,5.304-2.196c2.929-2.93,2.929-7.678,0-10.607L243.719,182.017z"/>
	<path d="M156.143,271.097c-2.93-2.928-7.678-2.928-10.607,0c-2.929,2.93-2.929,7.678,0,10.607l8.431,8.431
		c1.465,1.464,3.385,2.196,5.304,2.196s3.839-0.732,5.304-2.196c2.929-2.93,2.929-7.678,0-10.607L156.143,271.097z"/>
	<path d="M462.552,82.129L382.619,2.196c-2.93-2.928-7.678-2.928-10.607,0c-2.929,2.93-2.929,7.678,0,10.607l17.27,17.269
		l-44.518,44.517c-2.929,2.93-2.929,7.678,0,10.607c2.93,2.928,7.678,2.928,10.607,0l44.517-44.518l24.182,24.182l-44.517,44.517
		c-2.929,2.93-2.929,7.678,0,10.607c1.465,1.464,3.385,2.196,5.304,2.196c1.92,0,3.839-0.732,5.304-2.196l44.516-44.517l17.27,17.27
		c2.93,2.928,7.678,2.928,10.607,0C465.481,89.807,465.481,85.059,462.552,82.129z"/>
	<path d="M288.635,138.606c-2.929-2.927-7.677-2.929-10.607,0c-2.929,2.93-2.929,7.678,0,10.607l8.431,8.431
		c1.465,1.464,3.385,2.196,5.304,2.196s3.839-0.732,5.304-2.196c2.929-2.93,2.929-7.678,0-10.607L288.635,138.606z"/>
	<path d="M392.334,153.978c-0.021-0.021-0.042-0.042-0.063-0.063c-0.021-0.021-0.042-0.041-0.063-0.063l-81.346-81.346
		c-0.01-0.01-0.02-0.02-0.029-0.03c-0.011-0.01-0.021-0.02-0.03-0.029L288.26,49.904c-2.93-2.927-7.678-2.929-10.607,0
		c-2.929,2.93-2.929,7.678,0,10.607l17.27,17.269L79.407,293.295c-1.406,1.407-2.196,3.314-2.196,5.304s0.79,3.896,2.196,5.304
		l22.375,22.373l-31.806,31.805c-2.929,2.93-2.929,7.678,0,10.607l7.99,7.989l-75.52,75.519c-2.929,2.93-2.929,7.678,0,10.607
		C3.912,464.267,5.832,465,7.751,465s3.839-0.732,5.304-2.196l75.519-75.52l7.487,7.488c1.407,1.406,3.314,2.196,5.304,2.196
		s3.896-0.79,5.304-2.196l31.804-31.806l22.374,22.375c1.407,1.406,3.314,2.196,5.304,2.196s3.896-0.79,5.304-2.196l215.515-215.516
		l17.269,17.27c2.93,2.928,7.678,2.928,10.607,0c2.929-2.93,2.929-7.678,0-10.607L392.334,153.978z M166.149,369.431l-22.374-22.375
		c-1.407-1.406-3.314-2.196-5.304-2.196s-3.896,0.79-5.304,2.197l-31.804,31.805l-7.487-7.488l-7.99-7.989l31.806-31.805
		c1.406-1.407,2.196-3.314,2.196-5.304s-0.79-3.896-2.197-5.304l-22.374-22.373L305.529,88.386l70.831,70.832L166.149,369.431z"/>
</g>
<g>
</g>
<g>
</g>
<g>
</g>
<g>
</g>
<g>
</g>
<g>
</g>
<g>
</g>
<g>
</g>
<g>
</g>
<g>
</g>
<g>
</g>
<g>
</g>
<g>
</g>
<g>
</g>
<g>
</g>
</svg>
