<svg width="783" height="781" viewBox="0 0 783 781" fill="none" xmlns="http://www.w3.org/2000/svg">
<path d="M241 100C241 44.7715 285.772 0 341 0H541V102C541 212.457 451.457 302 341 302H241V100Z" fill="#8CAFF7"/>
<path d="M683 239C738.228 239 783 283.772 783 339V539H681C570.543 539 481 449.457 481 339V239L683 239Z" fill="#5F86D6"/>
<path d="M541 681C541 736.228 496.228 781 441 781H241V679C241 568.543 330.543 479 441 479H541V681Z" fill="#5F86D6"/>
<path d="M100 538C44.7715 538 0 493.228 0 438L0 238H102C212.457 238 302 327.543 302 438V538H100Z" fill="#5F86D6"/>
</svg>
