<svg width="28" height="29" viewBox="0 0 28 29" fill="none" xmlns="http://www.w3.org/2000/svg">
<mask id="path-1-outside-1" maskUnits="userSpaceOnUse" x="0" y="0" width="28" height="29" fill="black">
<rect fill="white" width="28" height="29"/>
<path fill-rule="evenodd" clip-rule="evenodd" d="M8.47852 8.5C8.47852 5.47378 10.9523 3 13.9785 3C17.0047 3 19.4785 5.47378 19.4785 8.5C19.4785 11.5262 17.0047 14 13.9785 14C10.9523 14 8.47852 11.5262 8.47852 8.5ZM24.6782 17.9785C24.9333 18.347 25.1601 18.7438 25.3301 19.169C25.4152 19.339 25.3868 19.5375 25.2452 19.7076C25.0184 20.1044 24.7633 20.4729 24.4799 20.8414C24.083 21.3799 23.6295 21.8618 23.176 22.3153C22.7791 22.7121 22.3256 23.1089 21.8721 23.4491C19.6329 25.1214 16.9402 26.0001 14.1624 26.0001C11.3846 26.0001 8.69189 25.1214 6.4527 23.4491C5.99914 23.0806 5.54563 22.7121 5.14883 22.3153C4.66695 21.8618 4.24176 21.3799 3.84496 20.8414C3.58986 20.5013 3.30644 20.1044 3.07966 19.7076C2.99464 19.5375 2.96632 19.3391 3.05134 19.169C3.22137 18.7722 3.44815 18.347 3.70325 17.9785C4.97874 16.0511 7.01953 14.7756 9.28711 14.4638C9.57052 14.4071 9.88232 14.4921 10.1091 14.6622C11.2996 15.5409 12.7168 15.9944 14.1907 15.9944C15.6647 15.9944 17.0819 15.5409 18.2724 14.6622C18.4992 14.4921 18.8109 14.4355 19.0944 14.4638C21.3619 14.7756 23.3744 16.0511 24.6782 17.9785Z"/>
</mask>
<path fill-rule="evenodd" clip-rule="evenodd" d="M8.47852 8.5C8.47852 5.47378 10.9523 3 13.9785 3C17.0047 3 19.4785 5.47378 19.4785 8.5C19.4785 11.5262 17.0047 14 13.9785 14C10.9523 14 8.47852 11.5262 8.47852 8.5ZM24.6782 17.9785C24.9333 18.347 25.1601 18.7438 25.3301 19.169C25.4152 19.339 25.3868 19.5375 25.2452 19.7076C25.0184 20.1044 24.7633 20.4729 24.4799 20.8414C24.083 21.3799 23.6295 21.8618 23.176 22.3153C22.7791 22.7121 22.3256 23.1089 21.8721 23.4491C19.6329 25.1214 16.9402 26.0001 14.1624 26.0001C11.3846 26.0001 8.69189 25.1214 6.4527 23.4491C5.99914 23.0806 5.54563 22.7121 5.14883 22.3153C4.66695 21.8618 4.24176 21.3799 3.84496 20.8414C3.58986 20.5013 3.30644 20.1044 3.07966 19.7076C2.99464 19.5375 2.96632 19.3391 3.05134 19.169C3.22137 18.7722 3.44815 18.347 3.70325 17.9785C4.97874 16.0511 7.01953 14.7756 9.28711 14.4638C9.57052 14.4071 9.88232 14.4921 10.1091 14.6622C11.2996 15.5409 12.7168 15.9944 14.1907 15.9944C15.6647 15.9944 17.0819 15.5409 18.2724 14.6622C18.4992 14.4921 18.8109 14.4355 19.0944 14.4638C21.3619 14.7756 23.3744 16.0511 24.6782 17.9785Z" fill="#EEF2FB"/>
<path d="M25.3301 19.169L23.009 20.0975C23.0347 20.1619 23.0631 20.2251 23.0941 20.2871L25.3301 19.169ZM24.6782 17.9785L22.6075 19.3793C22.6125 19.3867 22.6176 19.3941 22.6227 19.4015L24.6782 17.9785ZM25.2452 19.7076L23.3242 18.1077C23.2306 18.22 23.1471 18.3404 23.0745 18.4673L25.2452 19.7076ZM24.4799 20.8414L22.4982 19.3172C22.4878 19.3308 22.4775 19.3445 22.4673 19.3582L24.4799 20.8414ZM23.176 22.3153L24.9437 24.0832L24.9438 24.083L23.176 22.3153ZM21.8721 23.4491L23.3681 25.4521L23.3721 25.4491L21.8721 23.4491ZM6.4527 23.4491L4.87628 25.3894C4.90267 25.4108 4.92949 25.4317 4.95673 25.4521L6.4527 23.4491ZM5.14883 22.3153L6.91659 20.5475C6.89872 20.5296 6.88058 20.512 6.86218 20.4947L5.14883 22.3153ZM3.84496 20.8414L5.85766 19.3585C5.85343 19.3527 5.84919 19.347 5.84492 19.3413L3.84496 20.8414ZM3.07966 19.7076L0.843448 20.8253C0.864197 20.8668 0.886097 20.9078 0.909124 20.9481L3.07966 19.7076ZM3.05134 19.169L5.28755 20.2868C5.30942 20.243 5.33 20.1986 5.34927 20.1537L3.05134 19.169ZM3.70325 17.9785L5.75875 19.4015C5.76868 19.3872 5.77846 19.3727 5.78809 19.3582L3.70325 17.9785ZM9.28711 14.4638L9.62766 16.9405C9.67784 16.9336 9.72781 16.9252 9.77748 16.9152L9.28711 14.4638ZM10.1091 14.6622L8.6091 16.6622C8.61421 16.666 8.61933 16.6698 8.62447 16.6736L10.1091 14.6622ZM18.2724 14.6622L19.757 16.6736C19.7621 16.6698 19.7673 16.666 19.7724 16.6622L18.2724 14.6622ZM19.0944 14.4638L19.4349 11.9871C19.4043 11.9829 19.3737 11.9792 19.3429 11.9762L19.0944 14.4638ZM13.9785 0.5C9.57159 0.5 5.97852 4.09307 5.97852 8.5H10.9785C10.9785 6.8545 12.333 5.5 13.9785 5.5V0.5ZM21.9785 8.5C21.9785 4.09307 18.3854 0.5 13.9785 0.5V5.5C15.624 5.5 16.9785 6.8545 16.9785 8.5H21.9785ZM13.9785 16.5C18.3854 16.5 21.9785 12.9069 21.9785 8.5H16.9785C16.9785 10.1455 15.624 11.5 13.9785 11.5V16.5ZM5.97852 8.5C5.97852 12.9069 9.57159 16.5 13.9785 16.5V11.5C12.333 11.5 10.9785 10.1455 10.9785 8.5H5.97852ZM27.6513 18.2405C27.3968 17.6042 27.0704 17.0419 26.7337 16.5555L22.6227 19.4015C22.7962 19.6522 22.9233 19.8835 23.009 20.0975L27.6513 18.2405ZM27.1662 21.3075C27.8461 20.4912 28.1595 19.2376 27.5662 18.051L23.0941 20.2871C22.9052 19.9093 22.8372 19.4781 22.9017 19.0585C22.9648 18.648 23.1409 18.3277 23.3242 18.1077L27.1662 21.3075ZM26.4615 22.3655C26.7941 21.9331 27.1183 21.4686 27.4158 20.9478L23.0745 18.4673C22.9186 18.7402 22.7325 19.0126 22.4982 19.3172L26.4615 22.3655ZM24.9438 24.083C25.427 23.5998 25.9843 23.014 26.4924 22.3245L22.4673 19.3582C22.1817 19.7458 21.832 20.1237 21.4082 20.5475L24.9438 24.083ZM23.3721 25.4491C23.9259 25.0338 24.4683 24.5584 24.9437 24.0832L21.4084 20.5474C21.09 20.8657 20.7254 21.1841 20.3722 21.449L23.3721 25.4491ZM14.1624 28.5001C17.4714 28.5001 20.6905 27.4518 23.3681 25.4521L20.3762 21.446C18.5753 22.791 16.409 23.5001 14.1624 23.5001V28.5001ZM4.95673 25.4521C7.63431 27.4518 10.8535 28.5001 14.1624 28.5001V23.5001C11.9158 23.5001 9.74947 22.791 7.94866 21.446L4.95673 25.4521ZM3.38106 24.083C3.88517 24.5872 4.44245 25.0369 4.87628 25.3894L8.02911 21.5087C7.55583 21.1242 7.2061 20.837 6.91659 20.5475L3.38106 24.083ZM1.83226 22.3243C2.31568 22.9804 2.84047 23.5759 3.43547 24.1358L6.86218 20.4947C6.49343 20.1477 6.16785 19.7795 5.85766 19.3585L1.83226 22.3243ZM0.909124 20.9481C1.21437 21.4822 1.57243 21.978 1.84499 22.3414L5.84492 19.3413C5.60728 19.0245 5.3985 18.7266 5.25019 18.4671L0.909124 20.9481ZM0.815128 18.0513C0.26052 19.1608 0.544189 20.2266 0.843448 20.8253L5.31587 18.5898C5.4451 18.8484 5.67213 19.5174 5.28755 20.2868L0.815128 18.0513ZM1.64774 16.5555C1.28436 17.0804 0.979721 17.6562 0.753411 18.1844L5.34927 20.1537C5.46302 19.8882 5.61193 19.6136 5.75875 19.4015L1.64774 16.5555ZM8.94656 11.9871C5.96864 12.3966 3.29156 14.0705 1.6184 16.5989L5.78809 19.3582C6.66592 18.0316 8.07043 17.1546 9.62766 16.9405L8.94656 11.9871ZM11.6091 12.6622C10.8789 12.1145 9.85418 11.8008 8.79673 12.0123L9.77748 16.9152C9.51463 16.9678 9.28689 16.9468 9.11306 16.9033C8.93963 16.86 8.76891 16.782 8.6091 16.6622L11.6091 12.6622ZM14.1907 13.4944C13.2373 13.4944 12.3433 13.204 11.5937 12.6508L8.62447 16.6736C10.2559 17.8778 12.1963 18.4944 14.1907 18.4944V13.4944ZM16.7877 12.6508C16.0382 13.204 15.1442 13.4944 14.1907 13.4944V18.4944C16.1852 18.4944 18.1256 17.8778 19.757 16.6736L16.7877 12.6508ZM19.3429 11.9762C18.6282 11.9048 17.6359 12.0145 16.7724 12.6622L19.7724 16.6622C19.5547 16.8254 19.3491 16.8965 19.2108 16.9276C19.0716 16.9589 18.9501 16.9618 18.8458 16.9514L19.3429 11.9762ZM26.7489 16.5778C25.0602 14.0814 22.4284 12.3987 19.4349 11.9871L18.7538 16.9405C20.2955 17.1525 21.6885 18.0208 22.6075 19.3793L26.7489 16.5778Z" fill="url(#paint0_linear)" mask="url(#path-1-outside-1)"/>
<defs>
<linearGradient id="paint0_linear" x1="14.189" y1="3" x2="14.189" y2="26" gradientUnits="userSpaceOnUse">
<stop stop-color="#898DAF"/>
<stop offset="0.557292" stop-color="#B4C2DE"/>
<stop offset="1" stop-color="#898CAE"/>
</linearGradient>
</defs>
</svg>
