<svg width="32" height="32" viewBox="0 0 32 32" fill="none" xmlns="http://www.w3.org/2000/svg">
<path d="M32 16C32 20.2435 30.3143 24.3131 27.3137 27.3137C24.3131 30.3143 20.2435 32 16 32C11.7565 32 7.68687 30.3143 4.68629 27.3137C1.68571 24.3131 0 20.2435 0 16C0 15.6464 0.140476 15.3072 0.390524 15.0572C0.640573 14.8071 0.979711 14.6667 1.33333 14.6667C1.68696 14.6667 2.02609 14.8071 2.27614 15.0572C2.52619 15.3072 2.66667 15.6464 2.66667 16C2.66667 18.6371 3.44865 21.2149 4.91374 23.4076C6.37882 25.6003 8.46121 27.3092 10.8976 28.3184C13.3339 29.3276 16.0148 29.5916 18.6012 29.0771C21.1876 28.5627 23.5634 27.2928 25.4281 25.4281C27.2928 23.5634 28.5627 21.1876 29.0771 18.6012C29.5916 16.0148 29.3276 13.3339 28.3184 10.8976C27.3092 8.46121 25.6003 6.37882 23.4076 4.91374C21.2149 3.44865 18.6371 2.66667 16 2.66667C15.6464 2.66667 15.3072 2.52619 15.0572 2.27614C14.8071 2.02609 14.6667 1.68696 14.6667 1.33333C14.6667 0.979711 14.8071 0.640573 15.0572 0.390524C15.3072 0.140476 15.6464 0 16 0C20.2421 0.00458811 24.3091 1.69177 27.3086 4.69136C30.3082 7.69095 31.9954 11.7579 32 16ZM13.7027 14.6667H10.6667C10.313 14.6667 9.97391 14.8071 9.72386 15.0572C9.47381 15.3072 9.33333 15.6464 9.33333 16C9.33333 16.3536 9.47381 16.6928 9.72386 16.9428C9.97391 17.1929 10.313 17.3333 10.6667 17.3333H13.7027C13.9063 17.687 14.1886 17.989 14.5277 18.216C14.8668 18.443 15.2536 18.5889 15.6581 18.6424C16.0627 18.6959 16.4741 18.6556 16.8606 18.5245C17.247 18.3935 17.5981 18.1752 17.8867 17.8867C18.1752 17.5981 18.3935 17.247 18.5245 16.8606C18.6556 16.4741 18.6959 16.0627 18.6424 15.6581C18.5889 15.2536 18.443 14.8668 18.216 14.5277C17.989 14.1886 17.687 13.9063 17.3333 13.7027V9.33333C17.3333 8.97971 17.1929 8.64057 16.9428 8.39052C16.6928 8.14048 16.3536 8 16 8C15.6464 8 15.3072 8.14048 15.0572 8.39052C14.8071 8.64057 14.6667 8.97971 14.6667 9.33333V13.7027C14.2672 13.935 13.935 14.2672 13.7027 14.6667ZM2.436 11.712C2.69971 11.712 2.95749 11.6338 3.17676 11.4873C3.39603 11.3408 3.56692 11.1325 3.66784 10.8889C3.76876 10.6453 3.79516 10.3772 3.74371 10.1185C3.69227 9.85991 3.56528 9.62233 3.37881 9.43586C3.19234 9.24939 2.95476 9.1224 2.69612 9.07095C2.43748 9.01951 2.16939 9.04591 1.92576 9.14683C1.68212 9.24774 1.47388 9.41864 1.32737 9.63791C1.18087 9.85717 1.10267 10.115 1.10267 10.3787C1.10267 10.7323 1.24314 11.0714 1.49319 11.3215C1.74324 11.5715 2.08238 11.712 2.436 11.712ZM5.628 6.94267C5.89171 6.94267 6.1495 6.86447 6.36876 6.71796C6.58803 6.57145 6.75892 6.36321 6.85984 6.11958C6.96076 5.87594 6.98716 5.60785 6.93571 5.34921C6.88427 5.09057 6.75728 4.85299 6.57081 4.66652C6.38434 4.48005 6.14676 4.35307 5.88812 4.30162C5.62948 4.25017 5.36139 4.27658 5.11776 4.37749C4.87412 4.47841 4.66588 4.64931 4.51937 4.86857C4.37287 5.08784 4.29467 5.34562 4.29467 5.60933C4.29467 5.96295 4.43514 6.30209 4.68519 6.55214C4.93524 6.80219 5.27438 6.94267 5.628 6.94267ZM10.372 3.788C10.6357 3.788 10.8935 3.7098 11.1128 3.56329C11.332 3.41678 11.5029 3.20855 11.6038 2.96491C11.7048 2.72128 11.7312 2.45319 11.6797 2.19455C11.6283 1.9359 11.5013 1.69833 11.3148 1.51186C11.1283 1.32539 10.8908 1.1984 10.6321 1.14695C10.3735 1.09551 10.1054 1.12191 9.86176 1.22283C9.61812 1.32374 9.40988 1.49464 9.26337 1.71391C9.11687 1.93317 9.03867 2.19096 9.03867 2.45467C9.03867 2.80829 9.17914 3.14743 9.42919 3.39748C9.67924 3.64752 10.0184 3.788 10.372 3.788Z" fill="#4972C7"/>
</svg>
