<svg width="37" height="37" viewBox="0 0 37 37" fill="none" xmlns="http://www.w3.org/2000/svg">
<g clip-path="url(#clip0_34:39380)">
<path d="M28.8578 30.1661V36.2472L26.5335 33.7937L26.3157 33.5639L26.0979 33.7937L23.7736 36.2472V30.1661V29.9971L23.6292 29.9095C22.6036 29.2875 21.7984 28.3229 21.3425 27.1633C20.8864 26.0036 20.8064 24.7162 21.1152 23.5028C21.4241 22.2894 22.1036 21.2209 23.0447 20.4619C23.9851 19.7035 25.1342 19.2961 26.3131 19.3001C26.7658 19.3061 27.216 19.3737 27.6528 19.5011L28.0368 19.6131V19.2131V5.50006C28.0368 5.02775 27.8592 4.57173 27.5383 4.23308C27.217 3.89387 26.7776 3.70006 26.3157 3.70006H9.26314C8.8013 3.70006 8.36188 3.89387 8.04053 4.23308C7.71969 4.57173 7.5421 5.02775 7.5421 5.50006V31.0001V31.3001H7.8421H20.3315V33.7001H5.3V5.50006C5.3 4.38107 5.72127 3.31097 6.46643 2.5244C7.21107 1.73839 8.21745 1.30006 9.26314 1.30006H26.3157C27.3614 1.30006 28.3678 1.73839 29.1124 2.5244C29.8576 3.31097 30.2789 4.38108 30.2789 5.50006V21.0731V21.1827L30.3496 21.2665C30.8776 21.8925 31.2673 22.6363 31.489 23.4438C31.7106 24.2514 31.7584 25.1015 31.6287 25.9314C31.4991 26.7613 31.1953 27.5491 30.7406 28.2373C30.2886 28.9214 29.6964 29.4655 29.0036 29.8806L28.8578 29.9679V30.1379V30.1661ZM10.9842 19.3001H17.4894V21.7001H10.9842V19.3001ZM10.9842 13.3001H24.5947V15.7001H10.9842V13.3001ZM10.9842 7.30006H24.5947V9.70006H10.9842V7.30006ZM29.4578 25.0001C29.4578 24.3509 29.2755 23.7151 28.9323 23.1729C28.589 22.6306 28.0994 22.2053 27.5235 21.9535C26.9474 21.7016 26.3124 21.6354 25.6996 21.7641C25.087 21.8927 24.5265 22.2098 24.0883 22.6724C23.6502 23.1349 23.3535 23.7222 23.2334 24.3592C23.1134 24.9963 23.1749 25.6567 23.4107 26.2577C23.6466 26.8588 24.047 27.3751 24.5638 27.7396C25.0809 28.1043 25.6905 28.3001 26.3157 28.3001C27.1545 28.3001 27.9553 27.9482 28.5432 27.3277C29.1305 26.7077 29.4578 25.8702 29.4578 25.0001Z" fill="#29344A" stroke="#F2F5FA" stroke-width="0.6"/>
</g>
<defs>
<clipPath id="clip0_34:39380">
<rect width="37" height="37" fill="white"/>
</clipPath>
</defs>
</svg>
