<svg width="25" height="37" viewBox="0 0 25 37" fill="none" xmlns="http://www.w3.org/2000/svg">
<path fill-rule="evenodd" clip-rule="evenodd" d="M24.6434 7.23756C24.6431 7.22965 24.6428 7.22175 24.6423 7.21385C24.64 7.18251 24.6369 7.15174 24.6307 7.12126C24.6307 7.12126 24.6307 7.12126 24.6307 7.12097C24.6245 7.09049 24.6157 7.06028 24.6059 7.03092C24.6033 7.02358 24.6008 7.01624 24.598 7.0089C24.5875 6.98096 24.5757 6.95358 24.5621 6.92704C24.5613 6.92563 24.5607 6.92422 24.5598 6.92281C24.5452 6.89514 24.5282 6.86889 24.5099 6.8432C24.5054 6.83671 24.5006 6.8305 24.4958 6.82401C24.4763 6.7986 24.456 6.77404 24.4331 6.75118L17.8936 0.211715C17.8708 0.18885 17.8462 0.168525 17.8208 0.149048C17.8143 0.144249 17.8078 0.139168 17.8013 0.134651C17.7756 0.116302 17.7497 0.099365 17.7223 0.0849684C17.7203 0.0838392 17.7183 0.0832747 17.7166 0.0821455C17.6907 0.0685958 17.6636 0.0570219 17.6362 0.0465773C17.6286 0.0437545 17.6212 0.0412139 17.6133 0.0386733C17.584 0.0287933 17.5543 0.0200424 17.5236 0.013832C17.5233 0.013832 17.523 0.013832 17.523 0.013832C17.4928 0.00790404 17.462 0.00451659 17.431 0.0022583C17.4231 0.00197601 17.4152 0.00141143 17.4073 0.00112915C17.3991 0.000846865 17.3909 0 17.3827 0H1.00976C0.61061 0 0.287109 0.323501 0.287109 0.722655V31.654C0.287109 32.0531 0.61061 32.3766 1.00976 32.3766H11.8897V36.2773C11.8897 36.5401 12.0325 36.7823 12.2626 36.9096C12.4929 37.0369 12.7738 37.0293 12.9965 36.8896L15.7488 35.1628L18.5011 36.8896C18.6183 36.9629 18.7518 36.9999 18.8853 36.9999C19.0056 36.9999 19.1261 36.97 19.2351 36.9099C19.4651 36.7826 19.608 36.5404 19.608 36.2773V32.3766H23.9219C24.321 32.3766 24.6445 32.0531 24.6445 31.654V7.26212C24.6445 7.25393 24.6437 7.24574 24.6434 7.23756ZM18.1054 2.46747L22.1773 6.53946H18.1054V2.46747ZM11.5331 22.3207C11.4823 22.1827 11.3996 21.9571 11.3976 21.8648C11.4541 21.7948 11.65 21.6709 11.77 21.5952C12.0274 21.4326 12.3193 21.248 12.531 20.9595C12.7447 20.6679 12.8317 20.3312 12.9084 20.0342C12.942 19.9043 12.9962 19.6946 13.0425 19.6153C13.0679 19.6099 13.1213 19.6023 13.2215 19.6023C13.302 19.6023 13.392 19.6068 13.4874 19.6116C13.5969 19.617 13.7099 19.6226 13.8279 19.6226C14.0881 19.6226 14.2981 19.5933 14.4887 19.5297C14.8215 19.4191 15.0877 19.2048 15.3226 19.0157C15.4524 18.9113 15.6698 18.7362 15.7454 18.7255C15.8281 18.7362 16.0452 18.9113 16.1751 19.0157C16.4099 19.2048 16.6764 19.4191 17.0092 19.5297C17.1998 19.5933 17.4095 19.6226 17.6701 19.6226C17.7878 19.6226 17.901 19.617 18.0102 19.6116C18.1056 19.6068 18.1957 19.6023 18.2764 19.6023C18.3766 19.6023 18.4297 19.6096 18.4554 19.6153C18.5017 19.6946 18.5559 19.9043 18.5892 20.0342C18.666 20.3312 18.7532 20.6679 18.9669 20.9595C19.1783 21.248 19.4702 21.4324 19.7279 21.5952C19.8476 21.6712 20.0435 21.7948 20.1 21.8648C20.098 21.9571 20.0153 22.1827 19.9648 22.3207C19.8572 22.6135 19.7356 22.9454 19.7356 23.3132C19.7356 23.6811 19.8572 24.013 19.9645 24.306C20.0153 24.4441 20.098 24.6696 20.1 24.7619C20.0435 24.8319 19.8476 24.9556 19.7279 25.0315C19.4702 25.1941 19.1783 25.3787 18.9669 25.6672C18.7532 25.9588 18.666 26.2956 18.5892 26.5926C18.5559 26.7221 18.5014 26.9322 18.4554 27.0115C18.4297 27.0168 18.3766 27.0245 18.2764 27.0245C18.1957 27.0245 18.1056 27.02 18.0102 27.0152C17.901 27.0098 17.7878 27.0041 17.6701 27.0041C17.4095 27.0041 17.1998 27.0335 17.0092 27.097C16.6764 27.2077 16.4099 27.4222 16.1751 27.6111C16.0472 27.7144 15.8338 27.8857 15.7488 27.901C15.6638 27.8857 15.4507 27.7144 15.3228 27.6111C15.0877 27.4222 14.8215 27.2077 14.4887 27.097C14.2981 27.0335 14.0881 27.0041 13.8279 27.0041C13.7101 27.0041 13.5969 27.0098 13.4874 27.0152C13.3923 27.02 13.3022 27.0245 13.2215 27.0245C13.1213 27.0245 13.0682 27.0168 13.0425 27.0115C12.9962 26.9322 12.942 26.7224 12.9084 26.5926C12.8319 26.2956 12.7447 25.9588 12.531 25.6672C12.3196 25.3787 12.0277 25.1941 11.77 25.0315C11.6503 24.9559 11.4544 24.8319 11.3979 24.7619C11.3999 24.6699 11.4826 24.4441 11.5331 24.306C11.6407 24.0133 11.7624 23.6813 11.7624 23.3135C11.7624 22.9454 11.6404 22.6135 11.5331 22.3207ZM18.1627 34.9708L16.133 33.6975C15.8981 33.5504 15.5995 33.5504 15.3646 33.6975L13.335 34.9708V28.4675C13.4118 28.4653 13.4871 28.4624 13.5602 28.4588C13.6559 28.4537 13.7463 28.4492 13.8279 28.4492C13.956 28.4492 14.0108 28.461 14.0319 28.4681C14.118 28.4969 14.2835 28.6301 14.4164 28.7371C14.7538 29.0087 15.1735 29.3466 15.7488 29.3466C16.3241 29.3466 16.7439 29.0087 17.0812 28.7371C17.2142 28.6301 17.3796 28.4969 17.4654 28.4684C17.4869 28.4613 17.5416 28.4495 17.6698 28.4495C17.7514 28.4495 17.8417 28.454 17.9374 28.4588C18.0105 28.4624 18.0859 28.4655 18.1624 28.4675V34.9708H18.1627ZM19.608 30.9313V27.8852C19.8228 27.5933 19.9126 27.2478 19.9885 26.9542C20.0283 26.8 20.0828 26.5892 20.1325 26.5217C20.1819 26.454 20.3656 26.3379 20.4997 26.2533C20.8554 26.0286 21.298 25.7488 21.4739 25.2198C21.6478 24.6979 21.4668 24.2047 21.3214 23.8084C21.2554 23.6286 21.1806 23.4245 21.1806 23.3132C21.1806 23.202 21.2554 22.9982 21.3214 22.8184C21.4668 22.4221 21.6478 21.9286 21.4739 21.4067C21.298 20.878 20.8554 20.5982 20.4997 20.3735C20.3656 20.2888 20.1819 20.1725 20.1325 20.1053C20.0828 20.0376 20.0283 19.8267 19.9885 19.6726C19.8846 19.2703 19.7553 18.7695 19.3127 18.4449C18.9604 18.1869 18.5525 18.157 18.2761 18.157C18.1593 18.157 18.0464 18.1626 17.9374 18.1683C17.8417 18.1731 17.7514 18.1776 17.6701 18.1776C17.5416 18.1776 17.4869 18.1657 17.4657 18.1587C17.3799 18.1302 17.2145 17.9969 17.0815 17.8897C16.7439 17.6184 16.3241 17.2805 15.7488 17.2805C15.1738 17.2805 14.7538 17.6184 14.4164 17.8897C14.2835 17.9966 14.118 18.1302 14.0322 18.1587C14.0111 18.1657 13.956 18.1776 13.8279 18.1776C13.7466 18.1776 13.6559 18.1731 13.5602 18.168C13.4513 18.1626 13.3387 18.157 13.2215 18.157C12.9454 18.157 12.5375 18.1869 12.1855 18.4449C11.7426 18.7695 11.613 19.2703 11.5091 19.6726C11.4693 19.8267 11.4149 20.0376 11.3655 20.105C11.3158 20.1725 11.132 20.2888 10.9979 20.3735C10.6422 20.5982 10.1999 20.878 10.0238 21.4067C9.84986 21.9289 10.0308 22.4221 10.1762 22.8184C10.2422 22.9982 10.317 23.202 10.317 23.3132C10.317 23.4245 10.2422 23.6286 10.1762 23.8084C10.0308 24.2047 9.84986 24.6979 10.0238 25.2201C10.1999 25.7488 10.6425 26.0286 10.9979 26.2533C11.1323 26.3379 11.3158 26.4542 11.3655 26.5217C11.4149 26.5892 11.4693 26.8 11.5091 26.9542C11.5851 27.2478 11.6751 27.5936 11.89 27.8852V30.9313H1.73242V1.44531H16.66V7.26212C16.66 7.66127 16.9835 7.98477 17.3827 7.98477H23.1992V30.9313H19.608Z" fill="#C8224A"/>
<path fill-rule="evenodd" clip-rule="evenodd" d="M4.54102 7.98486H13.8514C14.2503 7.98486 14.5741 7.66136 14.5741 7.26221C14.5741 6.86305 14.2503 6.53955 13.8514 6.53955H4.54102C4.14186 6.53955 3.81836 6.86305 3.81836 7.26221C3.81836 7.66136 4.14214 7.98486 4.54102 7.98486Z" fill="#C8224A"/>
<path fill-rule="evenodd" clip-rule="evenodd" d="M20.4716 10.187H4.54102C4.14186 10.187 3.81836 10.5105 3.81836 10.9097C3.81836 11.3088 4.14186 11.6323 4.54102 11.6323H20.4716C20.8708 11.6323 21.1943 11.3088 21.1943 10.9097C21.1943 10.5105 20.8708 10.187 20.4716 10.187Z" fill="#C8224A"/>
<path fill-rule="evenodd" clip-rule="evenodd" d="M17.581 13.835H4.54102C4.14186 13.835 3.81836 14.1587 3.81836 14.5576C3.81836 14.9568 4.14186 15.2803 4.54102 15.2803H17.581C17.9802 15.2803 18.3037 14.9568 18.3037 14.5576C18.3037 14.1587 17.9802 13.835 17.581 13.835Z" fill="#C8224A"/>
<path fill-rule="evenodd" clip-rule="evenodd" d="M20.4727 13.835C20.0746 13.835 19.75 14.1596 19.75 14.5576C19.75 14.9556 20.0746 15.2803 20.4727 15.2803C20.871 15.2803 21.1953 14.9556 21.1953 14.5576C21.1953 14.1596 20.871 13.835 20.4727 13.835Z" fill="#C8224A"/>
</svg>
