<svg width="44" height="44" viewBox="0 0 44 44" fill="none" xmlns="http://www.w3.org/2000/svg">
<path d="M15.7109 27.9951L27.7009 16.0051" stroke="white" stroke-width="1.5" stroke-linecap="round" stroke-linejoin="round"/>
<path d="M16.464 19.0117C17.7094 19.0117 18.719 18.0021 18.719 16.7567C18.719 15.5113 17.7094 14.5017 16.464 14.5017C15.2186 14.5017 14.209 15.5113 14.209 16.7567C14.209 18.0021 15.2186 19.0117 16.464 19.0117Z" stroke="white" stroke-width="1.5" stroke-linecap="round" stroke-linejoin="round"/>
<path d="M28.4542 29.4983C29.6996 29.4983 30.7092 28.4886 30.7092 27.2432C30.7092 25.9978 29.6996 24.9883 28.4542 24.9883C27.2088 24.9883 26.1992 25.9978 26.1992 27.2432C26.1992 28.4886 27.2088 29.4983 28.4542 29.4983Z" stroke="white" stroke-width="1.5" stroke-linecap="round" stroke-linejoin="round"/>
<path d="M21.9993 40.3334C32.1246 40.3334 40.3327 32.1253 40.3327 22.0001C40.3327 11.8749 32.1246 3.66675 21.9993 3.66675C11.8741 3.66675 3.66602 11.8749 3.66602 22.0001C3.66602 32.1253 11.8741 40.3334 21.9993 40.3334Z" stroke="white" stroke-width="1.5" stroke-linecap="round" stroke-linejoin="round"/>
</svg>
