<svg width="17" height="17" viewBox="0 0 17 17" fill="none" xmlns="http://www.w3.org/2000/svg">
<g clip-path="url(#clip0)">
<path d="M10.413 6.95008C10.2241 7.13895 9.91799 7.13895 9.72906 6.95008L8.97846 6.19947V8.95739C8.97846 9.2245 8.76197 9.441 8.49486 9.441C8.22775 9.441 8.01126 9.2245 8.01126 8.95739V6.19947L7.26039 6.95034C7.16592 7.04475 7.04218 7.09199 6.91843 7.09199C6.79468 7.09199 6.67093 7.04475 6.57647 6.95034C6.3876 6.76147 6.3876 6.4553 6.57647 6.26643L8.1529 4.68999C8.34183 4.50112 8.64795 4.50112 8.83687 4.68999L10.413 6.26616C10.6019 6.45503 10.6019 6.7612 10.413 6.95008Z" fill="#29344A"/>
<path d="M0.994372 7.302L8.15467 0.141655C8.34359 -0.0472182 8.64971 -0.0472182 8.83864 0.141655L15.999 7.302C16.0897 7.3927 16.1406 7.5157 16.1406 7.64396V16.5164C16.1406 16.7835 15.9241 17 15.657 17H1.33633C1.06922 17 0.852731 16.7835 0.852731 16.5164V7.64396C0.852731 7.5157 0.90367 7.39265 0.994372 7.302ZM15.1734 8.87241L11.3445 12.7012L15.1734 15.5532V8.87241ZM10.4465 13.2383L6.54659 13.2385L2.79508 16.0328H14.1982L10.4465 13.2383ZM5.64876 12.7012L1.81993 8.87241V15.5532L5.64876 12.7012ZM8.49668 1.16753L1.98978 7.67442L6.58662 12.2713L10.4068 12.2712L15.0036 7.67448L8.49668 1.16753Z" fill="#29344A"/>
</g>
<defs>
<clipPath id="clip0">
<rect width="17" height="17" fill="white" transform="matrix(-1 0 0 1 17 0)"/>
</clipPath>
</defs>
</svg>
