<svg width="34" height="34" viewBox="0 0 34 34" fill="none" xmlns="http://www.w3.org/2000/svg">
<path d="M23.9335 7.08342V7.23342H24.0835H29.7502C30.4493 7.23342 31.0168 7.80092 31.0168 8.50008V28.3334C31.0168 29.0326 30.4493 29.6001 29.7502 29.6001H4.25016C3.55101 29.6001 2.9835 29.0326 2.9835 28.3334V8.50008C2.9835 7.80092 3.55101 7.23342 4.25016 7.23342H9.91683H10.0668V7.08342V2.83341C10.0668 2.13426 10.6343 1.56675 11.3335 1.56675H22.6668C23.366 1.56675 23.9335 2.13426 23.9335 2.83341V7.08342ZM28.4835 9.91675V9.76675H28.3335H5.66683H5.51683V9.91675V26.9167V27.0667H5.66683H28.3335H28.4835V26.9167V9.91675ZM18.2668 17.0001V17.1501H18.4168H21.2502C21.9497 17.1501 22.5168 17.7172 22.5168 18.4167C22.5168 19.1163 21.9497 19.6834 21.2502 19.6834H18.4154H18.2654L18.2654 19.8335L18.2664 22.6663C18.2666 23.3661 17.6994 23.9334 16.9997 23.9334C16.3003 23.9334 15.7333 23.3666 15.733 22.6672L15.7321 19.8334L15.732 19.6834H15.5821H12.7502C12.0506 19.6834 11.4835 19.1163 11.4835 18.4167C11.4835 17.7172 12.0506 17.1501 12.7502 17.1501H15.5835H15.7335V17.0001V14.1667C15.7335 13.4672 16.3006 12.9001 17.0002 12.9001C17.6997 12.9001 18.2668 13.4672 18.2668 14.1667V17.0001ZM21.4002 4.25008V4.10008H21.2502H12.7502H12.6002V4.25008V7.08342V7.23342H12.7502H21.2502H21.4002V7.08342V4.25008Z" fill="#4972C7" stroke="#EDF2F9" stroke-width="0.3"/>
</svg>
