<svg width="18" height="18" viewBox="0 0 18 18" fill="none" xmlns="http://www.w3.org/2000/svg">
<path fill-rule="evenodd" clip-rule="evenodd" d="M5.25232 0.64959C6.47153 0.638995 7.64613 1.10769 8.52313 1.95472L8.5232 1.95466L8.53243 1.96383L9.82243 3.24633C10.1749 3.59678 10.1766 4.16663 9.82614 4.51912C9.47569 4.87162 8.90585 4.87328 8.55335 4.52283L7.26828 3.24523C6.73124 2.72874 6.0132 2.44305 5.26796 2.44952C4.5207 2.45602 3.80588 2.75575 3.27747 3.28416C2.74905 3.81257 2.44932 4.52739 2.44283 5.27465C2.43636 6.01948 2.72174 6.73715 3.2377 7.2741L5.48179 9.51819L5.4819 9.5183C5.77083 9.80733 6.11853 10.0308 6.50144 10.1737C6.88434 10.3165 7.29348 10.3753 7.70111 10.3461C8.10874 10.3169 8.50533 10.2004 8.86397 10.0045C9.22261 9.80854 9.53491 9.53776 9.7797 9.2105C10.0774 8.81248 10.6414 8.73117 11.0395 9.0289C11.4375 9.32662 11.5188 9.89064 11.2211 10.2887C10.8217 10.8226 10.3121 11.2644 9.72699 11.5841C9.14184 11.9038 8.49478 12.0939 7.82969 12.1415C7.16461 12.1892 6.49706 12.0932 5.87233 11.8602C5.24764 11.6271 4.68038 11.2625 4.20899 10.791L4.20888 10.7909L1.95899 8.54098L1.94803 8.52982C1.101 7.65282 0.632301 6.47822 0.642897 5.25901C0.65349 4.03979 1.14253 2.87352 2.00467 2.01137C2.86682 1.14922 4.0331 0.660185 5.25232 0.64959ZM10.1704 5.85758C10.8355 5.80995 11.5031 5.90591 12.1278 6.13896C12.7525 6.37198 13.3198 6.73662 13.7911 7.20814L13.7913 7.20825L16.0411 9.45814L16.0521 9.46929C16.8991 10.3463 17.3678 11.5209 17.3572 12.7401C17.3467 13.9593 16.8576 15.1256 15.9955 15.9878C15.1333 16.8499 13.967 17.3389 12.7478 17.3495C11.5286 17.3601 10.354 16.8914 9.47701 16.0444L9.46586 16.0334L8.18336 14.7509C7.83189 14.3995 7.83189 13.8296 8.18336 13.4781C8.53483 13.1267 9.10468 13.1267 9.45615 13.4781L10.7327 14.7547C11.2697 15.2707 11.9874 15.5561 12.7322 15.5496C13.4794 15.5431 14.1943 15.2434 14.7227 14.715C15.2511 14.1865 15.5508 13.4717 15.5573 12.7245C15.5638 11.9796 15.2784 11.262 14.7624 10.725L12.5184 8.48093L12.5182 8.48081C12.2293 8.19178 11.8816 7.96827 11.4987 7.82544C11.1158 7.68261 10.7067 7.62379 10.299 7.65298C9.8914 7.68218 9.49482 7.7987 9.13618 7.99464C8.77754 8.19058 8.46523 8.46136 8.22044 8.78861C7.92272 9.18664 7.3587 9.26795 6.96067 8.97022C6.56265 8.6725 6.48134 8.10848 6.77907 7.71045C7.17846 7.17651 7.68801 6.73471 8.27316 6.41502C8.85831 6.09532 9.50537 5.90522 10.1704 5.85758Z" fill="black"/>
<path fill-rule="evenodd" clip-rule="evenodd" d="M5.25232 0.64959C6.47153 0.638995 7.64613 1.10769 8.52313 1.95472L8.5232 1.95466L8.53243 1.96383L9.82243 3.24633C10.1749 3.59678 10.1766 4.16663 9.82614 4.51912C9.47569 4.87162 8.90585 4.87328 8.55335 4.52283L7.26828 3.24523C6.73124 2.72874 6.0132 2.44305 5.26796 2.44952C4.5207 2.45602 3.80588 2.75575 3.27747 3.28416C2.74905 3.81257 2.44932 4.52739 2.44283 5.27465C2.43636 6.01948 2.72174 6.73715 3.2377 7.2741L5.48179 9.51819L5.4819 9.5183C5.77083 9.80733 6.11853 10.0308 6.50144 10.1737C6.88434 10.3165 7.29348 10.3753 7.70111 10.3461C8.10874 10.3169 8.50533 10.2004 8.86397 10.0045C9.22261 9.80854 9.53491 9.53776 9.7797 9.2105C10.0774 8.81248 10.6414 8.73117 11.0395 9.0289C11.4375 9.32662 11.5188 9.89064 11.2211 10.2887C10.8217 10.8226 10.3121 11.2644 9.72699 11.5841C9.14184 11.9038 8.49478 12.0939 7.82969 12.1415C7.16461 12.1892 6.49706 12.0932 5.87233 11.8602C5.24764 11.6271 4.68038 11.2625 4.20899 10.791L4.20888 10.7909L1.95899 8.54098L1.94803 8.52982C1.101 7.65282 0.632301 6.47822 0.642897 5.25901C0.65349 4.03979 1.14253 2.87352 2.00467 2.01137C2.86682 1.14922 4.0331 0.660185 5.25232 0.64959ZM10.1704 5.85758C10.8355 5.80995 11.5031 5.90591 12.1278 6.13896C12.7525 6.37198 13.3198 6.73662 13.7911 7.20814L13.7913 7.20825L16.0411 9.45814L16.0521 9.46929C16.8991 10.3463 17.3678 11.5209 17.3572 12.7401C17.3467 13.9593 16.8576 15.1256 15.9955 15.9878C15.1333 16.8499 13.967 17.3389 12.7478 17.3495C11.5286 17.3601 10.354 16.8914 9.47701 16.0444L9.46586 16.0334L8.18336 14.7509C7.83189 14.3995 7.83189 13.8296 8.18336 13.4781C8.53483 13.1267 9.10468 13.1267 9.45615 13.4781L10.7327 14.7547C11.2697 15.2707 11.9874 15.5561 12.7322 15.5496C13.4794 15.5431 14.1943 15.2434 14.7227 14.715C15.2511 14.1865 15.5508 13.4717 15.5573 12.7245C15.5638 11.9796 15.2784 11.262 14.7624 10.725L12.5184 8.48093L12.5182 8.48081C12.2293 8.19178 11.8816 7.96827 11.4987 7.82544C11.1158 7.68261 10.7067 7.62379 10.299 7.65298C9.8914 7.68218 9.49482 7.7987 9.13618 7.99464C8.77754 8.19058 8.46523 8.46136 8.22044 8.78861C7.92272 9.18664 7.3587 9.26795 6.96067 8.97022C6.56265 8.6725 6.48134 8.10848 6.77907 7.71045C7.17846 7.17651 7.68801 6.73471 8.27316 6.41502C8.85831 6.09532 9.50537 5.90522 10.1704 5.85758Z" fill="url(#paint0_linear)"/>
<defs>
<linearGradient id="paint0_linear" x1="11.1853" y1="5.34157" x2="4.68425" y2="18.682" gradientUnits="userSpaceOnUse">
<stop stop-color="#8597BF"/>
<stop offset="1" stop-color="#CFD7EC"/>
</linearGradient>
</defs>
</svg>
