<svg width="18" height="21" viewBox="0 0 18 21" fill="none" xmlns="http://www.w3.org/2000/svg">
<path d="M16.9335 0.299805C17.4809 0.299805 17.9252 0.756765 17.9252 1.3198V19.6798C17.9252 20.2428 17.4809 20.6998 16.9335 20.6998H3.0502C2.5028 20.6998 2.05853 20.2428 2.05853 19.6798V17.6398H0.0751953V15.5998H2.05853V13.5598H0.0751953V11.5198H2.05853V9.4798H0.0751953V7.4398H2.05853V5.3998H0.0751953V3.3598H2.05853V1.3198C2.05853 0.756765 2.5028 0.299805 3.0502 0.299805H16.9335ZM10.9835 6.4198H9.0002V9.4798H6.0252V11.5198H8.9992L9.0002 14.5798H10.9835L10.9825 11.5198H13.9585V9.4798H10.9835V6.4198Z" fill="#5C8AEB"/>
</svg>
