<svg width="19" height="19" viewBox="0 0 19 19" fill="none" xmlns="http://www.w3.org/2000/svg">
<g clip-path="url(#clip0_34:41035)">
<path d="M18.3379 8.33128L11.7713 1.23223C11.4819 0.919108 11.1309 0.669248 10.7402 0.498361C10.3496 0.327475 9.92781 0.239258 9.50143 0.239258C9.07504 0.239258 8.65328 0.327475 8.26264 0.498361C7.872 0.669248 7.52094 0.919108 7.23154 1.23223L0.676494 8.32896C0.388817 8.61859 0.227419 9.01028 0.227539 9.4185V16.455C0.227539 17.0698 0.471775 17.6594 0.906519 18.0942C1.34126 18.5289 1.9309 18.7731 2.54572 18.7731H5.63663V14.1368C5.63922 13.4427 5.82929 12.7622 6.18675 12.1673C6.5442 11.5723 7.05577 11.085 7.66736 10.7569C7.70599 10.7352 7.74463 10.7136 7.78481 10.6927C7.92909 10.6209 8.07774 10.5581 8.2299 10.505C8.33422 10.4671 8.44008 10.4346 8.54904 10.406C8.65799 10.3775 8.78936 10.352 8.91299 10.3288C8.98099 10.318 9.04436 10.2948 9.1139 10.2878C9.2329 10.2762 9.34572 10.2739 9.46549 10.2731C9.47786 10.2731 9.48868 10.2693 9.50027 10.2693H9.51417C9.75337 10.2711 9.99188 10.2952 10.2266 10.3411C10.2529 10.3466 10.2792 10.3489 10.3039 10.3543C10.5242 10.4024 10.7398 10.4696 10.9484 10.5552C10.9777 10.5668 11.0071 10.5776 11.0364 10.5907C11.236 10.6773 11.4278 10.7807 11.6098 10.8998L11.6956 10.957C11.8723 11.0798 12.0385 11.2171 12.1924 11.3673C12.2172 11.3913 12.2404 11.4152 12.2643 11.44C12.4152 11.5949 12.5532 11.7618 12.6769 11.9391L12.7295 12.0164C12.8511 12.2011 12.9568 12.3957 13.0455 12.5983C13.0556 12.623 13.0641 12.6477 13.0741 12.6755C13.1624 12.8891 13.2312 13.1103 13.2797 13.3362C13.2797 13.3532 13.2851 13.371 13.2882 13.388C13.3379 13.6345 13.3632 13.8853 13.3639 14.1368V18.7731H16.4548C17.0696 18.7731 17.6593 18.5289 18.094 18.0942C18.5288 17.6594 18.773 17.0698 18.773 16.455V9.40691C18.7732 9.00547 18.6172 8.61971 18.3379 8.33128Z" fill="#5C8AEB"/>
<path d="M9.49982 11.8184C8.885 11.8184 8.29536 12.0626 7.86062 12.4973C7.42588 12.9321 7.18164 13.5217 7.18164 14.1365V18.7729H11.818V14.1365C11.818 13.5217 11.5738 12.9321 11.139 12.4973C10.7043 12.0626 10.1146 11.8184 9.49982 11.8184Z" fill="#5C8AEB"/>
</g>
<defs>
<clipPath id="clip0_34:41035">
<rect width="18.5455" height="18.5455" fill="white" transform="translate(0.227539 0.227539)"/>
</clipPath>
</defs>
</svg>
