<svg width="10" height="7" viewBox="0 0 10 7" fill="none" xmlns="http://www.w3.org/2000/svg">
<path d="M9.09038 2.08035L9.09027 2.08047L5.40098 5.91062C5.40094 5.91065 5.40091 5.91069 5.40087 5.91073C5.18231 6.13797 4.81786 6.13776 4.59911 5.91131L4.59896 5.91115L0.9096 2.0809L0.909486 2.08078C0.69215 1.85465 0.692151 1.49016 0.909486 1.26403L0.909617 1.2639C1.13046 1.0347 1.49094 1.03448 1.71157 1.26397C1.71159 1.26399 1.71161 1.26401 1.71163 1.26403L5.00013 4.67778L8.28865 1.26361L9.09038 2.08035ZM9.09038 2.08035C9.30779 1.85415 9.3076 1.49019 9.09051 1.26374L9.09038 1.26361M9.09038 2.08035L9.09038 1.26361M9.09038 1.26361C8.86986 1.03417 8.50932 1.03413 8.28876 1.26349L9.09038 1.26361Z" fill="white" stroke="white" stroke-width="0.3"/>
</svg>
