<svg width="7" height="13" viewBox="0 0 7 13" fill="none" xmlns="http://www.w3.org/2000/svg">
<path d="M4.23435 8.44225V8.14722C4.21726 7.40964 4.49066 6.77041 5.10581 6.09839C5.75514 5.40999 6.57534 4.59046 6.57534 3.34477C6.57534 1.98436 5.533 0.787842 3.27745 0.787842C2.06423 0.787842 1.05607 1.11565 0.423828 1.45986L1.0048 3.24643C1.44908 2.9514 2.13258 2.75471 2.69647 2.75471C3.55085 2.7711 3.94386 3.16448 3.94386 3.73815C3.94386 4.27904 3.49959 4.81993 2.95278 5.45916C2.18384 6.32786 1.89336 7.18017 1.94462 8.01609L1.96171 8.44225H4.23435ZM3.03822 12.2121C3.97804 12.2121 4.5761 11.5729 4.5761 10.7205C4.55901 9.83545 3.96095 9.229 3.03822 9.229C2.14967 9.229 1.51743 9.83545 1.51743 10.7205C1.51743 11.5729 2.13258 12.2121 3.03822 12.2121Z" fill="#4972C7"/>
</svg>
