<svg width="7" height="17" viewBox="0 0 7 17" fill="none" xmlns="http://www.w3.org/2000/svg">
<path d="M3.818 11.776H2.102L2.058 11.226C1.91133 9.95 2.366 8.68133 3.422 7.42C3.96467 6.77467 4.35333 6.232 4.588 5.792C4.83733 5.33733 4.962 4.87533 4.962 4.406C4.962 3.834 4.77867 3.37933 4.412 3.042C4.06 2.69 3.54667 2.514 2.872 2.514C1.96267 2.514 1.222 2.74133 0.65 3.196L0.122 1.81C0.914 1.20867 1.96267 0.907999 3.268 0.907999C4.456 0.907999 5.36533 1.22333 5.996 1.854C6.62667 2.48467 6.942 3.25467 6.942 4.164C6.942 4.83867 6.78067 5.462 6.458 6.034C6.15 6.59133 5.68067 7.23667 5.05 7.97C4.15533 9.05533 3.73733 10.1407 3.796 11.226L3.818 11.776ZM2.938 16.242H2.916C2.54933 16.242 2.24133 16.11 1.992 15.846C1.75733 15.582 1.64 15.2593 1.64 14.878C1.64 14.4673 1.75733 14.1373 1.992 13.888C2.24133 13.624 2.55667 13.492 2.938 13.492C3.334 13.492 3.64933 13.624 3.884 13.888C4.11867 14.1373 4.236 14.4673 4.236 14.878C4.236 15.274 4.11867 15.604 3.884 15.868C3.64933 16.1173 3.334 16.242 2.938 16.242Z" fill="#E6ECF9"/>
</svg>
