<svg width="30" height="30" viewBox="0 0 30 30" fill="none" xmlns="http://www.w3.org/2000/svg">
<g clip-path="url(#clip0_34:39814)">
<path d="M23.4911 24.4589V29.6235L21.4456 27.4644L21.3367 27.3494L21.2278 27.4644L19.1823 29.6235V24.4589V24.3744L19.1101 24.3306C18.2604 23.8153 17.5945 23.0169 17.2176 22.0584C16.8406 21.0997 16.7745 20.036 17.0297 19.0332C17.285 18.0305 17.8468 17.1465 18.626 16.5181C19.4049 15.8899 20.3575 15.552 21.3354 15.5554C21.7111 15.5604 22.0846 15.6164 22.4469 15.7221L22.6389 15.7781V15.5781V4.45944C22.6389 4.09964 22.5036 3.75304 22.2604 3.49628C22.0168 3.23925 21.6848 3.09322 21.3367 3.09322H7.51031C7.16225 3.09322 6.8302 3.23925 6.58669 3.49628C6.34345 3.75304 6.20811 4.09964 6.20811 4.45944V25.1351V25.2851H6.35811H16.5779V27.4175H4.20371V4.45944C4.20371 3.529 4.55395 2.6382 5.17502 1.98262C5.79583 1.32731 6.63605 0.960791 7.51031 0.960791H21.3367C22.211 0.960791 23.0512 1.32731 23.672 1.98262C24.2931 2.6382 24.6433 3.529 24.6433 4.45944V17.0862V17.141L24.6787 17.1829C25.1157 17.701 25.4379 18.3162 25.6212 18.9838C25.8044 19.6513 25.8439 20.3539 25.7367 21.0398C25.6295 21.7257 25.3784 22.3771 25.0022 22.9465C24.6274 23.5138 24.1367 23.9643 23.564 24.3074L23.4911 24.3511V24.4361V24.4589ZM8.81252 15.5554H14.2735V17.6878H8.81252V15.5554ZM8.81252 10.6905H20.0345V12.823H8.81252V10.6905ZM8.81252 5.82566H20.0345V7.95809H8.81252V5.82566ZM23.7911 20.2703C23.7911 19.7612 23.6482 19.2631 23.3795 18.8386C23.1108 18.4141 22.728 18.082 22.2787 17.8855C21.8292 17.689 21.3341 17.6374 20.8563 17.7378C20.3787 17.8381 19.9411 18.0854 19.5984 18.4471C19.2558 18.8087 19.0233 19.2685 18.9292 19.7679C18.8351 20.2673 18.8833 20.785 19.0681 21.2559C19.2529 21.7268 19.5663 22.1306 19.97 22.4153C20.3738 22.7001 20.8494 22.8527 21.3367 22.8527C21.9904 22.8527 22.6155 22.5785 23.0751 22.0934C23.5344 21.6086 23.7911 20.9526 23.7911 20.2703Z" fill="#4972C7" stroke="#F2F5FA" stroke-width="0.3"/>
</g>
<defs>
<clipPath id="clip0_34:39814">
<rect width="30" height="30" fill="white"/>
</clipPath>
</defs>
</svg>
