<svg width="25" height="25" viewBox="0 0 25 25" fill="none" xmlns="http://www.w3.org/2000/svg">
<g clip-path="url(#clip0_109:30025)">
<path d="M21.3952 15.1277C20.1707 15.1277 18.9684 14.9362 17.8291 14.5597C17.2708 14.3693 16.5845 14.544 16.2438 14.8939L13.995 16.5915C11.387 15.1994 9.78057 13.5934 8.40745 11.0051L10.0551 8.81484C10.4832 8.38734 10.6367 7.76286 10.4528 7.17693C10.0746 6.03161 9.88255 4.8299 9.88255 3.6049C9.8826 2.71995 9.16266 2 8.27776 2H4.60484C3.71995 2 3 2.71995 3 3.60484C3 13.7481 11.252 22 21.3952 22C22.2801 22 23.0001 21.2801 23.0001 20.3952V16.7325C23 15.8477 22.2801 15.1277 21.3952 15.1277Z" fill="white"/>
</g>
<defs>
<clipPath id="clip0_109:30025">
<rect width="20" height="20" fill="white" transform="translate(3 2)"/>
</clipPath>
</defs>
</svg>
