<svg width="25" height="25" viewBox="0 0 25 25" fill="none" xmlns="http://www.w3.org/2000/svg">
<path fill-rule="evenodd" clip-rule="evenodd" d="M20.7921 4.17509C18.5994 1.97983 15.6833 0.77033 12.5767 0.769043C6.17515 0.769043 0.965227 5.97882 0.962652 12.3821C0.961794 14.429 1.49652 16.4271 2.5129 18.1884L0.865234 24.2065L7.02201 22.5915C8.71845 23.5169 10.6283 24.0046 12.572 24.0051H12.5768C18.9777 24.0051 24.1881 18.7949 24.1906 12.3914C24.1919 9.28802 22.9849 6.37021 20.7921 4.17509ZM12.5767 22.0437H12.5727C10.8406 22.043 9.14189 21.5775 7.65959 20.6982L7.30726 20.4889L3.65373 21.4474L4.62891 17.8853L4.39931 17.52C3.433 15.9831 2.92274 14.2067 2.9236 12.3828C2.9256 7.06057 7.25604 2.73056 12.5805 2.73056C15.1589 2.73142 17.5826 3.73678 19.4051 5.5614C21.2276 7.38602 22.2306 9.8113 22.2298 12.3907C22.2275 17.7133 17.8973 22.0437 12.5767 22.0437ZM17.8716 14.8141C17.5815 14.6687 16.1547 13.9669 15.8886 13.87C15.6228 13.7731 15.4291 13.7249 15.2359 14.0153C15.0423 14.3057 14.4863 14.9594 14.3169 15.153C14.1475 15.3467 13.9784 15.371 13.6882 15.2256C13.3979 15.0804 12.463 14.7739 11.3545 13.7853C10.4919 13.0158 9.9095 12.0655 9.74013 11.7751C9.57104 11.4844 9.7387 11.3425 9.86744 11.1829C10.1816 10.7928 10.4962 10.3838 10.5929 10.1902C10.6897 9.99656 10.6412 9.82704 10.5685 9.68184C10.4962 9.53665 9.91579 8.10828 9.67404 7.52706C9.43829 6.96144 9.19925 7.03783 9.02101 7.02896C8.85192 7.02052 8.65837 7.0188 8.46483 7.0188C8.27142 7.0188 7.95699 7.09133 7.69092 7.38201C7.42499 7.67255 6.6754 8.3745 6.6754 9.80286C6.6754 11.2312 7.71524 12.6111 7.86029 12.8048C8.00534 12.9985 9.90664 15.9296 12.8176 17.1864C13.51 17.4857 14.0504 17.6641 14.472 17.7978C15.1672 18.0187 15.7996 17.9875 16.2997 17.9129C16.8573 17.8295 18.0165 17.2108 18.2585 16.533C18.5003 15.8551 18.5003 15.2741 18.4276 15.153C18.3552 15.032 18.1617 14.9594 17.8716 14.8141Z" fill="#FFFEFE"/>
</svg>
