<svg width="25" height="23" viewBox="0 0 25 23" fill="none" xmlns="http://www.w3.org/2000/svg">
<g filter="url(#filter0_i)">
<path d="M11.7874 1.39659C12.0843 0.814718 12.9157 0.814718 13.2126 1.39659L16.1735 7.19961C16.292 7.43175 16.5161 7.59165 16.7741 7.62813L23.3521 8.55826C24.0162 8.65217 24.2769 9.47262 23.7887 9.93262L19.0645 14.384C18.8682 14.5689 18.7784 14.8403 18.8254 15.1059L19.9448 21.4195C20.06 22.0695 19.3827 22.5715 18.7943 22.2721L12.8628 19.2545C12.6348 19.1385 12.3652 19.1385 12.1372 19.2545L6.20568 22.2721C5.61727 22.5715 4.93997 22.0695 5.05522 21.4195L6.17456 15.1059C6.22164 14.8403 6.13175 14.5689 5.93546 14.384L1.2113 9.93262C0.72311 9.47262 0.983755 8.65217 1.64792 8.55826L8.22586 7.62813C8.4839 7.59165 8.708 7.43175 8.82645 7.19961L11.7874 1.39659Z" fill="#D7DDEE"/>
</g>
<defs>
<filter id="filter0_i" x="0.958984" y="0.960938" width="23.0819" height="23.4007" filterUnits="userSpaceOnUse" color-interpolation-filters="sRGB">
<feFlood flood-opacity="0" result="BackgroundImageFix"/>
<feBlend mode="normal" in="SourceGraphic" in2="BackgroundImageFix" result="shape"/>
<feColorMatrix in="SourceAlpha" type="matrix" values="0 0 0 0 0 0 0 0 0 0 0 0 0 0 0 0 0 0 127 0" result="hardAlpha"/>
<feOffset dy="2"/>
<feGaussianBlur stdDeviation="5"/>
<feComposite in2="hardAlpha" operator="arithmetic" k2="-1" k3="1"/>
<feColorMatrix type="matrix" values="0 0 0 0 0.173941 0 0 0 0 0.174464 0 0 0 0 0.179167 0 0 0 0.15 0"/>
<feBlend mode="normal" in2="shape" result="effect1_innerShadow"/>
</filter>
</defs>
</svg>
