<svg width="21" height="19" viewBox="0 0 21 19" fill="none" xmlns="http://www.w3.org/2000/svg">
<path d="M9.83989 0.851664C10.1368 0.269795 10.9682 0.269796 11.2651 0.851665L13.7371 5.69647C13.8556 5.92861 14.0797 6.0885 14.3377 6.12499L19.8223 6.90051C20.4865 6.99443 20.7471 7.81488 20.2589 8.27488L16.3259 11.9808C16.1296 12.1657 16.0397 12.4371 16.0868 12.7027L17.0194 17.9631C17.1347 18.6132 16.4574 19.1152 15.869 18.8158L10.9152 16.2956C10.6873 16.1797 10.4177 16.1797 10.1897 16.2956L5.23602 18.8158C4.6476 19.1152 3.9703 18.6132 4.08555 17.9631L5.01818 12.7027C5.06526 12.4371 4.97538 12.1657 4.77909 11.9808L0.846069 8.27488C0.357874 7.81488 0.618521 6.99443 1.28269 6.90051L6.76727 6.12499C7.02532 6.0885 7.24941 5.92861 7.36786 5.69647L9.83989 0.851664Z" fill="url(#paint0_linear)"/>
<defs>
<linearGradient id="paint0_linear" x1="10.5525" y1="-0.544922" x2="10.5525" y2="19.5437" gradientUnits="userSpaceOnUse">
<stop stop-color="#88BE8D"/>
<stop offset="1" stop-color="#529E5A"/>
</linearGradient>
</defs>
</svg>
