<svg width="33" height="26" viewBox="0 0 33 26" fill="none" xmlns="http://www.w3.org/2000/svg">
<mask id="path-1-outside-1_707_24880" maskUnits="userSpaceOnUse" x="-1.09278e-06" y="-1.39876e-06" width="33" height="26" fill="black">
<rect fill="white" x="-1.09278e-06" y="-1.39876e-06" width="33" height="26"/>
<path fill-rule="evenodd" clip-rule="evenodd" d="M30 1C31.1046 1 32 1.89543 32 3C32 4.10457 31.1046 5 30 5L3 5C1.89543 5 1 4.10457 1 3C1 1.89543 1.89543 0.999999 3 0.999999L30 1ZM16 11C17.1046 11 18 11.8954 18 13C18 14.1046 17.1046 15 16 15L3 15C1.89543 15 0.999999 14.1046 0.999999 13C1 11.8954 1.89543 11 3 11L16 11ZM27 23C27 21.8954 26.1046 21 25 21L3 21C1.89543 21 0.999999 21.8954 0.999999 23C0.999999 24.1046 1.89543 25 3 25L25 25C26.1046 25 27 24.1046 27 23Z"/>
</mask>
<path fill-rule="evenodd" clip-rule="evenodd" d="M30 1C31.1046 1 32 1.89543 32 3C32 4.10457 31.1046 5 30 5L3 5C1.89543 5 1 4.10457 1 3C1 1.89543 1.89543 0.999999 3 0.999999L30 1ZM16 11C17.1046 11 18 11.8954 18 13C18 14.1046 17.1046 15 16 15L3 15C1.89543 15 0.999999 14.1046 0.999999 13C1 11.8954 1.89543 11 3 11L16 11ZM27 23C27 21.8954 26.1046 21 25 21L3 21C1.89543 21 0.999999 21.8954 0.999999 23C0.999999 24.1046 1.89543 25 3 25L25 25C26.1046 25 27 24.1046 27 23Z" fill="url(#paint0_linear_707_24880)"/>
<path fill-rule="evenodd" clip-rule="evenodd" d="M30 1C31.1046 1 32 1.89543 32 3C32 4.10457 31.1046 5 30 5L3 5C1.89543 5 1 4.10457 1 3C1 1.89543 1.89543 0.999999 3 0.999999L30 1ZM16 11C17.1046 11 18 11.8954 18 13C18 14.1046 17.1046 15 16 15L3 15C1.89543 15 0.999999 14.1046 0.999999 13C1 11.8954 1.89543 11 3 11L16 11ZM27 23C27 21.8954 26.1046 21 25 21L3 21C1.89543 21 0.999999 21.8954 0.999999 23C0.999999 24.1046 1.89543 25 3 25L25 25C26.1046 25 27 24.1046 27 23Z" fill="url(#paint1_linear_707_24880)"/>
<path d="M33 3C33 1.34315 31.6569 -1.49994e-08 30 -8.74228e-08L30 2C30.5523 2 31 2.44772 31 3L33 3ZM30 6C31.6569 6 33 4.65685 33 3L31 3C31 3.55229 30.5523 4 30 4L30 6ZM3 6L30 6L30 4L3 4L3 6ZM-8.74228e-08 3C-1.59846e-07 4.65685 1.34314 6 3 6L3 4C2.44772 4 2 3.55229 2 3L-8.74228e-08 3ZM3 -1.26763e-06C1.34314 -1.34005e-06 -1.49994e-08 1.34315 -8.74228e-08 3L2 3C2 2.44771 2.44772 2 3 2L3 -1.26763e-06ZM30 -8.74228e-08L3 -1.26763e-06L3 2L30 2L30 -8.74228e-08ZM19 13C19 11.3431 17.6569 10 16 10L16 12C16.5523 12 17 12.4477 17 13L19 13ZM16 16C17.6569 16 19 14.6569 19 13L17 13C17 13.5523 16.5523 14 16 14L16 16ZM3 16L16 16L16 14L3 14L3 16ZM-5.24537e-07 13C-5.9696e-07 14.6569 1.34314 16 3 16L3 14C2.44771 14 2 13.5523 2 13L-5.24537e-07 13ZM3 10C1.34315 10 -4.52113e-07 11.3431 -5.24537e-07 13L2 13C2 12.4477 2.44772 12 3 12L3 10ZM16 10L3 10L3 12L16 12L16 10ZM25 22C25.5523 22 26 22.4477 26 23L28 23C28 21.3431 26.6569 20 25 20L25 22ZM3 22L25 22L25 20L3 20L3 22ZM2 23C2 22.4477 2.44771 22 3 22L3 20C1.34315 20 -8.89227e-07 21.3431 -9.61651e-07 23L2 23ZM3 24C2.44771 24 2 23.5523 2 23L-9.61651e-07 23C-1.03407e-06 24.6569 1.34315 26 3 26L3 24ZM25 24L3 24L3 26L25 26L25 24ZM26 23C26 23.5523 25.5523 24 25 24L25 26C26.6569 26 28 24.6569 28 23L26 23Z" fill="url(#paint2_linear_707_24880)" mask="url(#path-1-outside-1_707_24880)"/>
<path d="M33 3C33 1.34315 31.6569 -1.49994e-08 30 -8.74228e-08L30 2C30.5523 2 31 2.44772 31 3L33 3ZM30 6C31.6569 6 33 4.65685 33 3L31 3C31 3.55229 30.5523 4 30 4L30 6ZM3 6L30 6L30 4L3 4L3 6ZM-8.74228e-08 3C-1.59846e-07 4.65685 1.34314 6 3 6L3 4C2.44772 4 2 3.55229 2 3L-8.74228e-08 3ZM3 -1.26763e-06C1.34314 -1.34005e-06 -1.49994e-08 1.34315 -8.74228e-08 3L2 3C2 2.44771 2.44772 2 3 2L3 -1.26763e-06ZM30 -8.74228e-08L3 -1.26763e-06L3 2L30 2L30 -8.74228e-08ZM19 13C19 11.3431 17.6569 10 16 10L16 12C16.5523 12 17 12.4477 17 13L19 13ZM16 16C17.6569 16 19 14.6569 19 13L17 13C17 13.5523 16.5523 14 16 14L16 16ZM3 16L16 16L16 14L3 14L3 16ZM-5.24537e-07 13C-5.9696e-07 14.6569 1.34314 16 3 16L3 14C2.44771 14 2 13.5523 2 13L-5.24537e-07 13ZM3 10C1.34315 10 -4.52113e-07 11.3431 -5.24537e-07 13L2 13C2 12.4477 2.44772 12 3 12L3 10ZM16 10L3 10L3 12L16 12L16 10ZM25 22C25.5523 22 26 22.4477 26 23L28 23C28 21.3431 26.6569 20 25 20L25 22ZM3 22L25 22L25 20L3 20L3 22ZM2 23C2 22.4477 2.44771 22 3 22L3 20C1.34315 20 -8.89227e-07 21.3431 -9.61651e-07 23L2 23ZM3 24C2.44771 24 2 23.5523 2 23L-9.61651e-07 23C-1.03407e-06 24.6569 1.34315 26 3 26L3 24ZM25 24L3 24L3 26L25 26L25 24ZM26 23C26 23.5523 25.5523 24 25 24L25 26C26.6569 26 28 24.6569 28 23L26 23Z" fill="url(#paint3_linear_707_24880)" mask="url(#path-1-outside-1_707_24880)"/>
<defs>
<linearGradient id="paint0_linear_707_24880" x1="21.5653" y1="3.18954" x2="-1.14723" y2="11.4479" gradientUnits="userSpaceOnUse">
<stop stop-color="#547ED6"/>
<stop offset="1" stop-color="#6C95ED"/>
</linearGradient>
<linearGradient id="paint1_linear_707_24880" x1="26.5" y1="15.5" x2="1.04168" y2="5.36929" gradientUnits="userSpaceOnUse">
<stop stop-color="#8597BF"/>
<stop offset="1" stop-color="#CFD7EC"/>
</linearGradient>
<linearGradient id="paint2_linear_707_24880" x1="14.2673" y1="2.86583" x2="-3.50675" y2="19.4994" gradientUnits="userSpaceOnUse">
<stop offset="0.0953259" stop-color="#3B6BD7"/>
<stop offset="1" stop-color="#739BF0"/>
</linearGradient>
<linearGradient id="paint3_linear_707_24880" x1="32" y1="13" x2="-21.5" y2="3" gradientUnits="userSpaceOnUse">
<stop stop-color="#DCE3F5"/>
<stop offset="1" stop-color="#8597BF"/>
</linearGradient>
</defs>
</svg>
