<svg width="25" height="25" viewBox="0 0 25 25" fill="none" xmlns="http://www.w3.org/2000/svg">
<mask id="path-1-inside-1_34:40554" fill="white">
<path fill-rule="evenodd" clip-rule="evenodd" d="M3.1891 10.8427C3.1891 15.0593 6.60693 18.4726 10.8236 18.4726C15.0358 18.4726 18.4536 15.0548 18.4536 10.8427C18.4536 6.63051 15.0403 3.21268 10.8236 3.21268C6.60693 3.21268 3.1891 6.62597 3.1891 10.8427ZM18.154 16.8704L23.2967 22.013C23.6598 22.3761 23.6598 22.9617 23.3012 23.3248C22.9472 23.6834 22.2255 23.5653 21.9894 23.3248L16.8468 18.1821C15.2082 19.5302 13.1112 20.3381 10.8236 20.3381C5.57658 20.3381 1.32812 16.0851 1.32812 10.8427C1.32812 5.60017 5.57205 1.34717 10.8191 1.34717C16.0661 1.34717 20.3146 5.60017 20.3146 10.8427C20.3146 13.1303 19.5021 15.2318 18.154 16.8704ZM11.7427 9.91679H13.9804C14.4887 9.91679 14.9063 10.3298 14.9063 10.8427C14.9063 11.3556 14.4933 11.7687 13.9804 11.7687H11.7427V14.0064C11.7427 14.5193 11.3296 14.9323 10.8167 14.9323C10.3038 14.9323 9.89077 14.5193 9.89077 14.0064V11.7687H7.65307C7.14016 11.7687 6.72712 11.3556 6.72712 10.8427C6.72712 10.3298 7.14016 9.91679 7.65307 9.91679H9.89077V7.67909C9.89077 7.16618 10.3038 6.75314 10.8167 6.75314C11.3296 6.75314 11.7427 7.16618 11.7427 7.67909V9.91679Z"/>
</mask>
<path fill-rule="evenodd" clip-rule="evenodd" d="M3.1891 10.8427C3.1891 15.0593 6.60693 18.4726 10.8236 18.4726C15.0358 18.4726 18.4536 15.0548 18.4536 10.8427C18.4536 6.63051 15.0403 3.21268 10.8236 3.21268C6.60693 3.21268 3.1891 6.62597 3.1891 10.8427ZM18.154 16.8704L23.2967 22.013C23.6598 22.3761 23.6598 22.9617 23.3012 23.3248C22.9472 23.6834 22.2255 23.5653 21.9894 23.3248L16.8468 18.1821C15.2082 19.5302 13.1112 20.3381 10.8236 20.3381C5.57658 20.3381 1.32812 16.0851 1.32812 10.8427C1.32812 5.60017 5.57205 1.34717 10.8191 1.34717C16.0661 1.34717 20.3146 5.60017 20.3146 10.8427C20.3146 13.1303 19.5021 15.2318 18.154 16.8704ZM11.7427 9.91679H13.9804C14.4887 9.91679 14.9063 10.3298 14.9063 10.8427C14.9063 11.3556 14.4933 11.7687 13.9804 11.7687H11.7427V14.0064C11.7427 14.5193 11.3296 14.9323 10.8167 14.9323C10.3038 14.9323 9.89077 14.5193 9.89077 14.0064V11.7687H7.65307C7.14016 11.7687 6.72712 11.3556 6.72712 10.8427C6.72712 10.3298 7.14016 9.91679 7.65307 9.91679H9.89077V7.67909C9.89077 7.16618 10.3038 6.75314 10.8167 6.75314C11.3296 6.75314 11.7427 7.16618 11.7427 7.67909V9.91679Z" fill="white"/>
<path fill-rule="evenodd" clip-rule="evenodd" d="M3.1891 10.8427C3.1891 15.0593 6.60693 18.4726 10.8236 18.4726C15.0358 18.4726 18.4536 15.0548 18.4536 10.8427C18.4536 6.63051 15.0403 3.21268 10.8236 3.21268C6.60693 3.21268 3.1891 6.62597 3.1891 10.8427ZM18.154 16.8704L23.2967 22.013C23.6598 22.3761 23.6598 22.9617 23.3012 23.3248C22.9472 23.6834 22.2255 23.5653 21.9894 23.3248L16.8468 18.1821C15.2082 19.5302 13.1112 20.3381 10.8236 20.3381C5.57658 20.3381 1.32812 16.0851 1.32812 10.8427C1.32812 5.60017 5.57205 1.34717 10.8191 1.34717C16.0661 1.34717 20.3146 5.60017 20.3146 10.8427C20.3146 13.1303 19.5021 15.2318 18.154 16.8704ZM11.7427 9.91679H13.9804C14.4887 9.91679 14.9063 10.3298 14.9063 10.8427C14.9063 11.3556 14.4933 11.7687 13.9804 11.7687H11.7427V14.0064C11.7427 14.5193 11.3296 14.9323 10.8167 14.9323C10.3038 14.9323 9.89077 14.5193 9.89077 14.0064V11.7687H7.65307C7.14016 11.7687 6.72712 11.3556 6.72712 10.8427C6.72712 10.3298 7.14016 9.91679 7.65307 9.91679H9.89077V7.67909C9.89077 7.16618 10.3038 6.75314 10.8167 6.75314C11.3296 6.75314 11.7427 7.16618 11.7427 7.67909V9.91679Z" fill="url(#paint0_linear_34:40554)"/>
<path d="M23.2967 22.013L23.2419 22.0678L23.2967 22.013ZM18.154 16.8704L18.0942 16.8212L18.0495 16.8755L18.0992 16.9252L18.154 16.8704ZM23.3012 23.3248L23.2461 23.2703L23.2461 23.2704L23.3012 23.3248ZM21.9894 23.3248L22.0447 23.2705L22.0442 23.27L21.9894 23.3248ZM16.8468 18.1821L16.9016 18.1274L16.8519 18.0777L16.7976 18.1223L16.8468 18.1821ZM11.7427 9.91679H11.6652V9.99426H11.7427V9.91679ZM11.7427 11.7687V11.6912H11.6652V11.7687H11.7427ZM9.89077 11.7687H9.96824V11.6912H9.89077V11.7687ZM9.89077 9.91679V9.99426H9.96824V9.91679H9.89077ZM10.8236 18.3952C6.64965 18.3952 3.26656 15.0165 3.26656 10.8427H3.11163C3.11163 15.1022 6.5642 18.5501 10.8236 18.5501V18.3952ZM18.3761 10.8427C18.3761 15.012 14.993 18.3952 10.8236 18.3952V18.5501C15.0785 18.5501 18.5311 15.0976 18.5311 10.8427H18.3761ZM10.8236 3.29014C14.9975 3.29014 18.3761 6.67326 18.3761 10.8427H18.5311C18.5311 6.58776 15.0831 3.13521 10.8236 3.13521V3.29014ZM3.26656 10.8427C3.26656 6.66881 6.64965 3.29014 10.8236 3.29014V3.13521C6.5642 3.13521 3.11163 6.58313 3.11163 10.8427H3.26656ZM23.3514 21.9582L18.2088 16.8156L18.0992 16.9252L23.2419 22.0678L23.3514 21.9582ZM23.3563 23.3792C23.7447 22.9859 23.7447 22.3516 23.3514 21.9582L23.2419 22.0678C23.5748 22.4007 23.5748 22.9375 23.2461 23.2703L23.3563 23.3792ZM21.9341 23.379C22.0707 23.5182 22.332 23.6114 22.5966 23.6268C22.863 23.6423 23.1578 23.5803 23.3563 23.3792L23.2461 23.2704C23.0906 23.4278 22.8475 23.4862 22.6056 23.4721C22.3618 23.458 22.1442 23.3719 22.0447 23.2705L21.9341 23.379ZM16.792 18.2369L21.9347 23.3796L22.0442 23.27L16.9016 18.1274L16.792 18.2369ZM10.8236 20.4156C13.1298 20.4156 15.2441 19.601 16.896 18.242L16.7976 18.1223C15.1724 19.4594 13.0927 20.2607 10.8236 20.2607V20.4156ZM1.25066 10.8427C1.25066 16.1279 5.53378 20.4156 10.8236 20.4156V20.2607C5.61939 20.2607 1.40559 16.0424 1.40559 10.8427H1.25066ZM10.8191 1.2697C5.52919 1.2697 1.25066 5.55746 1.25066 10.8427H1.40559C1.40559 5.64288 5.6149 1.42463 10.8191 1.42463V1.2697ZM20.392 10.8427C20.392 5.55741 16.1089 1.2697 10.8191 1.2697V1.42463C16.0233 1.42463 20.2371 5.64293 20.2371 10.8427H20.392ZM18.2138 16.9196C19.5729 15.2677 20.392 13.1489 20.392 10.8427H20.2371C20.2371 13.1116 19.4313 15.1959 18.0942 16.8212L18.2138 16.9196ZM13.9804 9.83932H11.7427V9.99426H13.9804V9.83932ZM14.9838 10.8427C14.9838 10.2868 14.5313 9.83932 13.9804 9.83932V9.99426C14.4462 9.99426 14.8288 10.3729 14.8288 10.8427H14.9838ZM13.9804 11.8461C14.5361 11.8461 14.9838 11.3984 14.9838 10.8427H14.8288C14.8288 11.3129 14.4505 11.6912 13.9804 11.6912V11.8461ZM11.7427 11.8461H13.9804V11.6912H11.7427V11.8461ZM11.8201 14.0064V11.7687H11.6652V14.0064H11.8201ZM10.8167 15.0098C11.3724 15.0098 11.8201 14.5621 11.8201 14.0064H11.6652C11.6652 14.4765 11.2868 14.8549 10.8167 14.8549V15.0098ZM9.81331 14.0064C9.81331 14.5621 10.261 15.0098 10.8167 15.0098V14.8549C10.3466 14.8549 9.96824 14.4765 9.96824 14.0064H9.81331ZM9.81331 11.7687V14.0064H9.96824V11.7687H9.81331ZM7.65307 11.8461H9.89077V11.6912H7.65307V11.8461ZM6.64966 10.8427C6.64966 11.3984 7.09738 11.8461 7.65307 11.8461V11.6912C7.18295 11.6912 6.80458 11.3129 6.80458 10.8427H6.64966ZM7.65307 9.83932C7.09738 9.83932 6.64966 10.2871 6.64966 10.8427H6.80458C6.80458 10.3726 7.18295 9.99426 7.65307 9.99426V9.83932ZM9.89077 9.83932H7.65307V9.99426H9.89077V9.83932ZM9.81331 7.67909V9.91679H9.96824V7.67909H9.81331ZM10.8167 6.67567C10.261 6.67567 9.81331 7.1234 9.81331 7.67909H9.96824C9.96824 7.20897 10.3466 6.8306 10.8167 6.8306V6.67567ZM11.8201 7.67909C11.8201 7.1234 11.3724 6.67567 10.8167 6.67567V6.8306C11.2868 6.8306 11.6652 7.20897 11.6652 7.67909H11.8201ZM11.8201 9.91679V7.67909H11.6652V9.91679H11.8201Z" fill="#4972C7" mask="url(#path-1-inside-1_34:40554)"/>
<path d="M23.2967 22.013L23.2419 22.0678L23.2967 22.013ZM18.154 16.8704L18.0942 16.8212L18.0495 16.8755L18.0992 16.9252L18.154 16.8704ZM23.3012 23.3248L23.2461 23.2703L23.2461 23.2704L23.3012 23.3248ZM21.9894 23.3248L22.0447 23.2705L22.0442 23.27L21.9894 23.3248ZM16.8468 18.1821L16.9016 18.1274L16.8519 18.0777L16.7976 18.1223L16.8468 18.1821ZM11.7427 9.91679H11.6652V9.99426H11.7427V9.91679ZM11.7427 11.7687V11.6912H11.6652V11.7687H11.7427ZM9.89077 11.7687H9.96824V11.6912H9.89077V11.7687ZM9.89077 9.91679V9.99426H9.96824V9.91679H9.89077ZM10.8236 18.3952C6.64965 18.3952 3.26656 15.0165 3.26656 10.8427H3.11163C3.11163 15.1022 6.5642 18.5501 10.8236 18.5501V18.3952ZM18.3761 10.8427C18.3761 15.012 14.993 18.3952 10.8236 18.3952V18.5501C15.0785 18.5501 18.5311 15.0976 18.5311 10.8427H18.3761ZM10.8236 3.29014C14.9975 3.29014 18.3761 6.67326 18.3761 10.8427H18.5311C18.5311 6.58776 15.0831 3.13521 10.8236 3.13521V3.29014ZM3.26656 10.8427C3.26656 6.66881 6.64965 3.29014 10.8236 3.29014V3.13521C6.5642 3.13521 3.11163 6.58313 3.11163 10.8427H3.26656ZM23.3514 21.9582L18.2088 16.8156L18.0992 16.9252L23.2419 22.0678L23.3514 21.9582ZM23.3563 23.3792C23.7447 22.9859 23.7447 22.3516 23.3514 21.9582L23.2419 22.0678C23.5748 22.4007 23.5748 22.9375 23.2461 23.2703L23.3563 23.3792ZM21.9341 23.379C22.0707 23.5182 22.332 23.6114 22.5966 23.6268C22.863 23.6423 23.1578 23.5803 23.3563 23.3792L23.2461 23.2704C23.0906 23.4278 22.8475 23.4862 22.6056 23.4721C22.3618 23.458 22.1442 23.3719 22.0447 23.2705L21.9341 23.379ZM16.792 18.2369L21.9347 23.3796L22.0442 23.27L16.9016 18.1274L16.792 18.2369ZM10.8236 20.4156C13.1298 20.4156 15.2441 19.601 16.896 18.242L16.7976 18.1223C15.1724 19.4594 13.0927 20.2607 10.8236 20.2607V20.4156ZM1.25066 10.8427C1.25066 16.1279 5.53378 20.4156 10.8236 20.4156V20.2607C5.61939 20.2607 1.40559 16.0424 1.40559 10.8427H1.25066ZM10.8191 1.2697C5.52919 1.2697 1.25066 5.55746 1.25066 10.8427H1.40559C1.40559 5.64288 5.6149 1.42463 10.8191 1.42463V1.2697ZM20.392 10.8427C20.392 5.55741 16.1089 1.2697 10.8191 1.2697V1.42463C16.0233 1.42463 20.2371 5.64293 20.2371 10.8427H20.392ZM18.2138 16.9196C19.5729 15.2677 20.392 13.1489 20.392 10.8427H20.2371C20.2371 13.1116 19.4313 15.1959 18.0942 16.8212L18.2138 16.9196ZM13.9804 9.83932H11.7427V9.99426H13.9804V9.83932ZM14.9838 10.8427C14.9838 10.2868 14.5313 9.83932 13.9804 9.83932V9.99426C14.4462 9.99426 14.8288 10.3729 14.8288 10.8427H14.9838ZM13.9804 11.8461C14.5361 11.8461 14.9838 11.3984 14.9838 10.8427H14.8288C14.8288 11.3129 14.4505 11.6912 13.9804 11.6912V11.8461ZM11.7427 11.8461H13.9804V11.6912H11.7427V11.8461ZM11.8201 14.0064V11.7687H11.6652V14.0064H11.8201ZM10.8167 15.0098C11.3724 15.0098 11.8201 14.5621 11.8201 14.0064H11.6652C11.6652 14.4765 11.2868 14.8549 10.8167 14.8549V15.0098ZM9.81331 14.0064C9.81331 14.5621 10.261 15.0098 10.8167 15.0098V14.8549C10.3466 14.8549 9.96824 14.4765 9.96824 14.0064H9.81331ZM9.81331 11.7687V14.0064H9.96824V11.7687H9.81331ZM7.65307 11.8461H9.89077V11.6912H7.65307V11.8461ZM6.64966 10.8427C6.64966 11.3984 7.09738 11.8461 7.65307 11.8461V11.6912C7.18295 11.6912 6.80458 11.3129 6.80458 10.8427H6.64966ZM7.65307 9.83932C7.09738 9.83932 6.64966 10.2871 6.64966 10.8427H6.80458C6.80458 10.3726 7.18295 9.99426 7.65307 9.99426V9.83932ZM9.89077 9.83932H7.65307V9.99426H9.89077V9.83932ZM9.81331 7.67909V9.91679H9.96824V7.67909H9.81331ZM10.8167 6.67567C10.261 6.67567 9.81331 7.1234 9.81331 7.67909H9.96824C9.96824 7.20897 10.3466 6.8306 10.8167 6.8306V6.67567ZM11.8201 7.67909C11.8201 7.1234 11.3724 6.67567 10.8167 6.67567V6.8306C11.2868 6.8306 11.6652 7.20897 11.6652 7.67909H11.8201ZM11.8201 9.91679V7.67909H11.6652V9.91679H11.8201Z" fill="url(#paint1_linear_34:40554)" mask="url(#path-1-inside-1_34:40554)"/>
<defs>
<linearGradient id="paint0_linear_34:40554" x1="17.387" y1="21.2836" x2="11.6699" y2="1.88135" gradientUnits="userSpaceOnUse">
<stop stop-color="#C6D2FF"/>
<stop offset="1" stop-color="white"/>
</linearGradient>
<linearGradient id="paint1_linear_34:40554" x1="17.387" y1="21.2836" x2="11.6699" y2="1.88135" gradientUnits="userSpaceOnUse">
<stop stop-color="#C6D2FF"/>
<stop offset="1" stop-color="white"/>
</linearGradient>
</defs>
</svg>
