<?xml version="1.0" encoding="UTF-8" standalone="no"?>
<svg xmlns="http://www.w3.org/2000/svg" xmlns:xlink="http://www.w3.org/1999/xlink" width="16" height="16" viewBox="0 0 4.2333334 4.2333332">
  <defs>
    <path id="a" fill="#ff2116" d="M13.618546 17.95967c-.588125-.648926.04818-1.540644 1.775038-2.487549l1.086563-.595798.423302-1.021931c.232818-.562057.580292-1.479157.77217-2.037984l.348872-1.016062-.24041-.75194c-.295608-.9245831-.401021-2.3139974-.213466-2.8136005.254045-.6767259 1.086179-.6072933 1.415619.1181172.257292.5665464.230988 1.5925406-.074 2.8864733l-.250036 1.060803.22024.41253c.121134.226896.474961.765635.786285 1.1972l.585118.803076.728095-.104832c2.313032-.333033 3.105269.232985 3.105269 1.044546 0 1.024252-1.816225 1.108796-3.341393-.07316-.343165-.265942-.578827-.530127-.578827-.530127s-.955465.214624-1.425893.354528c-.485582.144413-.727839.234855-1.439137.499767 0 0-.249568.399894-.412195.690611-.605037 1.081585-1.311483 1.977925-1.815997 2.304158-.564874.365265-1.157056.390163-1.455215.06118zm.922972-.363814c.330594-.225443.999726-1.098667 1.462918-1.909121l.187533-.328133-.853899.47372c-1.318839.731653-1.922182 1.421233-1.608447 1.83834.176245.234312.387083.214887.811895-.07481zm8.566605-2.653188c.323353-.249897.276414-.753493-.08915-.956535-.284499-.158015-.513803-.190482-1.25287-.178445-.454169.03417-1.18448.135159-1.308255.165883 0 0 .401203.30595.579326.418407.237121.149431.813342.426817 1.23404.568903.414985.140155.655028.125377.836913-.01821zm-3.444521-1.579644c-.195693-.226983-.528452-.700725-.739459-1.052761-.275969-.399343-.414355-.68108-.414355-.68108s-.201709.71586-.367194 1.146637l-.516288 1.40806-.149686.319388s.79579-.287905 1.20068-.404596c.428839-.123593 1.299185-.312432 1.299185-.312432zm-1.110037-4.9117495c.04991-.4621874.0711-.9236863-.06348-1.1564118-.373299-.4502786-.823861-.074776-.747542.9957272.02568.3601266.106761.9757479.215161 1.3551903l.197094.6898838.138718-.5195975c.07629-.2857818.193319-.8999367.260053-1.364792z"/>
    <path id="b" fill="#ff2116" d="M13.856271 17.886435c-.588125-.648926.04818-1.540644 1.775038-2.487549l1.086563-.595798.423302-1.021931c.232818-.562057.580292-1.479157.77217-2.037984l.348872-1.016062-.24041-.75194c-.295608-.9245834-.401021-2.3139977-.213466-2.8136008.254045-.6767259 1.086179-.6072933 1.415619.1181172.257292.5665464.230988 1.5925406-.074 2.8864736l-.250036 1.060803.22024.41253c.121134.226896.474961.765635.786285 1.1972l.585118.803076.728095-.104832c2.313032-.333033 3.105269.232985 3.105269 1.044546 0 1.024252-1.816225 1.108796-3.341393-.07316-.343165-.265942-.578827-.530127-.578827-.530127s-.955465.214624-1.425893.354528c-.485582.144413-.727839.234855-1.439137.499767 0 0-.249568.399894-.412195.690611-.605037 1.081585-1.311483 1.977925-1.815997 2.304158-.564874.365265-1.157056.390163-1.455215.06118zm.922972-.363814c.330594-.225443.999726-1.098667 1.462918-1.909121l.187533-.328133-.853899.47372c-1.318839.731653-1.922182 1.421233-1.608447 1.83834.176245.234312.387083.214887.811895-.07481zm8.566605-2.653188c.323353-.249897.276414-.753493-.08915-.956535-.284499-.158015-.513803-.190482-1.25287-.178445-.454169.03417-1.18448.135159-1.308255.165883 0 0 .401203.30595.579326.418407.237121.149431.813342.426817 1.23404.568903.414985.140155.655028.125377.836913-.01821zm-3.444521-1.579644c-.195693-.226983-.528452-.700725-.739459-1.052761-.275969-.399343-.414355-.68108-.414355-.68108s-.201709.71586-.367194 1.146637l-.516288 1.40806-.149686.319388s.79579-.287905 1.20068-.404596c.428839-.123593 1.299185-.312432 1.299185-.312432zM18.79129 8.3780392c.04991-.4621874.0711-.9236863-.06348-1.1564118-.373299-.4502786-.823861-.074776-.747542.9957272.02568.3601266.106761.9757479.215161 1.3551903l.197094.6898841.138718-.519598c.07629-.2857816.193319-.8999365.260053-1.3647918z"/>
  </defs>
  <g transform="matrix(.26644 0 0 .26062 -2.37002937 -.77522244)">
    <path fill="#f9f9f9" d="M23.665831 5.5808341s-.02313-.056475-.04626-.094124c0 0 0-.018824-.02313-.018824-.02314-.018824-.06942-.1064581-.06942-.075299l-2.757613-2.018326s-.04626-.03765-.09253-.056475c0 0-.02313 0-.02313-.018826-.02314.018826-.04626 0-.09253 0h-9.779669c-.670807 0-1.2259682.451782-1.2259682.9976851V17.831272c0 .545903.5551612.997686 1.2259682.997686h11.65827c.67081 0 1.225971-.451783 1.225971-.997686V5.5808317Z"/>
    <path fill="gray" d="M23.665831 5.5808341s-.02313-.056475-.04626-.094124c0 0 0-.018824-.02313-.018824-.02314-.018824-.06942-.1064581-.06942-.075299l-2.757613-2.018326s-.04626-.03765-.09253-.056475c0 0-.02313 0-.02313-.018826-.02314.018826-.04626 0-.09253 0h-9.779669c-.670807 0-1.2259682.451782-1.2259682.9976851V17.831272c0 .545903.5551612.997686 1.2259682.997686h11.65827c.67081 0 1.225971-.451783 1.225971-.997686V5.5808317Zm-1.457286-.2823639h-1.091217c-.201004-.0051686-.202101-.0129482-.209117-.2109774v-.6214276Zm.411132 12.1303268c0 .16942-.161923.301189-.370106.301189H10.96596c-.208186 0-.370134-.131769-.370109-.301189l.0019-12.7296845c.000023-.1694178.161921-.3011874.370107-.3011874h9.084519v1.2582056c0 .1882426.185053.3388371.416371.3388371h2.129693z"/>
    <g transform="matrix(1.03162 .0526 -.05317 .96102 -.08530151 .59002824)">
      <g transform="rotate(-7.173 8.21524711 25.9622781) scale(1.0476)">
        <use xlink:href="#a"/>
        <use xlink:href="#b"/>
      </g>
      <g transform="rotate(-7.173 5.46755989 24.8785432) scale(1.0476)">
        <use xlink:href="#a"/>
        <use xlink:href="#b"/>
      </g>
    </g>
  </g>
</svg>